<?xml version="1.0" encoding="UTF-8"?>
<svg version="1.1" xmlns="http://www.w3.org/2000/svg" width="50" height="50">
<path d="M0 0 C0.66 0 1.32 0 2 0 C2.09905303 4.34157052 2.17155301 8.68253854 2.21972656 13.02490234 C2.23981301 14.5012559 2.26708801 15.97753019 2.30175781 17.45361328 C2.35041184 19.57864962 2.37299673 21.70263234 2.390625 23.828125 C2.41157227 25.1059082 2.43251953 26.38369141 2.45410156 27.70019531 C2 31 2 31 0.42382812 33.41015625 C-2.87174167 35.5717951 -5.2453166 35.54500519 -9.171875 35.609375 C-9.8542926 35.62591125 -10.53671021 35.64244751 -11.23980713 35.65948486 C-13.40996354 35.70789839 -15.57941972 35.72931865 -17.75 35.75 C-19.22529552 35.77816562 -20.70055851 35.80809389 -22.17578125 35.83984375 C-25.78370198 35.91365225 -29.39148972 35.96326894 -33 36 C-32.13375 36.81404297 -32.13375 36.81404297 -31.25 37.64453125 C-30.5075 38.35996094 -29.765 39.07539062 -29 39.8125 C-27.88625 40.87404297 -27.88625 40.87404297 -26.75 41.95703125 C-25 44 -25 44 -25 47 C-29.44926052 46.58685438 -31.84100104 43.49538473 -34.75 40.4375 C-35.25660156 39.91736328 -35.76320313 39.39722656 -36.28515625 38.86132812 C-37.53034405 37.58089916 -38.76611502 36.29132446 -40 35 C-38.387672 30.96918 -35.53765404 28.24055863 -32.5 25.25 C-32.00113281 24.74339844 -31.50226562 24.23679687 -30.98828125 23.71484375 C-27.25341139 20 -27.25341139 20 -25 20 C-25.56959153 23.62613199 -26.92374534 25.25517741 -29.5625 27.75 C-30.20316406 28.36359375 -30.84382813 28.9771875 -31.50390625 29.609375 C-31.99761719 30.06828125 -32.49132812 30.5271875 -33 31 C-28.74585377 31.02465622 -24.49174502 31.04283899 -20.23754883 31.05493164 C-18.78929927 31.05997101 -17.34105483 31.06680253 -15.89282227 31.07543945 C-13.81525412 31.08752247 -11.73775303 31.09323211 -9.66015625 31.09765625 C-8.40855713 31.10289307 -7.15695801 31.10812988 -5.86743164 31.11352539 C-3.10267706 31.32887035 -3.10267706 31.32887035 -2 30 C-1.85361067 27.86754518 -1.77254188 25.73054663 -1.71875 23.59375 C-1.68136719 22.29308594 -1.64398438 20.99242187 -1.60546875 19.65234375 C-1.5697606 18.2682433 -1.53461129 16.88412832 -1.5 15.5 C-1.43253065 12.80185649 -1.35879127 10.10415131 -1.28125 7.40625 C-1.25095703 6.20291016 -1.22066406 4.99957031 -1.18945312 3.75976562 C-1 1 -1 1 0 0 Z " fill="#000000" transform="translate(44,2)"/>
</svg>
