<?xml version="1.0" encoding="UTF-8"?>
<svg version="1.1" xmlns="http://www.w3.org/2000/svg" width="100" height="100">
<path d="M0 0 C2.0625 0.4375 2.0625 0.4375 4 1 C4.06966439 8.32818856 4.12289432 15.65630512 4.15543652 22.98475838 C4.17105917 26.38807031 4.19223435 29.79115485 4.22631836 33.19433594 C4.26530034 37.11129997 4.2797374 41.02817351 4.29296875 44.9453125 C4.31619453 46.76906906 4.31619453 46.76906906 4.33988953 48.62966919 C4.34199889 59.24877248 4.34199889 59.24877248 1 64 C-3.58899229 68.24481787 -6.88926903 69.11810321 -13.03198242 69.20532227 C-14.89357246 69.2352401 -14.89357246 69.2352401 -16.79277039 69.26576233 C-18.1470019 69.28274527 -19.50123473 69.29962413 -20.85546875 69.31640625 C-22.24124259 69.33698228 -23.62701025 69.35797892 -25.01277161 69.37937927 C-28.65740953 69.43453301 -32.30210346 69.48397174 -35.94683838 69.53222656 C-39.6670835 69.58249056 -43.38724743 69.63815104 -47.10742188 69.69335938 C-54.40487913 69.80085899 -61.70240397 69.90232207 -69 70 C-68.41919678 70.55461914 -67.83839355 71.10923828 -67.23999023 71.68066406 C-64.62625526 74.19073147 -62.03185181 76.71991027 -59.4375 79.25 C-58.52291016 80.12269531 -57.60832031 80.99539062 -56.66601562 81.89453125 C-55.80556641 82.73886719 -54.94511719 83.58320312 -54.05859375 84.453125 C-53.25736084 85.22817383 -52.45612793 86.00322266 -51.63061523 86.80175781 C-50 89 -50 89 -50.24633789 91.28417969 C-50.49504639 91.85040039 -50.74375488 92.41662109 -51 93 C-55.46402906 92.5844157 -57.90601071 89.47386326 -60.859375 86.43359375 C-61.40861633 85.88010757 -61.95785767 85.3266214 -62.52374268 84.75636292 C-64.27300464 82.99033441 -66.01153644 81.21415308 -67.75 79.4375 C-68.935505 78.23694559 -70.12169524 77.0370674 -71.30859375 75.83789062 C-74.21373293 72.89970905 -77.10929337 69.95237926 -80 67 C-74.90743817 60.88220295 -69.45736165 55.17174444 -63.875 49.5 C-62.98167969 48.56929687 -62.08835937 47.63859375 -61.16796875 46.6796875 C-60.30558594 45.80570313 -59.44320312 44.93171875 -58.5546875 44.03125 C-57.77593262 43.23267578 -56.99717773 42.43410156 -56.19482422 41.61132812 C-54 40 -54 40 -51.71533203 40.24804688 C-51.14927246 40.49619141 -50.58321289 40.74433594 -50 41 C-50.55612455 44.88136584 -52.27673138 46.62756918 -55.03515625 49.328125 C-55.84404297 50.12734375 -56.65292969 50.9265625 -57.48632812 51.75 C-58.33646484 52.575 -59.18660156 53.4 -60.0625 54.25 C-61.34350586 55.51070312 -61.34350586 55.51070312 -62.65039062 56.796875 C-64.76035412 58.87147597 -66.87699708 60.93875832 -69 63 C-61.13303506 63.09278582 -53.26619891 63.16380813 -45.39882374 63.20724869 C-41.74542185 63.22810093 -38.09239503 63.25637408 -34.43920898 63.30175781 C-30.91193151 63.34530186 -27.3850142 63.36915489 -23.85748863 63.37950897 C-21.86050401 63.39046874 -19.86366376 63.42168148 -17.86689758 63.45318604 C-16.64600937 63.45348816 -15.42512115 63.45379028 -14.16723633 63.45410156 C-13.09468094 63.46298401 -12.02212555 63.47186646 -10.91706848 63.48101807 C-7.2830626 62.88177863 -5.62593316 61.52892042 -3 59 C-1.71211229 56.42422458 -1.84714315 54.53245971 -1.81054688 51.64819336 C-1.79382935 50.53041 -1.77711182 49.41262665 -1.7598877 48.26097107 C-1.74631226 47.04949905 -1.73273682 45.83802704 -1.71875 44.58984375 C-1.70034058 43.3520668 -1.68193115 42.11428986 -1.66296387 40.83900452 C-1.59403269 36.19659551 -1.53366027 31.55409369 -1.47393799 26.91156006 C-1.41503196 22.36673351 -1.34889554 17.82204729 -1.28125 13.27734375 C-1.26767456 12.0638475 -1.25409912 10.85035126 -1.2401123 9.6000824 C-1.22339478 8.4854512 -1.20667725 7.37082001 -1.18945312 6.22241211 C-1.17692505 5.23583115 -1.16439697 4.24925018 -1.15148926 3.23277283 C-1 1 -1 1 0 0 Z " fill="#000000" transform="translate(88,5)"/>
</svg>
