<?xml version="1.0" encoding="UTF-8"?>
<svg version="1.1" xmlns="http://www.w3.org/2000/svg" width="64" height="64">
<path d="M0 0 C1.875 1.3125 1.875 1.3125 3 3 C3 4.32 3 5.64 3 7 C3.70125 7.185625 4.4025 7.37125 5.125 7.5625 C9.91143831 9.95571916 13.09805291 13.72072177 15.06445312 18.68994141 C16.59048796 24.08920558 16.33357429 29.47197746 16.31567383 35.05029297 C16.3124977 37.12650304 16.33607042 39.2013077 16.36132812 41.27734375 C16.36197266 42.59089844 16.36261719 43.90445313 16.36328125 45.2578125 C16.36626221 46.4555127 16.36924316 47.65321289 16.37231445 48.88720703 C15.95647815 52.36387122 15.70934885 53.76799488 13 56 C10.31959953 56.39389466 8.05387465 56.53796055 5.375 56.49609375 C4.63169434 56.49754898 3.88838867 56.49900421 3.12255859 56.50050354 C1.55236895 56.49884492 -0.01783701 56.48728747 -1.58789062 56.46655273 C-3.99158769 56.43760132 -6.39307869 56.44594166 -8.796875 56.45898438 C-10.32292739 56.45274664 -11.84897281 56.44435542 -13.375 56.43359375 C-14.45322021 56.43799721 -14.45322021 56.43799721 -15.55322266 56.44248962 C-18.31445108 56.39027717 -20.50485659 56.27308849 -22.94946289 54.92480469 C-25.44412223 50.35406468 -24.47506573 44.23317513 -24.44604492 39.11401367 C-24.4375926 36.83744167 -24.46619469 34.56342968 -24.49804688 32.28710938 C-24.5388795 23.99117606 -24.56099916 16.832076 -18.51708984 10.42895508 C-15.91650345 8.07636896 -14.57314335 7 -11 7 C-10.9175 6.05125 -10.835 5.1025 -10.75 4.125 C-10 1 -10 1 -8.3125 -0.4375 C-5.20225237 -1.19404672 -3.07407512 -0.8502761 0 0 Z M-6 3 C-6.99 4.485 -6.99 4.485 -8 6 C-5.69 6 -3.38 6 -1 6 C-1.33 5.01 -1.66 4.02 -2 3 C-3.32 3 -4.64 3 -6 3 Z M-17 14 C-20.63774795 18.10713479 -21.19944882 23.63387704 -21 29 C-19.11153817 31.32866229 -19.11153817 31.32866229 -15.9609375 31.1953125 C-12.640625 31.13020833 -9.3203125 31.06510417 -6 31 C-6 23.74 -6 16.48 -6 9 C-10.53552311 9 -13.44489212 11.32810263 -17 14 Z M-2 9 C-2 16.26 -2 23.52 -2 31 C0.124375 31.020625 2.24875 31.04125 4.4375 31.0625 C5.63246094 31.07410156 6.82742187 31.08570312 8.05859375 31.09765625 C10.88873341 31.33901792 10.88873341 31.33901792 12 30 C12.69555709 24.68639992 12.35987281 20.1200915 9.4140625 15.57421875 C6.7924316 12.65566281 3.53371871 10.65977697 0 9 C-0.66 9 -1.32 9 -2 9 Z M-21 34 C-21 35.32 -21 36.64 -21 38 C-10.11 38 0.78 38 12 38 C12 36.68 12 35.36 12 34 C1.11 34 -9.78 34 -21 34 Z M-21 41 C-21.4118462 47.81869944 -21.4118462 47.81869944 -19 53 C-14.90661348 53.04939115 -10.81334202 53.08571501 -6.71972656 53.10986328 C-5.32679219 53.11992877 -3.93387898 53.13358234 -2.54101562 53.15087891 C-0.5404564 53.1751022 1.46025615 53.18540814 3.4609375 53.1953125 C4.66540527 53.20578613 5.86987305 53.21625977 7.11083984 53.22705078 C10.12841495 53.30460814 10.12841495 53.30460814 12 51 C12.24287489 48.55987051 12.24287489 48.55987051 12.125 45.875 C12.10695312 44.96492188 12.08890625 44.05484375 12.0703125 43.1171875 C12.04710937 42.41851562 12.02390625 41.71984375 12 41 C10.68 41 9.36 41 8 41 C8 42.65 8 44.3 8 46 C7.01 46 6.02 46 5 46 C5 44.35 5 42.7 5 41 C-3.58 41 -12.16 41 -21 41 Z " fill="#000000" transform="translate(36,4)"/>
<path d="M0 0 C1.4540625 0.0309375 1.4540625 0.0309375 2.9375 0.0625 C4.11423198 2.41596396 4.10373866 3.9431033 4.125 6.5625 C4.13917969 7.3565625 4.15335938 8.150625 4.16796875 8.96875 C3.9375 11.0625 3.9375 11.0625 1.9375 13.0625 C-1.1875 12.6875 -1.1875 12.6875 -4.0625 12.0625 C-4.08937279 10.25007948 -4.10883715 8.43754767 -4.125 6.625 C-4.13660156 5.61566406 -4.14820312 4.60632813 -4.16015625 3.56640625 C-4.01596662 -0.13061575 -3.76355726 0.07680729 0 0 Z M-1.0625 3.0625 C-1.0625 5.0425 -1.0625 7.0225 -1.0625 9.0625 C-0.4025 8.7325 0.2575 8.4025 0.9375 8.0625 C0.6075 6.4125 0.2775 4.7625 -0.0625 3.0625 C-0.3925 3.0625 -0.7225 3.0625 -1.0625 3.0625 Z " fill="#000000" transform="translate(24.0625,19.9375)"/>
<path d="M0 0 C3 0.125 3 0.125 4 1.125 C4.1245486 2.76730364 4.17568524 4.41552276 4.1875 6.0625 C4.20167969 6.95839844 4.21585938 7.85429687 4.23046875 8.77734375 C4 11.125 4 11.125 2 13.125 C-2.55555556 12.56944444 -2.55555556 12.56944444 -4 11.125 C-4.09823937 9.46070949 -4.12973631 7.79218069 -4.125 6.125 C-4.12757812 5.2175 -4.13015625 4.31 -4.1328125 3.375 C-3.92833754 -0.08904636 -3.53862542 0.14744273 0 0 Z M-1 3.125 C-1 5.105 -1 7.085 -1 9.125 C-0.34 9.125 0.32 9.125 1 9.125 C1 7.145 1 5.165 1 3.125 C0.34 3.125 -0.32 3.125 -1 3.125 Z " fill="#000000" transform="translate(40,19.875)"/>
</svg>
