<?xml version="1.0" encoding="UTF-8"?>
<svg version="1.1" xmlns="http://www.w3.org/2000/svg" width="48" height="48">
<path d="M0 0 C4.68796317 2.8950501 8.77605467 6.42344712 10.234375 11.89453125 C11.16656452 18.74158704 11.3930195 24.99387098 7.671875 31.01953125 C3.66347868 35.99068326 0.31000422 38.47580101 -6.0078125 39.3359375 C-13.1275177 39.69575056 -18.34453314 39.19135672 -23.98828125 34.640625 C-29.08369757 29.63479842 -30.03494232 26.05750776 -30.390625 19.01953125 C-30.17838344 12.13997715 -28.58962241 7.80486419 -23.765625 2.89453125 C-17.29271618 -2.6344117 -7.84970384 -3.13766411 0 0 Z " fill="#ED3A47" transform="translate(33.765625,5.10546875)"/>
<path d="M0 0 C0.99 0 1.98 0 3 0 C3 1.98 3 3.96 3 6 C5.31 6 7.62 6 10 6 C10 7.32 10 8.64 10 10 C9.01 10.66 8.02 11.32 7 12 C7.3403125 13.3921875 7.3403125 13.3921875 7.6875 14.8125 C8 18 8 18 6.5625 19.875 C6.046875 20.24625 5.53125 20.6175 5 21 C5 20.01 5 19.02 5 18 C3.33388095 17.957279 1.66617115 17.95936168 0 18 C-0.33 18.33 -0.66 18.66 -1 19 C-2.99958364 19.04080783 -5.00045254 19.04254356 -7 19 C-5.515 16.525 -5.515 16.525 -4 14 C-4.825 13.4225 -5.65 12.845 -6.5 12.25 C-7.325 11.5075 -8.15 10.765 -9 10 C-9 8.68 -9 7.36 -9 6 C-8.2575 6.12375 -7.515 6.2475 -6.75 6.375 C-5.38875 6.189375 -5.38875 6.189375 -4 6 C-2.61061923 4.03852126 -1.2739589 2.03833424 0 0 Z " fill="#EFD1D6" transform="translate(23,13)"/>
<path d="M0 0 C1.98 0 3.96 0 6 0 C6 1.32 6 2.64 6 4 C5.01 4.66 4.02 5.32 3 6 C3.3403125 7.3921875 3.3403125 7.3921875 3.6875 8.8125 C4 12 4 12 2.5625 13.875 C2.046875 14.24625 1.53125 14.6175 1 15 C1 14.01 1 13.02 1 12 C0.34 12 -0.32 12 -1 12 C-1.08159574 7.83861737 -0.98248524 4.0527516 0 0 Z " fill="#EFD6DA" transform="translate(27,19)"/>
<path d="M0 0 C0.66 0.33 1.32 0.66 2 1 C2.625 3.0625 2.625 3.0625 3 5 C2.34 5 1.68 5 1 5 C1 6.98 1 8.96 1 11 C-2.4019487 13.09350689 -5.05272412 13.17942163 -9 13 C-8.38125 12.0925 -7.7625 11.185 -7.125 10.25 C-5.06094589 7.24290453 -5.06094589 7.24290453 -3.9375 4.8125 C-2.89858774 2.8039363 -1.66490584 1.51355077 0 0 Z " fill="#EE737D" transform="translate(25,19)"/>
<path d="M0 0 C-0.57344937 2.86724686 -0.8614515 3.8614515 -3 6 C-6.125 6.125 -6.125 6.125 -9 6 C-6.54625122 1.21518987 -6.54625122 1.21518987 -3.9375 0.1875 C-2 0 -2 0 0 0 Z " fill="#EFE0E4" transform="translate(25,26)"/>
<path d="M0 0 C1.98 0 3.96 0 6 0 C6 1.32 6 2.64 6 4 C4.02 4 2.04 4 0 4 C0 2.68 0 1.36 0 0 Z " fill="#EFE0E4" transform="translate(27,19)"/>
</svg>
