<?xml version="1.0" encoding="UTF-8"?>
<svg version="1.1" xmlns="http://www.w3.org/2000/svg" width="30" height="30">
<path d="M0 0 C0.495 8.415 0.495 8.415 1 17 C-0.32 17 -1.64 17 -3 17 C-2.67 12.71 -2.34 8.42 -2 4 C-3.98 4.99 -3.98 4.99 -6 6 C-6 8.64 -6 11.28 -6 14 C-10.49011128 15.81742599 -13.29341431 16.12548788 -18 15 C-18.78375 14.814375 -19.5675 14.62875 -20.375 14.4375 C-21.179375 14.2209375 -21.179375 14.2209375 -22 14 C-22 11.36 -22 8.72 -22 6 C-23.98 5.34 -25.96 4.68 -28 4 C-27.75390625 2.109375 -27.75390625 2.109375 -27 0 C-18.13126801 -5.20091941 -9.09840701 -3.03280234 0 0 Z M-17 7 C-17 7.33 -17 7.66 -17 8 C-15.02 8 -13.04 8 -11 8 C-11 7.67 -11 7.34 -11 7 C-12.98 7 -14.96 7 -17 7 Z " fill="#000000" transform="translate(29,8)"/>
</svg>
