<?xml version="1.0" encoding="UTF-8"?>
<svg version="1.1" xmlns="http://www.w3.org/2000/svg" width="50" height="50">
<path d="M0 0 C3.63212287 1.47014497 6.54998481 3.66097517 9.625 6.0625 C9.625 5.4025 9.625 4.7425 9.625 4.0625 C11.605 4.0625 13.585 4.0625 15.625 4.0625 C15.645625 5.279375 15.66625 6.49625 15.6875 7.75 C15.99763255 10.49273472 16.2225256 11.6813103 18.25 13.6015625 C20.15951793 14.8903331 20.15951793 14.8903331 22.12890625 15.95703125 C22.62261719 16.32183594 23.11632813 16.68664062 23.625 17.0625 C23.625 18.0525 23.625 19.0425 23.625 20.0625 C22.635 20.0625 21.645 20.0625 20.625 20.0625 C20.625 28.6425 20.625 37.2225 20.625 46.0625 C6.765 46.0625 -7.095 46.0625 -21.375 46.0625 C-21.375 37.4825 -21.375 28.9025 -21.375 20.0625 C-22.365 20.0625 -23.355 20.0625 -24.375 20.0625 C-24.375 19.0725 -24.375 18.0825 -24.375 17.0625 C-22.89379883 15.59204102 -22.89379883 15.59204102 -20.83203125 14.06640625 C-20.08759766 13.50759766 -19.34316406 12.94878906 -18.57617188 12.37304688 C-17.78791016 11.79619141 -16.99964844 11.21933594 -16.1875 10.625 C-14.65207387 9.48083082 -13.11691115 8.33630808 -11.58203125 7.19140625 C-10.48810059 6.38521851 -10.48810059 6.38521851 -9.37207031 5.56274414 C-7.70207066 4.30820283 -6.08062467 2.98937052 -4.47265625 1.65625 C-2.375 0.0625 -2.375 0.0625 0 0 Z M-6.23046875 6.87109375 C-6.93494141 7.45310547 -7.63941406 8.03511719 -8.36523438 8.63476562 C-9.09033203 9.25029297 -9.81542969 9.86582031 -10.5625 10.5 C-11.29919922 11.11166016 -12.03589844 11.72332031 -12.79492188 12.35351562 C-16.17325375 15.10964599 -16.17325375 15.10964599 -19.375 18.0625 C-19.46248207 19.98917507 -19.48197334 21.91901861 -19.47265625 23.84765625 C-19.47015869 24.90090088 -19.46766113 25.95414551 -19.46508789 27.03930664 C-19.45598389 28.38758545 -19.44687988 29.73586426 -19.4375 31.125 C-19.416875 35.394375 -19.39625 39.66375 -19.375 44.0625 C-6.835 44.0625 5.705 44.0625 18.625 44.0625 C18.74875 37.75125 18.74875 37.75125 18.875 31.3125 C18.91141602 29.9915332 18.94783203 28.67056641 18.98535156 27.30957031 C18.9953418 26.26381836 19.00533203 25.21806641 19.015625 24.140625 C19.03657227 23.07231445 19.05751953 22.00400391 19.07910156 20.90332031 C18.51685727 17.38596838 17.25850957 16.35628428 14.625 14.0625 C13.85370644 11.35308418 13.81416678 8.90000169 13.625 6.0625 C12.965 6.0625 12.305 6.0625 11.625 6.0625 C11.625 7.7125 11.625 9.3625 11.625 11.0625 C8.87970129 9.49375788 6.47388732 7.93350137 4.0625 5.875 C-0.0716572 2.80088311 -2.61916169 3.84802115 -6.23046875 6.87109375 Z " fill="#000000" transform="translate(25.375,0.9375)"/>
<path d="M0 0 C7.26 0 14.52 0 22 0 C22 0.66 22 1.32 22 2 C14.74 2 7.48 2 0 2 C0 1.34 0 0.68 0 0 Z " fill="#000000" transform="translate(14,33)"/>
<path d="M0 0 C7.26 0 14.52 0 22 0 C22 0.66 22 1.32 22 2 C14.74 2 7.48 2 0 2 C0 1.34 0 0.68 0 0 Z " fill="#000000" transform="translate(14,27)"/>
</svg>
