<?xml version="1.0" encoding="UTF-8"?>
<svg version="1.1" xmlns="http://www.w3.org/2000/svg" width="48" height="48">
<path d="M0 0 C1.62035156 -0.02900391 1.62035156 -0.02900391 3.2734375 -0.05859375 C7.88142536 -0.03014938 11.1169189 0.15015591 15.2109375 2.3515625 C18.08092772 7.6027673 17.72175092 12.74254397 17.625 18.625 C17.64433594 19.800625 17.66367187 20.97625 17.68359375 22.1875 C17.65591657 27.05868419 17.5687618 30.58433977 15.2109375 34.8984375 C10.23212657 37.57560834 5.56401053 37.34959446 0 37.25 C-1.62035156 37.27900391 -1.62035156 37.27900391 -3.2734375 37.30859375 C-7.88142536 37.28014938 -11.1169189 37.09984409 -15.2109375 34.8984375 C-18.08092772 29.6472327 -17.72175092 24.50745603 -17.625 18.625 C-17.64433594 17.449375 -17.66367187 16.27375 -17.68359375 15.0625 C-17.65591657 10.19131581 -17.5687618 6.66566023 -15.2109375 2.3515625 C-10.23212657 -0.32560834 -5.56401053 -0.09959446 0 0 Z " fill="#F8F8F8" transform="translate(24,6.375)"/>
<path d="M0 0 C1.62035156 -0.02900391 1.62035156 -0.02900391 3.2734375 -0.05859375 C7.88142536 -0.03014938 11.1169189 0.15015591 15.2109375 2.3515625 C18.08092772 7.6027673 17.72175092 12.74254397 17.625 18.625 C17.64433594 19.800625 17.66367187 20.97625 17.68359375 22.1875 C17.65591657 27.05868419 17.5687618 30.58433977 15.2109375 34.8984375 C10.23212657 37.57560834 5.56401053 37.34959446 0 37.25 C-1.62035156 37.27900391 -1.62035156 37.27900391 -3.2734375 37.30859375 C-7.88142536 37.28014938 -11.1169189 37.09984409 -15.2109375 34.8984375 C-18.08092772 29.6472327 -17.72175092 24.50745603 -17.625 18.625 C-17.64433594 17.449375 -17.66367187 16.27375 -17.68359375 15.0625 C-17.65591657 10.19131581 -17.5687618 6.66566023 -15.2109375 2.3515625 C-10.23212657 -0.32560834 -5.56401053 -0.09959446 0 0 Z M-13.62109375 4.00390625 C-15.84408695 8.22948255 -15.57686136 12.36434925 -15.5 17.0625 C-15.51546875 18.00416016 -15.5309375 18.94582031 -15.546875 19.91601562 C-15.5238672 23.99127153 -15.27917508 26.99309946 -13.62109375 30.74609375 C-9.49117208 33.70658902 -5.51673579 33.35131362 -0.5625 33.25 C0.84999023 33.27900391 0.84999023 33.27900391 2.29101562 33.30859375 C6.66529678 33.27772373 9.32540677 33.03110681 13.12109375 30.74609375 C15.85838452 26.19911803 15.73202717 22.27472336 15.625 17.0625 C15.64433594 16.11697266 15.66367187 15.17144531 15.68359375 14.19726562 C15.65404428 10.01601538 15.59341922 7.45282598 13.12109375 4.00390625 C8.54304782 1.98131524 4.38847083 2.04366988 -0.5625 2.125 C-1.50802734 2.10953125 -2.45355469 2.0940625 -3.42773438 2.078125 C-7.30205382 2.10002928 -10.16361362 2.18499345 -13.62109375 4.00390625 Z " fill="#040404" transform="translate(24,6.375)"/>
<path d="M0 0 C2.69990662 1.79993774 4.5418865 3.083773 6 6 C6.43023798 9.87214182 6.31669086 11.52496371 4.125 14.8125 C1.61855093 17.39266816 0.74538327 17.91717964 -2.8125 18.3125 C-6.7307645 17.92835642 -8.21293267 16.70743683 -11 14 C-12.42662219 11.14675563 -12.31033868 9.16545451 -12 6 C-8.54235344 0.81353016 -6.24330406 -0.61208863 0 0 Z " fill="#F4F4F4" transform="translate(27,15)"/>
<path d="M0 0 C2.69990662 1.79993774 4.5418865 3.083773 6 6 C6.43023798 9.87214182 6.31669086 11.52496371 4.125 14.8125 C1.61855093 17.39266816 0.74538327 17.91717964 -2.8125 18.3125 C-6.7307645 17.92835642 -8.21293267 16.70743683 -11 14 C-12.42662219 11.14675563 -12.31033868 9.16545451 -12 6 C-8.54235344 0.81353016 -6.24330406 -0.61208863 0 0 Z M-8.375 3.625 C-10.48706506 6.71186432 -10.61195145 8.3282913 -10 12 C-8.5 14.5 -8.5 14.5 -6 16 C-2.3282913 16.61195145 -0.71186432 16.48706506 2.375 14.375 C4.48706506 11.28813568 4.61195145 9.6717087 4 6 C2.5 3.5 2.5 3.5 0 2 C-3.6717087 1.38804855 -5.28813568 1.51293494 -8.375 3.625 Z " fill="#1B1B1B" transform="translate(27,15)"/>
</svg>
