<?xml version="1.0" encoding="UTF-8"?>
<svg version="1.1" xmlns="http://www.w3.org/2000/svg" width="50" height="50">
<path d="M0 0 C5.56340585 3.36669624 9.53349183 8.25193794 11.5 14.4375 C12.30594257 22.2813829 12.59671889 30.02934467 7.5 36.4375 C3.04867668 41.14197914 -1.19064516 44.09747071 -7.76953125 44.7734375 C-16.04371997 44.8646634 -22.08428015 44.61560264 -28.2421875 38.7890625 C-34.17397269 32.28964236 -34.96296445 26.57688134 -34.80859375 17.88671875 C-34.22339005 11.3457711 -31.85547257 7.43687235 -27.0625 3.0625 C-19.84507341 -2.93248543 -8.52200107 -3.84066973 0 0 Z M-21.5 10.4375 C-21.5 11.0975 -21.5 11.7575 -21.5 12.4375 C-20.84 12.4375 -20.18 12.4375 -19.5 12.4375 C-19.5 11.7775 -19.5 11.1175 -19.5 10.4375 C-20.16 10.4375 -20.82 10.4375 -21.5 10.4375 Z M-22.5 16.4375 C-22.5 21.3875 -22.5 26.3375 -22.5 31.4375 C-21.18 31.4375 -19.86 31.4375 -18.5 31.4375 C-18.5 26.4875 -18.5 21.5375 -18.5 16.4375 C-19.82 16.4375 -21.14 16.4375 -22.5 16.4375 Z M-14.5 16.4375 C-14.5 21.3875 -14.5 26.3375 -14.5 31.4375 C-13.18 31.4375 -11.86 31.4375 -10.5 31.4375 C-10.17 28.1375 -9.84 24.8375 -9.5 21.4375 C-7.85 21.4375 -6.2 21.4375 -4.5 21.4375 C-4.17 24.7375 -3.84 28.0375 -3.5 31.4375 C-2.18 31.4375 -0.86 31.4375 0.5 31.4375 C0.72904469 24.71582522 0.72904469 24.71582522 -1.5 18.4375 C-1.83 18.1075 -2.16 17.7775 -2.5 17.4375 C-3.5725 17.4375 -4.645 17.4375 -5.75 17.4375 C-9.5 17.4375 -9.5 17.4375 -14.5 16.4375 Z " fill="#000000" transform="translate(36.5,3.5625)"/>
</svg>
