<?xml version="1.0" encoding="UTF-8"?>
<svg version="1.1" xmlns="http://www.w3.org/2000/svg" width="48" height="48">
<path d="M0 0 C0.7027002 -0.00191345 1.40540039 -0.0038269 2.12939453 -0.00579834 C3.61556354 -0.00715975 5.10174445 -0.00346632 6.58789062 0.00488281 C8.86615646 0.01558346 11.14363377 0.00498661 13.421875 -0.0078125 C14.86458508 -0.0064909 16.30729466 -0.00392849 17.75 0 C19.06742188 0.00225586 20.38484375 0.00451172 21.7421875 0.00683594 C24.875 0.265625 24.875 0.265625 26.875 2.265625 C27.13378906 5.3984375 27.13378906 5.3984375 27.140625 9.390625 C27.14349518 10.44467529 27.14349518 10.44467529 27.14642334 11.52001953 C27.14778475 13.00618854 27.14409132 14.49236945 27.13574219 15.97851562 C27.12504154 18.25678146 27.13563839 20.53425877 27.1484375 22.8125 C27.1471159 24.25521008 27.14455349 25.69791966 27.140625 27.140625 C27.13836914 28.45804688 27.13611328 29.77546875 27.13378906 31.1328125 C26.875 34.265625 26.875 34.265625 24.875 36.265625 C21.7421875 36.52441406 21.7421875 36.52441406 17.75 36.53125 C17.0472998 36.53316345 16.34459961 36.5350769 15.62060547 36.53704834 C14.13443646 36.53840975 12.64825555 36.53471632 11.16210938 36.52636719 C8.88384354 36.51566654 6.60636623 36.52626339 4.328125 36.5390625 C2.88541492 36.5377409 1.44270534 36.53517849 0 36.53125 C-1.31742188 36.52899414 -2.63484375 36.52673828 -3.9921875 36.52441406 C-7.125 36.265625 -7.125 36.265625 -9.125 34.265625 C-9.38378906 31.1328125 -9.38378906 31.1328125 -9.390625 27.140625 C-9.39253845 26.4379248 -9.3944519 25.73522461 -9.39642334 25.01123047 C-9.39778475 23.52506146 -9.39409132 22.03888055 -9.38574219 20.55273438 C-9.37504154 18.27446854 -9.38563839 15.99699123 -9.3984375 13.71875 C-9.3971159 12.27603992 -9.39455349 10.83333034 -9.390625 9.390625 C-9.38836914 8.07320312 -9.38611328 6.75578125 -9.38378906 5.3984375 C-8.87226161 -0.79394015 -5.32764374 0.00912268 0 0 Z " fill="#2094F0" transform="translate(15.125,5.734375)"/>
<path d="M0 0 C1.07507813 -0.00128906 2.15015625 -0.00257812 3.2578125 -0.00390625 C4.38960937 -0.00003906 5.52140625 0.00382813 6.6875 0.0078125 C7.81929687 0.00394531 8.95109375 0.00007812 10.1171875 -0.00390625 C11.19226563 -0.00261719 12.26734375 -0.00132813 13.375 0 C14.86580078 0.00169189 14.86580078 0.00169189 16.38671875 0.00341797 C18.6875 0.1328125 18.6875 0.1328125 19.6875 1.1328125 C19.78731214 3.8101263 19.82629875 6.45585425 19.8125 9.1328125 C19.81830078 10.25816406 19.81830078 10.25816406 19.82421875 11.40625 C19.81411053 17.00620197 19.81411053 17.00620197 18.6875 18.1328125 C16.91890807 18.23227703 15.14638549 18.26361467 13.375 18.265625 C12.29992187 18.26691406 11.22484375 18.26820312 10.1171875 18.26953125 C8.98539063 18.26566406 7.85359375 18.26179688 6.6875 18.2578125 C5.55570313 18.26167969 4.42390625 18.26554687 3.2578125 18.26953125 C2.18273437 18.26824219 1.10765625 18.26695313 0 18.265625 C-0.99386719 18.26449707 -1.98773438 18.26336914 -3.01171875 18.26220703 C-5.3125 18.1328125 -5.3125 18.1328125 -6.3125 17.1328125 C-6.41231214 14.4554987 -6.45129875 11.80977075 -6.4375 9.1328125 C-6.44136719 8.38257813 -6.44523438 7.63234375 -6.44921875 6.859375 C-6.43761642 0.43168558 -6.33567073 0.00719029 0 0 Z " fill="#E9EDF0" transform="translate(17.3125,14.8671875)"/>
<path d="M0 0 C7.92 0 15.84 0 24 0 C24 1.32 24 2.64 24 4 C21.76953125 6.2109375 21.76953125 6.2109375 18.8125 8.375 C17.84957031 9.10460938 16.88664062 9.83421875 15.89453125 10.5859375 C13 12 13 12 10.4375 11.453125 C7.85420381 9.91308304 5.52933914 8.26245244 3.1875 6.375 C2.39730469 5.74335938 1.60710938 5.11171875 0.79296875 4.4609375 C0.20128906 3.97882812 -0.39039063 3.49671875 -1 3 C-0.67 2.01 -0.34 1.02 0 0 Z " fill="#E9ECEF" transform="translate(12,15)"/>
<path d="M0 0 C1.29315061 0.95632999 2.58446853 1.91513851 3.875 2.875 C4.59429688 3.40867187 5.31359375 3.94234375 6.0546875 4.4921875 C8 6 8 6 10 8 C15.66132331 7.83824791 20.15570273 3.84429727 24 0 C24 1.32 24 2.64 24 4 C21.76953125 6.2109375 21.76953125 6.2109375 18.8125 8.375 C17.84957031 9.10460938 16.88664062 9.83421875 15.89453125 10.5859375 C13 12 13 12 10.4375 11.453125 C7.85420381 9.91308304 5.52933914 8.26245244 3.1875 6.375 C2.39730469 5.74335938 1.60710938 5.11171875 0.79296875 4.4609375 C0.20128906 3.97882812 -0.39039063 3.49671875 -1 3 C-0.67 2.01 -0.34 1.02 0 0 Z " fill="#9BAEB9" transform="translate(12,15)"/>
</svg>
