<?xml version="1.0" encoding="UTF-8"?>
<svg version="1.1" xmlns="http://www.w3.org/2000/svg" width="48" height="48">
<path d="M0 0 C2.92421555 0.60151398 5.01898029 1.48195842 7.49609375 3.13671875 C8.13740234 3.54857422 8.77871094 3.96042969 9.43945312 4.38476562 C10.77414236 5.25498822 12.10231516 6.13528602 13.42382812 7.02539062 C17.20110211 9.54929389 17.20110211 9.54929389 21.55859375 9.52734375 C22.36425781 9.02332031 23.16992188 8.51929688 24 8 C25.06476562 7.35804687 26.12953125 6.71609375 27.2265625 6.0546875 C28.94393526 4.96145253 30.65316655 3.85666637 32.359375 2.74609375 C36.68472413 0 36.68472413 0 40 0 C40.02887236 3.81248426 40.04675492 7.6249407 40.0625 11.4375 C40.07087891 12.52611328 40.07925781 13.61472656 40.08789062 14.73632812 C40.09111328 15.77080078 40.09433594 16.80527344 40.09765625 17.87109375 C40.10289307 18.82943115 40.10812988 19.78776855 40.11352539 20.77514648 C40 23 40 23 39 24 C36.20006403 24.10103255 33.42531356 24.13970088 30.625 24.1328125 C29.78533691 24.13376923 28.94567383 24.13472595 28.08056641 24.13571167 C26.30175705 24.13639348 24.52294523 24.13453917 22.74414062 24.13037109 C20.01166224 24.12502283 17.27934824 24.13031605 14.546875 24.13671875 C12.8229163 24.13605797 11.09895771 24.13477681 9.375 24.1328125 C8.55209473 24.13483673 7.72918945 24.13686096 6.88134766 24.13894653 C1.11495054 24.11495054 1.11495054 24.11495054 0 23 C-0.08713831 21.29227642 -0.10700007 19.58101351 -0.09765625 17.87109375 C-0.09443359 16.83662109 -0.09121094 15.80214844 -0.08789062 14.73632812 C-0.07951172 13.64771484 -0.07113281 12.55910156 -0.0625 11.4375 C-0.05798828 10.34501953 -0.05347656 9.25253906 -0.04882812 8.12695312 C-0.03699826 5.41791505 -0.02051543 2.70898401 0 0 Z " fill="#000000" transform="translate(4,16)"/>
<path d="M0 0 C12.54 0 25.08 0 38 0 C38.495 1.98 38.495 1.98 39 4 C36.30659531 5.85603495 33.5931546 7.68044585 30.875 9.5 C30.11445312 10.02464844 29.35390625 10.54929687 28.5703125 11.08984375 C25.38648647 13.20324551 22.74465464 14.82934998 19 15.6875 C14.40432692 14.63432492 10.97138692 12.15335504 7.125 9.5 C6.34125 8.97535156 5.5575 8.45070313 4.75 7.91015625 C2.824714 6.61880589 0.90888516 5.31541969 -1 4 C-0.67 2.68 -0.34 1.36 0 0 Z " fill="#000000" transform="translate(5,8)"/>
</svg>
