<?xml version="1.0" encoding="UTF-8"?>
<svg version="1.1" xmlns="http://www.w3.org/2000/svg" width="1080" height="1080">
<path d="M0 0 C356.4 0 712.8 0 1080 0 C1080 356.4 1080 712.8 1080 1080 C723.6 1080 367.2 1080 0 1080 C0 723.6 0 367.2 0 0 Z " fill="#88584E" transform="translate(0,0)"/>
<path d="M0 0 C231 0 462 0 700 0 C700 231 700 462 700 700 C469 700 238 700 0 700 C0 469 0 238 0 0 Z " fill="#F1ECDA" transform="translate(190,190)"/>
<path d="M0 0 C6.27 0 12.54 0 19 0 C19.35191406 1.66160156 19.70382812 3.32320313 20.06640625 5.03515625 C22.81860746 17.97985544 25.6331098 30.90679913 28.5625 43.8125 C33.15540593 64.08188036 33.15540593 64.08188036 34.9375 72.125 C35.14898682 73.06061768 35.36047363 73.99623535 35.57836914 74.96020508 C35.76778076 75.82154053 35.95719238 76.68287598 36.15234375 77.5703125 C36.31726318 78.31039551 36.48218262 79.05047852 36.65209961 79.81298828 C37 82 37 82 37 87 C32.38 87 27.76 87 23 87 C20.96464617 80.89393851 19.98610743 75.33926205 19 69 C12.4 69 5.8 69 -1 69 C-1.12375 70.485 -1.2475 71.97 -1.375 73.5 C-1.83412781 78.17112642 -2.74505167 82.48218602 -4 87 C-8.62 87 -13.24 87 -18 87 C-17.42830078 78.26116905 -15.82577629 70.07541427 -13.8125 61.5625 C-13.175101 58.81455778 -12.54296226 56.06540924 -11.91015625 53.31640625 C-11.66995255 52.27777939 -11.66995255 52.27777939 -11.42489624 51.21817017 C-9.79593728 44.16044585 -8.26178553 37.08378127 -6.75 30 C-6.50266113 28.84330811 -6.25532227 27.68661621 -6.00048828 26.49487305 C-4.4428681 19.17405818 -2.94383446 11.84460998 -1.54296875 4.4921875 C-1 2 -1 2 0 0 Z " fill="#540E0E" transform="translate(742,422)"/>
<path d="M0 0 C4.95 0 9.9 0 15 0 C15 11.88 15 23.76 15 36 C19.62 36 24.24 36 29 36 C29 24.12 29 12.24 29 0 C33.95 0 38.9 0 44 0 C44.02312269 11.19573244 44.04091471 22.39145924 44.05181217 33.58721066 C44.05704116 38.78528115 44.0641391 43.98333536 44.07543945 49.18139648 C44.08626776 54.19342268 44.09227671 59.20543318 44.09487724 64.21747017 C44.09673159 66.13412282 44.1003524 68.05077457 44.10573006 69.96742058 C44.11293975 72.64228072 44.11399097 75.31707514 44.11352539 77.99194336 C44.11712067 78.7925116 44.12071594 79.59307983 44.12442017 80.41790771 C44.11405216 85.88594784 44.11405216 85.88594784 43 87 C40.83519203 87.0989294 38.66706215 87.129711 36.5 87.125 C35.3140625 87.12757813 34.128125 87.13015625 32.90625 87.1328125 C30 87 30 87 29 86 C28.91144839 83.3337397 28.88475327 80.69352886 28.90234375 78.02734375 C28.9037587 77.22970108 28.90517365 76.43205841 28.90663147 75.61024475 C28.91224684 73.05262565 28.92480188 70.49509282 28.9375 67.9375 C28.94251302 66.20768355 28.94707627 64.47786574 28.95117188 62.74804688 C28.96222125 58.49866447 28.97949614 54.24934688 29 50 C24.38 50 19.76 50 15 50 C15.00523682 51.08531006 15.01047363 52.17062012 15.01586914 53.28881836 C15.03391836 57.30117982 15.04543171 61.31353767 15.05493164 65.32592773 C15.05997204 67.06519168 15.0668043 68.80445136 15.07543945 70.54370117 C15.08751792 73.03825937 15.09323108 75.53276173 15.09765625 78.02734375 C15.10281754 78.80963852 15.10797882 79.59193329 15.11329651 80.39793396 C15.11349226 82.26567114 15.06199694 84.13329204 15 86 C14 87 14 87 11.09375 87.1328125 C9.9078125 87.13023437 8.721875 87.12765625 7.5 87.125 C6.3140625 87.12757813 5.128125 87.13015625 3.90625 87.1328125 C1 87 1 87 0 86 C-0.09512944 83.32212027 -0.12555279 80.67011131 -0.11352539 77.99194336 C-0.11367142 77.15299026 -0.11381744 76.31403717 -0.1139679 75.44966125 C-0.1132685 72.66302956 -0.10547485 69.87646384 -0.09765625 67.08984375 C-0.09579217 65.16313209 -0.09436822 63.23641995 -0.09336853 61.30970764 C-0.08954259 56.22812603 -0.07971166 51.1465728 -0.06866455 46.06500244 C-0.05845206 40.88383366 -0.05387126 35.70266031 -0.04882812 30.52148438 C-0.03808946 20.34764375 -0.02101213 10.17382423 0 0 Z " fill="#530D0D" transform="translate(302,422)"/>
<path d="M0 0 C1.75666992 -0.01063477 1.75666992 -0.01063477 3.54882812 -0.02148438 C13.32588163 0.05102087 13.32588163 0.05102087 17.9375 3.4375 C23.4293567 10.85892798 22.53377608 19.59110894 21.9375 28.4375 C20.9375 29.4375 20.9375 29.4375 18.03125 29.5703125 C16.8453125 29.56773437 15.659375 29.56515625 14.4375 29.5625 C13.2515625 29.56507813 12.065625 29.56765625 10.84375 29.5703125 C7.9375 29.4375 7.9375 29.4375 6.9375 28.4375 C6.61303663 25.33707227 6.42415559 22.2354275 6.21875 19.125 C6.23142201 16.52153248 6.23142201 16.52153248 4.9375 15.4375 C3.27320949 15.33926063 1.60468069 15.30776369 -0.0625 15.3125 C-0.97 15.30992187 -1.8775 15.30734375 -2.8125 15.3046875 C-5.03216611 15.18576221 -5.03216611 15.18576221 -6.0625 16.4375 C-6.21832303 17.77765221 -6.31294142 19.12508903 -6.37890625 20.47265625 C-6.42080078 21.28154297 -6.46269531 22.09042969 -6.50585938 22.92382812 C-6.54517578 23.77396484 -6.58449219 24.62410156 -6.625 25.5 C-6.66818359 26.35400391 -6.71136719 27.20800781 -6.75585938 28.08789062 C-6.86226702 30.20422037 -6.96291731 32.32083813 -7.0625 34.4375 C-5.77214844 34.705625 -4.48179687 34.97375 -3.15234375 35.25 C1.79952105 36.35192329 6.56992819 37.82113946 11.375 39.4375 C12.57672852 39.82808594 12.57672852 39.82808594 13.80273438 40.2265625 C14.95032227 40.60941406 14.95032227 40.60941406 16.12109375 41 C16.80743896 41.22816406 17.49378418 41.45632813 18.20092773 41.69140625 C19.9375 42.4375 19.9375 42.4375 21.9375 44.4375 C22.33871127 48.76380576 22.26644274 53.10561998 22.25317383 57.44848633 C22.25003697 59.59964755 22.27338287 61.7494019 22.29882812 63.90039062 C22.30110367 65.28124828 22.30180343 66.6621096 22.30078125 68.04296875 C22.30376221 69.29231201 22.30674316 70.54165527 22.30981445 71.82885742 C21.7656951 77.10271191 20.38090624 81.03110418 16.5 84.8125 C11.1097667 88.23069673 5.26222086 87.68937691 -0.9375 87.75 C-1.91847656 87.77900391 -2.89945313 87.80800781 -3.91015625 87.83789062 C-9.98450295 87.89117437 -13.43484611 87.47454863 -18.0625 83.4375 C-22.30946915 78.60474201 -22.21811805 73.9973455 -22.1875 67.8125 C-22.19136719 67.02359375 -22.19523438 66.2346875 -22.19921875 65.421875 C-22.18915394 59.56415394 -22.18915394 59.56415394 -21.0625 58.4375 C-18.89769203 58.3385706 -16.72956215 58.307789 -14.5625 58.3125 C-13.3765625 58.30992187 -12.190625 58.30734375 -10.96875 58.3046875 C-8.0625 58.4375 -8.0625 58.4375 -7.0625 59.4375 C-6.73803663 62.53792773 -6.54915559 65.6395725 -6.34375 68.75 C-6.35642201 71.35346752 -6.35642201 71.35346752 -5.0625 72.4375 C-1.3933423 72.58060287 2.26465441 72.47971662 5.9375 72.4375 C5.9375 66.4975 5.9375 60.5575 5.9375 54.4375 C4.08382812 53.81101562 2.23015625 53.18453125 0.3203125 52.5390625 C-2.09906321 51.71384908 -4.51832836 50.88831147 -6.9375 50.0625 C-8.77248047 49.44375 -8.77248047 49.44375 -10.64453125 48.8125 C-11.81113281 48.41289062 -12.97773437 48.01328125 -14.1796875 47.6015625 C-15.25847168 47.23498535 -16.33725586 46.8684082 -17.44873047 46.49072266 C-20.0625 45.4375 -20.0625 45.4375 -22.0625 43.4375 C-22.46447735 38.96858379 -22.39143587 34.48429236 -22.37817383 29.99926758 C-22.37503626 27.77569548 -22.39838531 25.55348341 -22.42382812 23.33007812 C-22.42610358 21.9036475 -22.42680347 20.47721332 -22.42578125 19.05078125 C-22.42876221 17.75954346 -22.43174316 16.46830566 -22.43481445 15.13793945 C-21.90029368 9.82532874 -20.513467 5.91237091 -16.69140625 2.02734375 C-11.17897206 -0.38768393 -5.94849574 -0.10182406 0 0 Z " fill="#540E0E" transform="translate(690.0625,421.5625)"/>
<path d="M0 0 C1.11503906 -0.00257813 2.23007812 -0.00515625 3.37890625 -0.0078125 C13.97215914 0.11844796 13.97215914 0.11844796 18.5 3.5 C23.07571271 8.50065452 23.03122722 12.89164081 22.8125 19.3125 C22.79799805 20.61864258 22.79799805 20.61864258 22.78320312 21.95117188 C22.66883061 28.33116939 22.66883061 28.33116939 21.5 29.5 C19.33519203 29.5989294 17.16706215 29.629711 15 29.625 C13.8140625 29.62757813 12.628125 29.63015625 11.40625 29.6328125 C8.5 29.5 8.5 29.5 7.5 28.5 C7.42741054 26.31360547 7.41626217 24.12499611 7.4375 21.9375 C7.44652344 20.73996094 7.45554687 19.54242188 7.46484375 18.30859375 C7.47644531 17.38175781 7.48804688 16.45492188 7.5 15.5 C5.52090602 15.47313447 3.54171029 15.45366625 1.5625 15.4375 C-0.09072266 15.42009766 -0.09072266 15.42009766 -1.77734375 15.40234375 C-4.41447634 15.18737429 -4.41447634 15.18737429 -5.5 16.5 C-5.65582303 17.84015221 -5.75044142 19.18758903 -5.81640625 20.53515625 C-5.85830078 21.34404297 -5.90019531 22.15292969 -5.94335938 22.98632812 C-5.98267578 23.83646484 -6.02199219 24.68660156 -6.0625 25.5625 C-6.10568359 26.41650391 -6.14886719 27.27050781 -6.19335938 28.15039062 C-6.29976702 30.26672037 -6.40041731 32.38333813 -6.5 34.5 C-5.20964844 34.768125 -3.91929687 35.03625 -2.58984375 35.3125 C2.36202105 36.41442329 7.13242819 37.88363946 11.9375 39.5 C13.13922852 39.89058594 13.13922852 39.89058594 14.36523438 40.2890625 C15.51282227 40.67191406 15.51282227 40.67191406 16.68359375 41.0625 C17.36993896 41.29066406 18.05628418 41.51882813 18.76342773 41.75390625 C20.5 42.5 20.5 42.5 22.5 44.5 C22.9255985 48.94982907 22.87158678 53.41539878 22.87060547 57.88330078 C22.87494351 60.09618128 22.91114853 62.30700864 22.94921875 64.51953125 C23.06858916 78.51204334 23.06858916 78.51204334 18.5 84.5 C12.93189833 88.05739829 7.47353985 87.95740716 1 87.875 C0.08863281 87.88660156 -0.82273437 87.89820313 -1.76171875 87.91015625 C-7.4393012 87.88557797 -11.48442822 87.2032408 -16.5 84.5 C-20.70277451 80.15230223 -21.74101449 75.37146327 -21.72460938 69.421875 C-21.71236328 68.70515625 -21.70011719 67.9884375 -21.6875 67.25 C-21.68685547 66.5178125 -21.68621094 65.785625 -21.68554688 65.03125 C-21.640625 59.640625 -21.640625 59.640625 -20.5 58.5 C-18.14686445 58.42728259 -15.79166332 58.41629132 -13.4375 58.4375 C-12.14714844 58.44652344 -10.85679687 58.45554687 -9.52734375 58.46484375 C-8.52832031 58.47644531 -7.52929688 58.48804688 -6.5 58.5 C-6.45101563 59.34304688 -6.40203125 60.18609375 -6.3515625 61.0546875 C-6.27679688 62.15039062 -6.20203125 63.24609375 -6.125 64.375 C-6.05539062 65.46554687 -5.98578125 66.55609375 -5.9140625 67.6796875 C-5.76746509 70.63046474 -5.76746509 70.63046474 -3.5 72.5 C-1.32462316 72.78042984 -1.32462316 72.78042984 1.0625 72.6875 C1.86816406 72.68105469 2.67382812 72.67460937 3.50390625 72.66796875 C5.49879885 72.71630912 5.49879885 72.71630912 6.5 71.5 C6.65582303 70.15984779 6.75044142 68.81241097 6.81640625 67.46484375 C6.85830078 66.65595703 6.90019531 65.84707031 6.94335938 65.01367188 C6.98267578 64.16353516 7.02199219 63.31339844 7.0625 62.4375 C7.10568359 61.58349609 7.14886719 60.72949219 7.19335938 59.84960938 C7.29976702 57.73327963 7.40041731 55.61666187 7.5 53.5 C6.55769531 53.40589844 5.61539062 53.31179688 4.64453125 53.21484375 C-0.38639264 52.49396848 -5.04300049 50.76564492 -9.8125 49.0625 C-10.71806641 48.74990234 -11.62363281 48.43730469 -12.55664062 48.11523438 C-19.24329457 45.75670543 -19.24329457 45.75670543 -21.5 43.5 C-21.90154774 39.01265941 -21.82895367 34.51017848 -21.81567383 30.00683594 C-21.81253134 27.77228237 -21.83590369 25.53907557 -21.86132812 23.3046875 C-21.86360304 21.87500166 -21.86430372 20.44531228 -21.86328125 19.015625 C-21.86626221 17.71915039 -21.86924316 16.42267578 -21.87231445 15.08691406 C-21.32950936 9.85747644 -19.45250622 6.62568917 -16.09375 2.65625 C-11.43763722 -0.93068133 -5.5916501 -0.14221538 0 0 Z " fill="#550F0F" transform="translate(497.5,421.5)"/>
<path d="M0 0 C4.95 0 9.9 0 15 0 C15.33 10.56 15.66 21.12 16 32 C19.1246875 25.750625 19.1246875 25.750625 22.3125 19.375 C25.54166667 12.91666667 28.77083333 6.45833333 32 0 C36.95 0 41.9 0 47 0 C46.12108614 5.27348313 44.8157537 8.79975084 42.3671875 13.375 C41.63628916 14.78623593 40.90583368 16.19770129 40.17578125 17.609375 C39.02515496 19.81125754 37.86957113 22.01023666 36.70556641 24.20507812 C35.57859287 26.33798872 34.4718901 28.48049047 33.3671875 30.625 C33.0151828 31.2751709 32.6631781 31.9253418 32.30050659 32.59521484 C30.10976698 36.88334678 29.59242796 39.39537593 31 44 C32.07794742 46.79260301 33.30021597 49.50125677 34.5625 52.21484375 C35.28391765 53.80400764 36.0052698 55.39320127 36.7265625 56.98242188 C37.8629002 59.46306574 39.00221434 61.9423083 40.14355469 64.4206543 C41.24909184 66.82784916 42.34365992 69.23981625 43.4375 71.65234375 C43.77918213 72.38484848 44.12086426 73.11735321 44.47290039 73.87205505 C46.47638667 78.30114078 47.54868213 82.15349765 48 87 C45.73078464 87.13489391 43.4592933 87.23193995 41.1875 87.3125 C39.92292969 87.37050781 38.65835938 87.42851562 37.35546875 87.48828125 C36.24816406 87.32714844 35.14085937 87.16601562 34 87 C31.47665337 83.4795765 29.82407907 79.55785681 28.08203125 75.60546875 C27.55029297 74.40341797 27.01855469 73.20136719 26.47070312 71.96289062 C25.91789715 70.70445853 25.36516367 69.44599459 24.8125 68.1875 C24.24834848 66.90937204 23.68389827 65.63137588 23.11914062 64.35351562 C21.74315196 61.23696011 20.3702184 58.11909572 19 55 C15.92243562 58.36733173 15.60426442 60.76005359 15.5234375 65.26171875 C15.4925 66.46248047 15.4615625 67.66324219 15.4296875 68.90039062 C15.41164063 70.15013672 15.39359375 71.39988281 15.375 72.6875 C15.32424565 75.17065642 15.26976951 77.65374057 15.2109375 80.13671875 C15.19337402 81.23717529 15.17581055 82.33763184 15.15771484 83.47143555 C15 86 15 86 14 87 C11.83519203 87.0989294 9.66706215 87.129711 7.5 87.125 C6.3140625 87.12757813 5.128125 87.13015625 3.90625 87.1328125 C1 87 1 87 0 86 C-0.09512944 83.32212027 -0.12555279 80.67011131 -0.11352539 77.99194336 C-0.11367142 77.15299026 -0.11381744 76.31403717 -0.1139679 75.44966125 C-0.1132685 72.66302956 -0.10547485 69.87646384 -0.09765625 67.08984375 C-0.09579217 65.16313209 -0.09436822 63.23641995 -0.09336853 61.30970764 C-0.08954259 56.22812603 -0.07971166 51.1465728 -0.06866455 46.06500244 C-0.05845206 40.88383366 -0.05387126 35.70266031 -0.04882812 30.52148438 C-0.03808946 20.34764375 -0.02101213 10.17382423 0 0 Z " fill="#530D0D" transform="translate(359,422)"/>
<path d="M0 0 C2.31243792 -0.02685412 4.6249627 -0.04632841 6.9375 -0.0625 C8.22527344 -0.07410156 9.51304687 -0.08570313 10.83984375 -0.09765625 C14 0 14 0 15 1 C15.11875071 3.17215238 15.16744553 5.34815284 15.18945312 7.5234375 C15.19774643 8.20472717 15.20603973 8.88601685 15.21458435 9.58795166 C15.23201919 11.07157026 15.24717654 12.55521693 15.26036072 14.03887939 C15.2813238 16.38325334 15.30835085 18.72748602 15.33703613 21.07177734 C15.4070037 26.89454179 15.46632226 32.71740651 15.52606201 38.5402832 C15.57691111 43.45735589 15.63171414 48.37435301 15.69187927 53.2913208 C15.71854781 55.60744003 15.73930556 57.92356591 15.7598877 60.23974609 C15.77648415 61.65202167 15.7933554 63.06429405 15.81054688 64.4765625 C15.82307495 65.71486816 15.83560303 66.95317383 15.84851074 68.22900391 C15.68581387 70.90829815 15.68581387 70.90829815 17 72 C20.63 72 24.26 72 28 72 C28.33 48.24 28.66 24.48 29 0 C33.62 0 38.24 0 43 0 C43.06783504 9.93592064 43.1228503 19.87168693 43.15543652 29.80778694 C43.17107796 34.42175032 43.19228842 39.03554675 43.22631836 43.64941406 C43.25896611 48.10386669 43.27686446 52.55815895 43.28463173 57.01272202 C43.29016552 58.71035155 43.30097173 60.40797252 43.31719017 62.1055336 C43.33903674 64.4873766 43.34196395 66.86856086 43.34057617 69.25048828 C43.351362 69.94892349 43.36214783 70.6473587 43.3732605 71.36695862 C43.3443354 75.96901553 42.38264474 79.07554393 40 83 C34.61273196 87.70103744 27.71944527 87.6103503 20.9375 87.5 C19.98294922 87.51546875 19.02839844 87.5309375 18.04492188 87.546875 C11.84660714 87.5126538 7.9777331 86.78022904 3 83 C-0.16768065 78.89494831 -0.41657927 75.2850149 -0.34057617 70.2722168 C-0.34101425 69.51070816 -0.34145233 68.74919952 -0.34190369 67.96461487 C-0.3398214 65.45921779 -0.31651744 62.95449825 -0.29296875 60.44921875 C-0.28737079 58.70758937 -0.28310163 56.96595526 -0.28010559 55.22431946 C-0.26867256 50.64902617 -0.23921871 46.07402035 -0.20599365 41.49884033 C-0.17525949 36.8267404 -0.16159311 32.15459384 -0.14648438 27.48242188 C-0.11434748 18.32148855 -0.06316981 9.16076822 0 0 Z " fill="#540E0D" transform="translate(420,422)"/>
<path d="M0 0 C14.52 0 29.04 0 44 0 C44 4.29 44 8.58 44 13 C43 14 43 14 40.05859375 14.09765625 C38.26615234 14.08025391 38.26615234 14.08025391 36.4375 14.0625 C34.64119141 14.04896484 34.64119141 14.04896484 32.80859375 14.03515625 C31.88175781 14.02355469 30.95492187 14.01195312 30 14 C30.00222061 14.89980087 30.00444122 15.79960175 30.00672913 16.72666931 C30.02672944 25.18813967 30.0419728 33.64960214 30.05181217 42.11109066 C30.05704065 46.46168459 30.06413765 50.81225907 30.07543945 55.1628418 C30.08626959 59.35790258 30.0922771 63.55294459 30.09487724 67.74801826 C30.09673126 69.35206968 30.10035144 70.95612003 30.10573006 72.5601635 C30.11294219 74.79916515 30.11399087 77.0380883 30.11352539 79.27709961 C30.115746 80.55395126 30.11796661 81.83080292 30.12025452 83.14634705 C30 86 30 86 29 87 C24.38 87 19.76 87 15 87 C15 62.91 15 38.82 15 14 C10.38 14 5.76 14 1 14 C0.67 13.67 0.34 13.34 0 13 C0 8.71 0 4.42 0 0 Z " fill="#550F0F" transform="translate(613,422)"/>
<path d="M0 0 C14.52 0 29.04 0 44 0 C44 4.29 44 8.58 44 13 C43 14 43 14 40.05859375 14.09765625 C38.26615234 14.08025391 38.26615234 14.08025391 36.4375 14.0625 C34.64119141 14.04896484 34.64119141 14.04896484 32.80859375 14.03515625 C31.88175781 14.02355469 30.95492187 14.01195312 30 14 C30.00222061 14.89980087 30.00444122 15.79960175 30.00672913 16.72666931 C30.02672944 25.18813967 30.0419728 33.64960214 30.05181217 42.11109066 C30.05704065 46.46168459 30.06413765 50.81225907 30.07543945 55.1628418 C30.08626959 59.35790258 30.0922771 63.55294459 30.09487724 67.74801826 C30.09673126 69.35206968 30.10035144 70.95612003 30.10573006 72.5601635 C30.11294219 74.79916515 30.11399087 77.0380883 30.11352539 79.27709961 C30.115746 80.55395126 30.11796661 81.83080292 30.12025452 83.14634705 C30 86 30 86 29 87 C24.38 87 19.76 87 15 87 C15 62.91 15 38.82 15 14 C10.38 14 5.76 14 1 14 C0.67 13.67 0.34 13.34 0 13 C0 8.71 0 4.42 0 0 Z " fill="#550F0F" transform="translate(531,422)"/>
<path d="M0 0 C5.38763803 2.39450579 9.09621527 6.92074136 12 12 C14.25275638 20.05326681 14.19866942 30.22058109 11.109375 38.03125 C8.45073209 42.74940502 4.90545542 46.06754309 0.0625 48.4375 C-5.88504135 49.52990555 -9.96644086 49.92925073 -15.25 46.875 C-20.7224493 43.06574607 -23.22129021 38.32680319 -25 32 C-25.93989575 22.54168067 -25.96476926 13.90138265 -20 6 C-13.96448687 -0.345405 -8.4674482 -0.76673744 0 0 Z " fill="#561110" transform="translate(453,610)"/>
<path d="M0 0 C0.33 7.92 0.66 15.84 1 24 C3.31 22.35 5.62 20.7 8 19 C13.77472374 18.05504521 18.31308536 19.66821503 23 23 C27.84159807 29.08303347 28.79726687 34.42035022 28 42 C26.60819995 46.66849503 24.75690968 49.39756169 20.9375 52.4375 C16.40747338 54.84708863 13.11758871 55.43369396 8 55 C5.39152371 53.50254139 3.12971098 52.12971098 1 50 C0.67 51.32 0.34 52.64 0 54 C-4.29 54 -8.58 54 -13 54 C-13 53.01 -13 52.02 -13 51 C-11.68 51 -10.36 51 -9 51 C-9 36.15 -9 21.3 -9 6 C-11.475 5.01 -11.475 5.01 -14 4 C-14 3.01 -14 2.02 -14 1 C-12.22932584 0.83165067 -10.45845388 0.66538091 -8.6875 0.5 C-7.70136719 0.4071875 -6.71523438 0.314375 -5.69921875 0.21875 C-3 0 -3 0 0 0 Z " fill="#581313" transform="translate(669,604)"/>
<path d="M0 0 C0.33 8.25 0.66 16.5 1 25 C3.97 22.525 3.97 22.525 7 20 C10.5154392 18.2422804 14.27876003 19.06969001 18 20 C21.01299308 21.77417981 23.4111938 23.82238761 25 27 C25.15222973 28.66565749 25.24917215 30.33656496 25.31640625 32.0078125 C25.35830078 32.99394531 25.40019531 33.98007812 25.44335938 34.99609375 C25.48267578 36.02863281 25.52199219 37.06117188 25.5625 38.125 C25.60568359 39.16527344 25.64886719 40.20554687 25.69335938 41.27734375 C25.7996288 43.85142528 25.90166583 46.42560508 26 49 C27.32 49.66 28.64 50.32 30 51 C30 51.99 30 52.98 30 54 C25.38 54 20.76 54 16 54 C16.03480469 52.30230469 16.06960938 50.60460937 16.10546875 48.85546875 C16.13360351 46.63282237 16.160904 44.41016532 16.1875 42.1875 C16.21263672 41.06794922 16.23777344 39.94839844 16.26367188 38.79492188 C16.27333984 37.72177734 16.28300781 36.64863281 16.29296875 35.54296875 C16.3086792 34.55321045 16.32438965 33.56345215 16.34057617 32.54370117 C16.20008103 29.97727709 16.20008103 29.97727709 14.69262695 28.1809082 C11.80424664 26.16574946 9.39911125 26.58976243 6 27 C3.13111794 28.33843329 3.13111794 28.33843329 1 31 C0.38632137 34.1048679 0.52757432 37.10069421 0.6875 40.25 C0.71005859 41.09046875 0.73261719 41.9309375 0.75585938 42.796875 C0.81462286 44.86534964 0.90430115 46.93290488 1 49 C2.32 49.66 3.64 50.32 5 51 C5 51.99 5 52.98 5 54 C-0.94 54 -6.88 54 -13 54 C-13 53.01 -13 52.02 -13 51 C-11.68 50.34 -10.36 49.68 -9 49 C-8.90121399 42.93111949 -8.82857051 36.86270561 -8.78027344 30.79321289 C-8.76014269 28.72802582 -8.73283555 26.66289584 -8.69824219 24.59790039 C-8.64978838 21.63152999 -8.62704615 18.66591228 -8.609375 15.69921875 C-8.58872986 14.7741301 -8.56808472 13.84904144 -8.54681396 12.8959198 C-8.54598262 10.52765759 -8.56848204 8.32874585 -9 6 C-10.86959901 3.97605759 -10.86959901 3.97605759 -13 3 C-13 2.34 -13 1.68 -13 1 C-11.20843648 0.83222817 -9.4167455 0.66581706 -7.625 0.5 C-6.62726563 0.4071875 -5.62953125 0.314375 -4.6015625 0.21875 C-2 0 -2 0 0 0 Z " fill="#561010" transform="translate(513,604)"/>
<path d="M0 0 C0.33 8.25 0.66 16.5 1 25 C3.97 22.525 3.97 22.525 7 20 C11.4908219 18.97352642 15.68988479 19.47037896 19.9375 21.1875 C23.05288918 23.92526625 24.7643848 26.25506664 25.33325195 30.46801758 C25.51908861 33.41776138 25.62133333 36.3576856 25.6875 39.3125 C25.72166016 40.33923828 25.75582031 41.36597656 25.79101562 42.42382812 C25.87323409 44.94910963 25.94246936 47.4740554 26 50 C27.32 50.33 28.64 50.66 30 51 C30 51.99 30 52.98 30 54 C25.38 54 20.76 54 16 54 C16.01740234 51.45345703 16.01740234 51.45345703 16.03515625 48.85546875 C16.04453454 46.6328136 16.0536347 44.41015726 16.0625 42.1875 C16.07087891 41.06794922 16.07925781 39.94839844 16.08789062 38.79492188 C16.09111328 37.72177734 16.09433594 36.64863281 16.09765625 35.54296875 C16.10289307 34.55321045 16.10812988 33.56345215 16.11352539 32.54370117 C16.11069959 29.87607266 16.11069959 29.87607266 15 27 C13.41820385 26.89132698 11.83422847 26.81410173 10.25 26.75 C9.36828125 26.70359375 8.4865625 26.6571875 7.578125 26.609375 C4.92040042 26.83854786 4.92040042 26.83854786 2.6875 28.4375 C0.15559252 32.28224839 0.56747801 35.75715106 0.75 40.25 C0.77707031 41.51070312 0.77707031 41.51070312 0.8046875 42.796875 C0.85169202 44.86507395 0.92343276 46.93268441 1 49 C2.32 49.66 3.64 50.32 5 51 C5 51.99 5 52.98 5 54 C-0.94 54 -6.88 54 -13 54 C-13 53.01 -13 52.02 -13 51 C-11.515 50.505 -11.515 50.505 -10 50 C-8.85684253 47.71368506 -8.87887268 46.45652594 -8.88647461 43.91748047 C-8.88655014 43.07675995 -8.88662567 42.23603943 -8.88670349 41.36984253 C-8.89186478 40.46146637 -8.89702606 39.55309021 -8.90234375 38.6171875 C-8.9037587 37.68778351 -8.90517365 36.75837952 -8.90663147 35.80081177 C-8.91223947 32.82550876 -8.92479332 29.85028036 -8.9375 26.875 C-8.94251397 24.86067817 -8.94707705 22.84635516 -8.95117188 20.83203125 C-8.9622115 15.88799198 -8.97948151 10.94400865 -9 6 C-11.475 5.01 -11.475 5.01 -14 4 C-14 3.01 -14 2.02 -14 1 C-12.04175306 0.83232136 -10.08339945 0.66588795 -8.125 0.5 C-6.48917969 0.36078125 -6.48917969 0.36078125 -4.8203125 0.21875 C-3.21670436 0.09437042 -1.60842449 0 0 0 Z " fill="#561010" transform="translate(302,604)"/>
<path d="M0 0 C3.70702414 2.06737885 5.09104431 3.15325307 7.25 6.8125 C7.88103059 10.74445008 7.94655619 14.6482949 8 18.625 C8.02964844 19.69943359 8.05929687 20.77386719 8.08984375 21.88085938 C8.16034921 24.52481427 8.21314143 27.1678973 8.25 29.8125 C9.57 30.1425 10.89 30.4725 12.25 30.8125 C12.25 31.8025 12.25 32.7925 12.25 33.8125 C7.63 33.8125 3.01 33.8125 -1.75 33.8125 C-2.08 32.8225 -2.41 31.8325 -2.75 30.8125 C-3.78125 31.4725 -4.8125 32.1325 -5.875 32.8125 C-9.3564587 34.77388519 -11.703148 35.50132587 -15.75 34.8125 C-21.32894737 31.65460526 -21.32894737 31.65460526 -22.75 28.8125 C-23.44446809 21.75207447 -23.44446809 21.75207447 -20.625 17.9375 C-17.64599241 15.73562483 -15.32031555 14.72406993 -11.75 13.8125 C-11.110625 13.60625 -10.47125 13.4 -9.8125 13.1875 C-6.78771634 12.63753933 -3.81515059 12.7535548 -0.75 12.8125 C-1.74 10.5025 -2.73 8.1925 -3.75 5.8125 C-5.20823212 5.7854957 -6.66660675 5.76610213 -8.125 5.75 C-9.34316406 5.73259766 -9.34316406 5.73259766 -10.5859375 5.71484375 C-12.79937142 5.66783666 -12.79937142 5.66783666 -14.75 6.8125 C-15.08 7.8025 -15.41 8.7925 -15.75 9.8125 C-16.74 9.8125 -17.73 9.8125 -18.75 9.8125 C-19.08 7.1725 -19.41 4.5325 -19.75 1.8125 C-12.64510551 -1.23245478 -7.6131155 -2.41081991 0 0 Z " fill="#5B1817" transform="translate(639.75,624.1875)"/>
<path d="M0 0 C0.84240234 -0.01224609 1.68480469 -0.02449219 2.55273438 -0.03710938 C7.3396811 -0.04833755 11.19028001 0.331388 15.6875 2.1875 C15.3575 5.1575 15.0275 8.1275 14.6875 11.1875 C10.6875 11.1875 10.6875 11.1875 8.625 9.25 C7.985625 8.569375 7.34625 7.88875 6.6875 7.1875 C1.07296981 5.31598994 -4.38350571 5.27561179 -9.75 7.8125 C-13.48366604 11.27297096 -15.11689369 14.51717552 -15.7109375 19.58984375 C-15.76208872 28.84689768 -15.76208872 28.84689768 -12.3125 37.1875 C-7.43428053 41.8218085 -3.56867886 42.40311987 2.90234375 42.35546875 C7.26279904 42.09249599 11.44581273 41.19828505 15.6875 40.1875 C15.4296875 42.05078125 15.4296875 42.05078125 14.6875 44.1875 C12.9453125 45.41796875 12.9453125 45.41796875 10.8125 46.375 C10.11382813 46.69855469 9.41515625 47.02210938 8.6953125 47.35546875 C2.57255949 49.89271854 -3.72734335 50.36064012 -10.08203125 48.28125 C-17.07531483 45.0100289 -20.60749184 41.53872294 -24.125 34.625 C-26.59793037 27.14903132 -26.52825027 18.95284605 -23.3125 11.75 C-17.84389718 2.1565082 -10.34782947 0.00780968 0 0 Z " fill="#581312" transform="translate(594.3125,609.8125)"/>
<path d="M0 0 C3.84189753 2.47921076 5.42550867 5.27765977 7.25 9.4375 C7.625 12.25 7.625 12.25 7.25 14.4375 C5.25 16.4375 5.25 16.4375 3.00341797 16.66455078 C2.09221191 16.65407715 1.18100586 16.64360352 0.2421875 16.6328125 C-0.74394531 16.62636719 -1.73007812 16.61992188 -2.74609375 16.61328125 C-4.29490234 16.58814453 -4.29490234 16.58814453 -5.875 16.5625 C-6.91527344 16.55347656 -7.95554687 16.54445313 -9.02734375 16.53515625 C-11.60179092 16.51153747 -14.17578212 16.47860149 -16.75 16.4375 C-16.32576756 17.89974799 -15.88509755 19.35723412 -15.4375 20.8125 C-15.19386719 21.62460937 -14.95023438 22.43671875 -14.69921875 23.2734375 C-13.83631815 25.76934629 -13.83631815 25.76934629 -10.75 27.4375 C-5.40100508 27.98068537 -0.00157567 27.54309488 5.25 26.4375 C5.1875 28.75 5.1875 28.75 4.25 31.4375 C-1.09414176 34.73494917 -6.55909621 35.45478466 -12.75 34.4375 C-17.70435069 32.52544356 -21.74603653 29.46385771 -24.12109375 24.5859375 C-25.71674703 19.13494803 -25.79243807 13.40148291 -23.90234375 8.02734375 C-19.09249804 -0.69559677 -9.18657301 -4.52472999 0 0 Z " fill="#591615" transform="translate(801.75,624.5625)"/>
<path d="M0 0 C4.32604811 1.71239404 6.08003464 3.81098466 8 8 C8.50867985 11.76445433 8.60252375 15.51770327 8.6875 19.3125 C8.72166016 20.33923828 8.75582031 21.36597656 8.79101562 22.42382812 C8.87323409 24.94910963 8.94246936 27.4740554 9 30 C10.32 30.33 11.64 30.66 13 31 C13 31.99 13 32.98 13 34 C8.38 34 3.76 34 -1 34 C-0.96519531 32.30230469 -0.93039062 30.60460937 -0.89453125 28.85546875 C-0.86639649 26.63282237 -0.839096 24.41016532 -0.8125 22.1875 C-0.78736328 21.06794922 -0.76222656 19.94839844 -0.73632812 18.79492188 C-0.72666016 17.72177734 -0.71699219 16.64863281 -0.70703125 15.54296875 C-0.6913208 14.55321045 -0.67561035 13.56345215 -0.65942383 12.54370117 C-0.79991897 9.97727709 -0.79991897 9.97727709 -2.30737305 8.1809082 C-5.19575336 6.16574946 -7.60088875 6.58976243 -11 7 C-13.86888206 8.33843329 -13.86888206 8.33843329 -16 11 C-16.61367863 14.1048679 -16.47242568 17.10069421 -16.3125 20.25 C-16.28994141 21.09046875 -16.26738281 21.9309375 -16.24414062 22.796875 C-16.18537714 24.86534964 -16.09569885 26.93290488 -16 29 C-14.68 29.66 -13.36 30.32 -12 31 C-12 31.99 -12 32.98 -12 34 C-17.94 34 -23.88 34 -30 34 C-30 33.01 -30 32.02 -30 31 C-28.68 30.34 -27.36 29.68 -26 29 C-26 21.41 -26 13.82 -26 6 C-27.32 5.34 -28.64 4.68 -30 4 C-30 3.01 -30 2.02 -30 1 C-25.71 1 -21.42 1 -17 1 C-16.67 2.32 -16.34 3.64 -16 5 C-15.401875 4.175 -14.80375 3.35 -14.1875 2.5 C-10.28345333 -1.43760581 -5.14578894 -0.70522107 0 0 Z " fill="#55100F" transform="translate(758,624)"/>
<path d="M0 0 C4.02616796 2.05346102 6.65309711 4.08849518 9 8 C9.3818313 10.8053994 9.23814513 13.14225849 9 16 C8 17 8 17 5.86694336 17.11352539 C4.95050049 17.10828857 4.03405762 17.10305176 3.08984375 17.09765625 C2.10048828 17.09443359 1.11113281 17.09121094 0.09179688 17.08789062 C-0.94912109 17.07951172 -1.99003906 17.07113281 -3.0625 17.0625 C-4.10728516 17.05798828 -5.15207031 17.05347656 -6.22851562 17.04882812 C-8.8190666 17.03699913 -11.40950559 17.02051689 -14 17 C-13.07354075 22.46021899 -13.07354075 22.46021899 -10.21484375 26.984375 C-7.49368474 28.23217278 -5.54930736 28.3328518 -2.5625 28.25 C-1.63566406 28.23453125 -0.70882813 28.2190625 0.24609375 28.203125 C2.90617325 28.00692055 5.40031954 27.58504606 8 27 C8 28.32 8 29.64 8 31 C1.91733713 34.60454096 -2.91083664 36.14490566 -10 35 C-15.55738913 33.02051092 -19.37802927 29.24394146 -22 24 C-22.47980301 17.86481396 -22.92104205 12.05463226 -20.375 6.375 C-14.09707542 0.09707542 -8.79113974 -1.31334658 0 0 Z " fill="#581413" transform="translate(360,624)"/>
<path d="M0 0 C13.2 0 26.4 0 40 0 C40 3.3 40 6.6 40 10 C39.01 10 38.02 10 37 10 C36.32517578 9.27876953 36.32517578 9.27876953 35.63671875 8.54296875 C33.41900464 6.45228361 31.81337784 6.5073622 28.8125 6.3125 C27.91144531 6.24675781 27.01039063 6.18101562 26.08203125 6.11328125 C25.39496094 6.07589844 24.70789063 6.03851562 24 6 C24.11809221 11.09049582 24.24232913 16.18079005 24.37231445 21.27099609 C24.4156808 23.00337626 24.45735463 24.73579963 24.49731445 26.46826172 C24.55497594 28.95553627 24.61868198 31.44259293 24.68359375 33.9296875 C24.70030624 34.70682098 24.71701874 35.48395447 24.73423767 36.28463745 C24.76473429 40.27274216 24.76473429 40.27274216 26 44 C28.52733235 44.65555119 28.52733235 44.65555119 31 45 C31 45.99 31 46.98 31 48 C23.74 48 16.48 48 9 48 C9 47.01 9 46.02 9 45 C11.97 44.505 11.97 44.505 15 44 C15.33 31.46 15.66 18.92 16 6 C10.555 6.495 10.555 6.495 5 7 C4.01 8.485 4.01 8.485 3 10 C2.01 10 1.02 10 0 10 C0 6.7 0 3.4 0 0 Z " fill="#540E0E" transform="translate(244,610)"/>
<path d="M0 0 C3.62048699 0.9573057 5.02561273 3.49661231 6.96484375 6.51953125 C10.12744804 13.02291471 10.20117458 21.15561755 8.2421875 28.0703125 C6.31737763 32.20826408 3.96373036 35.17871958 -0.03515625 37.51953125 C-2.47265625 38.20703125 -2.47265625 38.20703125 -5.03515625 37.51953125 C-9.61188283 33.66783066 -12.04885053 29.43736555 -13.03515625 23.51953125 C-13.70967724 15.33943128 -13.03066002 8.95731461 -8.34765625 2.01953125 C-5.58382538 0.22677609 -3.28804878 -0.16532089 0 0 Z " fill="#EDE6D5" transform="translate(449.03515625,615.48046875)"/>
<path d="M0 0 C1.32 0 2.64 0 4 0 C4.33 14.19 4.66 28.38 5 43 C6.65 43.66 8.3 44.32 10 45 C10 45.99 10 46.98 10 48 C3.07 48 -3.86 48 -11 48 C-11 47.01 -11 46.02 -11 45 C-9.35 44.34 -7.7 43.68 -6 43 C-5.67 32.44 -5.34 21.88 -5 11 C-7.64 11.33 -10.28 11.66 -13 12 C-12.84375 10.23046875 -12.84375 10.23046875 -12 8 C-9.53125 6.11328125 -9.53125 6.11328125 -6.5 4.3125 C-3.06122722 2.40846673 -3.06122722 2.40846673 0 0 Z " fill="#5D1B19" transform="translate(409,610)"/>
<path d="M0 0 C-0.33 3.63 -0.66 7.26 -1 11 C1.97 11 4.94 11 8 11 C8 12.65 8 14.3 8 16 C5.03 16 2.06 16 -1 16 C-0.86184471 19.81281945 -0.71319438 23.62515717 -0.5625 27.4375 C-0.50352539 29.07041992 -0.50352539 29.07041992 -0.44335938 30.73632812 C-0.38051758 32.28803711 -0.38051758 32.28803711 -0.31640625 33.87109375 C-0.27974854 34.82943115 -0.24309082 35.78776855 -0.20532227 36.77514648 C-0.24165576 38.97138925 -0.24165576 38.97138925 1 40 C3.32817964 40.36760731 5.6618385 40.70241581 8 41 C7 44 7 44 4.8125 45.1875 C0.81849281 46.3413243 -2.38396993 46.84730116 -6.15917969 44.86791992 C-8 43 -8 43 -8.45410156 40.1809082 C-8.4331543 39.06546631 -8.41220703 37.95002441 -8.390625 36.80078125 C-8.37773438 35.59228516 -8.36484375 34.38378906 -8.3515625 33.13867188 C-8.30128906 31.2447168 -8.30128906 31.2447168 -8.25 29.3125 C-8.23195313 28.03826172 -8.21390625 26.76402344 -8.1953125 25.45117188 C-8.14810441 22.30003159 -8.08226384 19.1503886 -8 16 C-9.32 16 -10.64 16 -12 16 C-11.67 14.35 -11.34 12.7 -11 11 C-10.01 11 -9.02 11 -8 11 C-8 7.7 -8 4.4 -8 1 C-5.23735711 0.40267181 -2.83967231 0 0 0 Z " fill="#550F0F" transform="translate(828,613)"/>
<path d="M0 0 C-0.33 3.63 -0.66 7.26 -1 11 C1.97 11 4.94 11 8 11 C8 12.65 8 14.3 8 16 C5.03 16 2.06 16 -1 16 C-0.86184471 19.81281945 -0.71319438 23.62515717 -0.5625 27.4375 C-0.50352539 29.07041992 -0.50352539 29.07041992 -0.44335938 30.73632812 C-0.38051758 32.28803711 -0.38051758 32.28803711 -0.31640625 33.87109375 C-0.27974854 34.82943115 -0.24309082 35.78776855 -0.20532227 36.77514648 C-0.24165576 38.97138925 -0.24165576 38.97138925 1 40 C3.32817964 40.36760731 5.6618385 40.70241581 8 41 C7 44 7 44 4.8125 45.1875 C0.81849281 46.3413243 -2.38396993 46.84730116 -6.15917969 44.86791992 C-8 43 -8 43 -8.45410156 40.1809082 C-8.4331543 39.06546631 -8.41220703 37.95002441 -8.390625 36.80078125 C-8.37773437 35.59228516 -8.36484375 34.38378906 -8.3515625 33.13867188 C-8.30128906 31.2447168 -8.30128906 31.2447168 -8.25 29.3125 C-8.23195313 28.03826172 -8.21390625 26.76402344 -8.1953125 25.45117188 C-8.14810441 22.30003159 -8.08226384 19.1503886 -8 16 C-9.32 16 -10.64 16 -12 16 C-11.67 14.35 -11.34 12.7 -11 11 C-10.01 11 -9.02 11 -8 11 C-8 7.7 -8 4.4 -8 1 C-5.23735711 0.40267181 -2.83967231 0 0 0 Z " fill="#550F0F" transform="translate(487,613)"/>
<path d="M0 0 C2.69990662 1.79993774 4.5418865 3.083773 6 6 C6.41251687 10.92640344 6.6526414 15.47717008 4.6875 20.0625 C2.14362955 22.98324015 0.49292683 23.94523035 -3.375 24.375 C-7.5634385 23.94171326 -9.06240039 22.93759961 -12 20 C-14.09555583 15.80888835 -13.55842023 10.55233879 -13 6 C-9.25272912 0.97076803 -6.20948411 -0.60877295 0 0 Z " fill="#EDE7D5" transform="translate(682,629)"/>
<path d="M0 0 C4.29 0 8.58 0 13 0 C13.33 9.24 13.66 18.48 14 28 C15.32 28.66 16.64 29.32 18 30 C18 30.99 18 31.98 18 33 C12.06 33 6.12 33 0 33 C0 32.01 0 31.02 0 30 C1.32 30 2.64 30 4 30 C4 21.75 4 13.5 4 5 C2.68 4.34 1.36 3.68 0 3 C0 2.01 0 1.02 0 0 Z " fill="#55100F" transform="translate(704,625)"/>
<path d="M0 0 C1.86777147 3.29017417 2.60057607 6.37703042 3.2890625 10.0859375 C3.50820313 11.26414062 3.72734375 12.44234375 3.953125 13.65625 C4.17484375 14.8834375 4.3965625 16.110625 4.625 17.375 C4.85445312 18.59445312 5.08390625 19.81390625 5.3203125 21.0703125 C6.32665565 26.55727871 7 31.37995271 7 37 C2.38 37 -2.24 37 -7 37 C-5.72397926 29.13120544 -4.35133154 21.28260322 -2.9375 13.4375 C-2.7631543 12.46151855 -2.58880859 11.48553711 -2.40917969 10.47998047 C-2.1582959 9.09576904 -2.1582959 9.09576904 -1.90234375 7.68359375 C-1.67792603 6.43920532 -1.67792603 6.43920532 -1.44897461 5.16967773 C-1 3 -1 3 0 0 Z " fill="#E8DFCE" transform="translate(751,442)"/>
<path d="M0 0 C2.5 0.625 2.5 0.625 4.8125 2.75 C6.77964335 6.10142941 6.98811725 7.80141489 6.5 11.625 C5.1 15.325 5.1 15.325 2.5 16.625 C-0.4375 17 -0.4375 17 -3.5 16.625 C-5.82988436 13.98446439 -6.43127096 12.09628484 -6.9375 8.625 C-6.27887525 4.10871602 -4.58101931 1.14525483 0 0 Z " fill="#6B2E2B" transform="translate(484.5,550.375)"/>
<path d="M0 0 C2.875 0.3125 2.875 0.3125 6 1 C8.06520632 4.09780948 8.29477024 4.9540481 8.3125 8.5 C8.32925781 9.2734375 8.34601562 10.046875 8.36328125 10.84375 C7.91148654 13.52537019 7.15573103 14.38446386 5 16 C2 16.5 2 16.5 -1 16 C-3.32988436 13.35946439 -3.93127096 11.47128484 -4.4375 8 C-3.9001142 4.31506879 -2.51917486 2.67662329 0 0 Z " fill="#642522" transform="translate(575,551)"/>
<path d="M0 0 C0.66 0.66 1.32 1.32 2 2 C4.56916657 2.30599063 7.04758384 2.51087087 9.625 2.625 C10.68460938 2.68300781 10.68460938 2.68300781 11.765625 2.7421875 C13.50998524 2.83647724 15.25495691 2.91932891 17 3 C17.33 2.01 17.66 1.02 18 0 C18.33 0 18.66 0 19 0 C19 2.31 19 4.62 19 7 C16.03 6.34 13.06 5.68 10 5 C10 7.97 10 10.94 10 14 C12.64 14 15.28 14 18 14 C18.33 13.34 18.66 12.68 19 12 C19 14.31 19 16.62 19 19 C18.67 18.34 18.34 17.68 18 17 C12.39 17 6.78 17 1 17 C0.67 17.66 0.34 18.32 0 19 C0 16.69 0 14.38 0 12 C0.33 12.66 0.66 13.32 1 14 C3.31 14 5.62 14 8 14 C8 11.03 8 8.06 8 5 C5.36 5.66 2.72 6.32 0 7 C0 4.69 0 2.38 0 0 Z " fill="#E8DFCE" transform="translate(72,677)"/>
<path d="M0 0 C0.99 0.495 0.99 0.495 2 1 C4.5115887 1.09792892 6.98909766 1.13907983 9.5 1.125 C10.18964844 1.12886719 10.87929688 1.13273437 11.58984375 1.13671875 C15.42166214 1.19040866 15.42166214 1.19040866 19 0 C19 2.31 19 4.62 19 7 C18.67 6.34 18.34 5.68 18 5 C15.69 5 13.38 5 11 5 C11 7.97 11 10.94 11 14 C13.64 13.34 16.28 12.68 19 12 C19 13.98 19 15.96 19 18 C18.34 17.67 17.68 17.34 17 17 C14.4884113 16.90207108 12.01090234 16.86092017 9.5 16.875 C8.81035156 16.87113281 8.12070312 16.86726563 7.41015625 16.86328125 C3.57833786 16.80959134 3.57833786 16.80959134 0 18 C0 16.02 0 14.04 0 12 C4.455 12.99 4.455 12.99 9 14 C9 11.03 9 8.06 9 5 C6.36 5 3.72 5 1 5 C0.67 5.66 0.34 6.32 0 7 C0 4.69 0 2.38 0 0 Z " fill="#E6DDCC" transform="translate(989,384)"/>
<path d="M0 0 C0.33 0 0.66 0 1 0 C1 2.31 1 4.62 1 7 C0.67 6.34 0.34 5.68 0 5 C-1.65 5.33 -3.3 5.66 -5 6 C-4.67 8.64 -4.34 11.28 -4 14 C-2.35 14 -0.7 14 1 14 C1 15.65 1 17.3 1 19 C-5.27 16.36 -11.54 13.72 -18 11 C-18 10.01 -18 9.02 -18 8 C-16.86820312 7.59007812 -15.73640625 7.18015625 -14.5703125 6.7578125 C-13.088435 6.21383215 -11.60666996 5.66954537 -10.125 5.125 C-9.37863281 4.85558594 -8.63226563 4.58617187 -7.86328125 4.30859375 C-3.56529918 2.76393439 -3.56529918 2.76393439 0 0 Z " fill="#E9E0CF" transform="translate(90,382)"/>
<path d="M0 0 C0.33 0 0.66 0 1 0 C1 2.64 1 5.28 1 8 C-0.1446875 8.1546875 -0.1446875 8.1546875 -1.3125 8.3125 C-4.17059424 9.04364039 -5.15742885 9.76951913 -7 12 C-2.85906302 12.20970559 -2.85906302 12.20970559 1 11 C1 13.31 1 15.62 1 18 C0.67 17.34 0.34 16.68 0 16 C-5.61 16 -11.22 16 -17 16 C-17.33 16.66 -17.66 17.32 -18 18 C-18 15.69 -18 13.38 -18 11 C-17.67 11.66 -17.34 12.32 -17 13 C-13.535 12.505 -13.535 12.505 -10 12 C-12.31232422 9.43750025 -12.31232422 9.43750025 -15 7 C-15.99 7 -16.98 7 -18 7 C-18 5.02 -18 3.04 -18 1 C-17.2575 1.763125 -16.515 2.52625 -15.75 3.3125 C-13.5736677 5.4393702 -11.47832204 7.2559956 -9 9 C-7.87105124 8.06725891 -6.74699124 7.12859878 -5.625 6.1875 C-4.99851562 5.66542969 -4.37203125 5.14335938 -3.7265625 4.60546875 C-1.7778952 2.91774261 -1.7778952 2.91774261 0 0 Z " fill="#E9E1D0" transform="translate(90,636)"/>
<path d="M0 0 C6.27 2.64 12.54 5.28 19 8 C18 11 18 11 16.23413086 11.9831543 C15.48526611 12.26070557 14.73640137 12.53825684 13.96484375 12.82421875 C13.15595703 13.13037109 12.34707031 13.43652344 11.51367188 13.75195312 C10.66353516 14.06068359 9.81339844 14.36941406 8.9375 14.6875 C8.08349609 15.00783203 7.22949219 15.32816406 6.34960938 15.65820312 C4.23665649 16.44908493 2.12031487 17.2291202 0 18 C0 16.02 0 14.04 0 12 C0.33 12.66 0.66 13.32 1 14 C3.06402968 13.51294288 3.06402968 13.51294288 5 12 C5.81870185 8.43793339 5.81870185 8.43793339 6 5 C4.02 5 2.04 5 0 5 C0 3.35 0 1.7 0 0 Z " fill="#E8DFCE" transform="translate(989,679)"/>
<path d="M0 0 C0.33 0.66 0.66 1.32 1 2 C6.61 2 12.22 2 18 2 C18.33 1.34 18.66 0.68 19 0 C19 2.31 19 4.62 19 7 C18.67 6.34 18.34 5.68 18 5 C15.69 5.33 13.38 5.66 11 6 C13.31232422 8.56249975 13.31232422 8.56249975 16 11 C16.99 11 17.98 11 19 11 C19 12.98 19 14.96 19 17 C18.2575 16.236875 17.515 15.47375 16.75 14.6875 C14.56609138 12.55322567 12.4535172 10.78771232 10 9 C9.36191406 9.5775 8.72382812 10.155 8.06640625 10.75 C7.24011719 11.4925 6.41382813 12.235 5.5625 13 C4.73878906 13.7425 3.91507813 14.485 3.06640625 15.25 C1 17 1 17 0 17 C0 14.69 0 12.38 0 10 C0.99 10 1.98 10 3 10 C5.67398476 8.06102121 5.67398476 8.06102121 8 6 C5.69 5.67 3.38 5.34 1 5 C0.67 5.66 0.34 6.32 0 7 C0 4.69 0 2.38 0 0 Z " fill="#EBE3D1" transform="translate(989,426)"/>
<path d="M0 0 C0.99 0.495 0.99 0.495 2 1 C3.93602597 1.1286871 5.87400622 1.22884121 7.8125 1.3125 C11.58852256 1.6162137 13.82913695 1.91456848 17.25 3.625 C19 6 19 6 19.5625 9.5 C18.90353836 13.60020574 18.28783239 14.55669968 15 17 C11.546875 17.390625 11.546875 17.390625 7.75 17.25 C6.48671875 17.21390625 5.2234375 17.1778125 3.921875 17.140625 C2.47554688 17.07101562 2.47554688 17.07101562 1 17 C0.67 17.66 0.34 18.32 0 19 C0 16.69 0 14.38 0 12 C0.99 12.495 0.99 12.495 2 13 C3.9981051 13.09649939 5.9995718 13.12980872 8 13.125 C9.0725 13.12757813 10.145 13.13015625 11.25 13.1328125 C13.96182052 13.1872341 13.96182052 13.1872341 16 12 C16 9.69 16 7.38 16 5 C13.70858714 4.94615479 11.41681812 4.90727913 9.125 4.875 C7.84882812 4.85179687 6.57265625 4.82859375 5.2578125 4.8046875 C1.91406662 4.64358476 1.91406662 4.64358476 0 7 C0 4.69 0 2.38 0 0 Z " fill="#E3D8C7" transform="translate(72,596)"/>
<path d="M0 0 C0.33 0 0.66 0 1 0 C1 2.31 1 4.62 1 7 C0.67 6.34 0.34 5.68 0 5 C-2.31284456 5.14026283 -4.62527591 5.28735558 -6.9375 5.4375 C-8.22527344 5.51871094 -9.51304687 5.59992188 -10.83984375 5.68359375 C-13.86023957 5.64919188 -13.86023957 5.64919188 -15 7 C-15.16666667 9.5 -15.16666667 9.5 -15 12 C-13.05909174 13.94090826 -9.52706098 13.39919435 -6.9375 13.5625 C-5.64714844 13.64628906 -4.35679687 13.73007812 -3.02734375 13.81640625 C-2.02832031 13.87699219 -1.02929688 13.93757813 0 14 C0.33 13.34 0.66 12.68 1 12 C1 13.98 1 15.96 1 18 C0.34 17.67 -0.32 17.34 -1 17 C-4.5702507 16.76109847 -8.13944106 16.61706436 -11.71484375 16.4765625 C-15 16 -15 16 -16.91796875 14.7109375 C-18.22007669 12.6520087 -18.4025634 11.42557915 -18.375 9 C-18.38273438 8.319375 -18.39046875 7.63875 -18.3984375 6.9375 C-17.85512011 4.29548605 -17.25127946 3.51000451 -15 2 C-11.6796875 1.5234375 -11.6796875 1.5234375 -7.875 1.375 C-3.61808686 1.58284708 -3.61808686 1.58284708 0 0 Z " fill="#E3D8C7" transform="translate(1007,465)"/>
<path d="M0 0 C0 2.64 0 5.28 0 8 C-3.82526683 10.13503265 -6.57636432 11.50555836 -11 11 C-12 10 -12 10 -12.3125 6.625 C-12 3 -12 3 -10.5 1.0625 C-6.87802345 -0.47684003 -3.92037077 -0.19601854 0 0 Z " fill="#ECE4D3" transform="translate(638,642)"/>
<path d="M0 0 C2.0625 0.4375 2.0625 0.4375 4 1 C3.01 1.33 2.02 1.66 1 2 C1 4.31 1 6.62 1 9 C3.44278263 8.42557356 3.44278263 8.42557356 6 7 C6.474375 5.989375 6.94875 4.97875 7.4375 3.9375 C9 1 9 1 12 -0.0625 C15 0 15 0 16.875 0.9375 C18.67836628 4.24367151 18.18323695 7.27418207 18 11 C16.68 11 15.36 11 14 11 C14 10.34 14 9.68 14 9 C14.99 9 15.98 9 17 9 C16.67 7.35 16.34 5.7 16 4 C13.62102997 3.95489639 13.62102997 3.95489639 11 5 C9.32150176 7.2308475 8.24000737 9.47405906 7 12 C4.125 12.1875 4.125 12.1875 1 12 C-1.69461986 7.95807022 -1.23200889 5.7948504 -1 1 C-0.67 0.67 -0.34 0.34 0 0 Z " fill="#EBE3D1" transform="translate(990,645)"/>
<path d="M0 0 C1.65 0 3.3 0 5 0 C5 5.61 5 11.22 5 17 C3.35 17 1.7 17 0 17 C0 16.34 0 15.68 0 15 C0.99 14.67 1.98 14.34 3 14 C3.33 12.68 3.66 11.36 4 10 C-1.61 10 -7.22 10 -13 10 C-13.33 10.99 -13.66 11.98 -14 13 C-14 10.36 -14 7.72 -14 5 C-13.67 5.66 -13.34 6.32 -13 7 C-7.72 7 -2.44 7 3 7 C2.67 5.68 2.34 4.36 2 3 C1.34 2.67 0.68 2.34 0 2 C0 1.34 0 0.68 0 0 Z " fill="#EBE3D2" transform="translate(1003,541)"/>
<path d="M0 0 C2.0625 0.4375 2.0625 0.4375 4 1 C3.01 1.33 2.02 1.66 1 2 C1 4.31 1 6.62 1 9 C3.44278263 8.42557356 3.44278263 8.42557356 6 7 C6.474375 5.989375 6.94875 4.97875 7.4375 3.9375 C9 1 9 1 12 -0.0625 C15 0 15 0 16.875 0.9375 C18.67836628 4.24367151 18.18323695 7.27418207 18 11 C16.68 11 15.36 11 14 11 C14 10.34 14 9.68 14 9 C14.99 9 15.98 9 17 9 C16.67 7.35 16.34 5.7 16 4 C13.62102997 3.95489639 13.62102997 3.95489639 11 5 C9.32150176 7.2308475 8.24000737 9.47405906 7 12 C4.125 12.1875 4.125 12.1875 1 12 C-1.69461986 7.95807022 -1.23200889 5.7948504 -1 1 C-0.67 0.67 -0.34 0.34 0 0 Z " fill="#EBE3D1" transform="translate(990,507)"/>
<path d="M0 0 C2.875 -0.1875 2.875 -0.1875 6 0 C8.67927341 4.01891012 8.15601248 6.24161923 8 11 C6.35 11.33 4.7 11.66 3 12 C3 11.34 3 10.68 3 10 C3.99 10 4.98 10 6 10 C6 7.69 6 5.38 6 3 C3.55721737 3.57442644 3.55721737 3.57442644 1 5 C0.54625 6.010625 0.0925 7.02125 -0.375 8.0625 C-0.91125 9.031875 -1.4475 10.00125 -2 11 C-5.6875 11.875 -5.6875 11.875 -9 12 C-11.67927341 7.98108988 -11.15601248 5.75838077 -11 1 C-9.68 1.33 -8.36 1.66 -7 2 C-7.99 2.33 -8.98 2.66 -10 3 C-9.67 4.65 -9.34 6.3 -9 8 C-6.62102997 8.04510361 -6.62102997 8.04510361 -4 7 C-2.32150176 4.7691525 -1.24000737 2.52594094 0 0 Z " fill="#E6DCCB" transform="translate(83,561)"/>
<path d="M0 0 C2.875 -0.1875 2.875 -0.1875 6 0 C8.67927341 4.01891012 8.15601248 6.24161923 8 11 C6.35 11.33 4.7 11.66 3 12 C3 11.34 3 10.68 3 10 C3.99 10 4.98 10 6 10 C6 7.69 6 5.38 6 3 C3.55721737 3.57442644 3.55721737 3.57442644 1 5 C0.54625 6.010625 0.0925 7.02125 -0.375 8.0625 C-0.91125 9.031875 -1.4475 10.00125 -2 11 C-5.6875 11.875 -5.6875 11.875 -9 12 C-11.67927341 7.98108988 -11.15601248 5.75838077 -11 1 C-9.68 1.33 -8.36 1.66 -7 2 C-7.99 2.33 -8.98 2.66 -10 3 C-9.67 4.65 -9.34 6.3 -9 8 C-6.62102997 8.04510361 -6.62102997 8.04510361 -4 7 C-2.32150176 4.7691525 -1.24000737 2.52594094 0 0 Z " fill="#E6DCCB" transform="translate(83,423)"/>
<path d="M0 0 C1.65 0 3.3 0 5 0 C5 0.66 5 1.32 5 2 C4.01 2.33 3.02 2.66 2 3 C1.67 4.32 1.34 5.64 1 7 C6.61 7 12.22 7 18 7 C18.33 6.01 18.66 5.02 19 4 C19 6.97 19 9.94 19 13 C18.34 12.67 17.68 12.34 17 12 C17 11.34 17 10.68 17 10 C11.72 10 6.44 10 1 10 C1.33 11.32 1.66 12.64 2 14 C2.99 14.33 3.98 14.66 5 15 C5 15.66 5 16.32 5 17 C3.35 17 1.7 17 0 17 C0 11.39 0 5.78 0 0 Z " fill="#E9E0CF" transform="translate(72,522)"/>
<path d="M0 0 C1.65 0 3.3 0 5 0 C5 5.28 5 10.56 5 16 C3.35 16 1.7 16 0 16 C0.33 15.34 0.66 14.68 1 14 C1.66 14 2.32 14 3 14 C3 12.68 3 11.36 3 10 C-2.28 10 -7.56 10 -13 10 C-13.33 10.66 -13.66 11.32 -14 12 C-14 9.36 -14 6.72 -14 4 C-13.34 4.66 -12.68 5.32 -12 6 C-9.26565038 6.3063859 -6.61720179 6.5113336 -3.875 6.625 C-3.12089844 6.66367187 -2.36679687 6.70234375 -1.58984375 6.7421875 C0.27303184 6.83651031 2.13648255 6.91934662 4 7 C4 5.35 4 3.7 4 2 C2.68 1.67 1.36 1.34 0 1 C0 0.67 0 0.34 0 0 Z " fill="#E4DAC9" transform="translate(1003,606)"/>
<path d="M0 0 C0.99 0 1.98 0 3 0 C3.33 3.63 3.66 7.26 4 11 C3.34 11 2.68 11 2 11 C2.7763932 14.0745356 2.7763932 14.0745356 5 16 C2.36 16 -0.28 16 -3 16 C-2.01 14.35 -1.02 12.7 0 11 C-1.98 11 -3.96 11 -6 11 C-5.39005934 7.93674247 -4.42271989 5.79949366 -2.625 3.25 C-2.20476563 2.63640625 -1.78453125 2.0228125 -1.3515625 1.390625 C-0.90554688 0.93171875 -0.45953125 0.4728125 0 0 Z " fill="#571312" transform="translate(616,551)"/>
<path d="M0 0 C0.99 0.66 1.98 1.32 3 2 C3 3.65 3 5.3 3 7 C-1.95 7 -6.9 7 -12 7 C-9.2214486 0.05362149 -7.13440455 -0.50960032 0 0 Z " fill="#E8DFCE" transform="translate(358,629)"/>
<path d="M0 0 C2.4375 1.5 2.4375 1.5 4 3 C3.67 4.32 3.34 5.64 3 7 C-1.62 7 -6.24 7 -11 7 C-9.29040517 0.16162067 -7.00695356 -0.73757406 0 0 Z " fill="#E9E1D0" transform="translate(797,629)"/>
<path d="M0 0 C0.66 0.66 1.32 1.32 2 2 C1.87358041 7.56246192 -0.37757375 10.09892558 -4 14 C-2.02 13.67 -0.04 13.34 2 13 C2 13.99 2 14.98 2 16 C-1.63 16 -5.26 16 -9 16 C-7.42820833 13.24936457 -5.84555226 10.81466272 -3.8125 8.375 C-1.69666334 6.10045848 -1.69666334 6.10045848 -2 3 C-4.16874252 3.50603992 -5.99967627 3.99983813 -8 5 C-7.625 3.0625 -7.625 3.0625 -7 1 C-4.48718205 -0.25640898 -2.78302919 -0.20872719 0 0 Z " fill="#5D1A19" transform="translate(600,551)"/>
<path d="M0 0 C0.66 0.66 1.32 1.32 2 2 C1.87358041 7.56246192 -0.37757375 10.09892558 -4 14 C-2.02 13.67 -0.04 13.34 2 13 C2 13.99 2 14.98 2 16 C-1.63 16 -5.26 16 -9 16 C-7.42820833 13.24936457 -5.84555226 10.81466272 -3.8125 8.375 C-1.69666334 6.10045848 -1.69666334 6.10045848 -2 3 C-4.16874252 3.50603992 -5.99967627 3.99983813 -8 5 C-7.625 3.0625 -7.625 3.0625 -7 1 C-4.48718205 -0.25640898 -2.78302919 -0.20872719 0 0 Z " fill="#5D1A19" transform="translate(468,551)"/>
<path d="M0 0 C0.94621815 4.32556868 1.63834656 8.58782801 2 13 C0 15 0 15 -3.625 15.125 C-4.73875 15.08375 -5.8525 15.0425 -7 15 C-7.33 13.68 -7.66 12.36 -8 11 C-5.03 11.495 -5.03 11.495 -2 12 C-2 11.01 -2 10.02 -2 9 C-2.66 8.67 -3.32 8.34 -4 8 C-3.34 5.69 -2.68 3.38 -2 1 C-5.11785113 1.64644661 -5.11785113 1.64644661 -6 4 C-6.66 4 -7.32 4 -8 4 C-7.625 2.0625 -7.625 2.0625 -7 0 C-4.3333581 -1.33332095 -2.83319697 -0.67102033 0 0 Z " fill="#652624" transform="translate(526,552)"/>
<path d="M0 0 C2.33944736 0.28730055 4.6739143 0.61936779 7 1 C7.35338623 3.96844435 7.5417682 6.15598218 5.88671875 8.734375 C4.64496832 10.20348819 3.32662082 11.60704814 2 13 C3.98 12.67 5.96 12.34 8 12 C8 13.32 8 14.64 8 16 C4.37 16 0.74 16 -3 16 C-1.47920698 12.95841396 -0.54180204 11.31337943 1.625 8.9375 C4.31436107 6.24076887 4.31436107 6.24076887 4 3 C1.83125748 3.50603992 0.00032373 3.99983813 -2 5 C-1.125 1.125 -1.125 1.125 0 0 Z " fill="#5F1E1D" transform="translate(555,551)"/>
<path d="M0 0 C2.5625 0.1875 2.5625 0.1875 4.5625 2.1875 C4.3456713 7.06614583 2.81385812 9.62149432 -0.4375 13.1875 C1.2125 13.1875 2.8625 13.1875 4.5625 13.1875 C4.5625 14.1775 4.5625 15.1675 4.5625 16.1875 C0.9325 16.1875 -2.6975 16.1875 -6.4375 16.1875 C-5.48875 14.99125 -4.54 13.795 -3.5625 12.5625 C-1.04540149 9.22615717 0.5374013 6.28789479 1.5625 2.1875 C-0.41286745 2.53536708 -0.41286745 2.53536708 -2.4375 3.1875 C-2.7675 3.8475 -3.0975 4.5075 -3.4375 5.1875 C-4.0975 5.1875 -4.7575 5.1875 -5.4375 5.1875 C-3.04059278 0.23389175 -3.04059278 0.23389175 0 0 Z " fill="#662725" transform="translate(504.4375,550.8125)"/>
<path d="M0 0 C1.65 0 3.3 0 5 0 C3.02 0.99 3.02 0.99 1 2 C1 3.65 1 5.3 1 7 C3.62594784 6.8863485 6.25011547 6.75960946 8.875 6.625 C9.62136719 6.5940625 10.36773437 6.563125 11.13671875 6.53125 C15.53473188 6.44356169 15.53473188 6.44356169 19 4 C19 6.64 19 9.28 19 12 C18.34 11.34 17.68 10.68 17 10 C14.26565038 9.6936141 11.61720179 9.4886664 8.875 9.375 C8.12089844 9.33632813 7.36679688 9.29765625 6.58984375 9.2578125 C4.72696816 9.16348969 2.86351745 9.08065338 1 9 C1 10.65 1 12.3 1 14 C2.32 14.66 3.64 15.32 5 16 C3.35 16 1.7 16 0 16 C0 10.72 0 5.44 0 0 Z " fill="#F0EBD9" transform="translate(72,458)"/>
<path d="M0 0 C0.99 0 1.98 0 3 0 C5.31332486 3.46998729 5.33957563 4.92509248 5 9 C4.01 10.485 4.01 10.485 3 12 C-0.875 11.125 -0.875 11.125 -2 10 C-2.27314815 4.26388889 -2.27314815 4.26388889 -2 2 C-1.34 1.34 -0.68 0.68 0 0 Z " fill="#E7DDCC" transform="translate(576,553)"/>
<path d="M0 0 C2.5 0.25 2.5 0.25 4.5 2.25 C4.8125 4.75 4.8125 4.75 4.5 7.25 C1.5 9.25 1.5 9.25 -1.125 8.9375 C-3.5 8.25 -3.5 8.25 -4.5 7.25 C-4.6875 4.8125 -4.6875 4.8125 -4.5 2.25 C-2.5 0.25 -2.5 0.25 0 0 Z " fill="#581413" transform="translate(712.5,608.75)"/>
<path d="M0 0 C1.9375 0.375 1.9375 0.375 4 1 C5.38550197 3.77100394 5.1877467 5.9334706 5 9 C4.01 10.485 4.01 10.485 3 12 C1.0625 11.625 1.0625 11.625 -1 11 C-2.38550197 8.22899606 -2.1877467 6.0665294 -2 3 C-1.34 2.01 -0.68 1.02 0 0 Z " fill="#E9E0CF" transform="translate(483,553)"/>
<path d="M0 0 C0.33 0 0.66 0 1 0 C1.33 2.64 1.66 5.28 2 8 C6.14093698 8.20970559 6.14093698 8.20970559 10 7 C10 8.98 10 10.96 10 13 C9.34 12.67 8.68 12.34 8 12 C5.4884113 11.90207108 3.01090234 11.86092017 0.5 11.875 C-0.18964844 11.87113281 -0.87929688 11.86726563 -1.58984375 11.86328125 C-5.42166214 11.80959134 -5.42166214 11.80959134 -9 13 C-9 11.02 -9 9.04 -9 7 C-4.545 7.99 -4.545 7.99 0 9 C0 6.03 0 3.06 0 0 Z " fill="#F0EBD9" transform="translate(998,389)"/>
<path d="M0 0 C2.31853933 0.92442407 4.62902749 1.86353608 6.9375 2.8125 C7.59685547 3.07353516 8.25621094 3.33457031 8.93554688 3.60351562 C10.66028184 4.319944 12.3349412 5.1540925 14 6 C14.33 6.99 14.66 7.98 15 9 C8.25 11 8.25 11 6 11 C6 9.02 6 7.04 6 5 C4.02 5 2.04 5 0 5 C0 3.35 0 1.7 0 0 Z " fill="#E4D9C8" transform="translate(989,679)"/>
<path d="M0 0 C2 1 2 1 3 2 C3.99 2 4.98 2 6 2 C6 4.31 6 6.62 6 9 C4.5410574 8.52269162 3.08286504 8.04308958 1.625 7.5625 C0.81289062 7.29566406 0.00078125 7.02882813 -0.8359375 6.75390625 C-3 6 -3 6 -5 5 C-5 4.01 -5 3.02 -5 2 C-2.625 0.9375 -2.625 0.9375 0 0 Z " fill="#E2D7C6" transform="translate(77,388)"/>
<path d="M0 0 C0.66 0.66 1.32 1.32 2 2 C4.56916657 2.30599063 7.04758384 2.51087087 9.625 2.625 C10.68460938 2.68300781 10.68460938 2.68300781 11.765625 2.7421875 C13.50998524 2.83647724 15.25495691 2.91932891 17 3 C17.33 2.01 17.66 1.02 18 0 C18.33 0 18.66 0 19 0 C19 2.31 19 4.62 19 7 C16.03 6.34 13.06 5.68 10 5 C9.67 5.66 9.34 6.32 9 7 C8.67 6.67 8.34 6.34 8 6 C3.85723125 5.75266863 3.85723125 5.75266863 0 7 C0 4.69 0 2.38 0 0 Z " fill="#EEE7D5" transform="translate(72,677)"/>
<path d="M0 0 C1.32 0.33 2.64 0.66 4 1 C3.01 1.33 2.02 1.66 1 2 C1.33 3.65 1.66 5.3 2 7 C5.82097239 6.46930939 8.06171403 5.50298434 11 3 C10.64005447 5.6635969 10.28838998 7.58183452 8.75 9.8125 C6.34642309 11.44349862 4.84167725 11.43718112 2 11 C-0.67927341 6.98108988 -0.15601248 4.75838077 0 0 Z " fill="#EBE3D2" transform="translate(72,562)"/>
<path d="M0 0 C1.32 0.33 2.64 0.66 4 1 C3.01 1.33 2.02 1.66 1 2 C1.33 3.65 1.66 5.3 2 7 C5.82097239 6.46930939 8.06171403 5.50298434 11 3 C10.64005447 5.6635969 10.28838998 7.58183452 8.75 9.8125 C6.34642309 11.44349862 4.84167725 11.43718112 2 11 C-0.67927341 6.98108988 -0.15601248 4.75838077 0 0 Z " fill="#EBE3D2" transform="translate(72,424)"/>
<path d="M0 0 C0.99 0 1.98 0 3 0 C3 2.97 3 5.94 3 9 C2.67 9 2.34 9 2 9 C1.67 6.69 1.34 4.38 1 2 C0.67 4.64 0.34 7.28 0 10 C-1.98 10 -3.96 10 -6 10 C-4.63356852 6.01457486 -2.89890986 3.07460137 0 0 Z " fill="#986E66" transform="translate(616,551)"/>
<path d="M0 0 C0.99 0.495 0.99 0.495 2 1 C3.87056791 1.2275015 5.74685958 1.40962811 7.625 1.5625 C8.62789062 1.64628906 9.63078125 1.73007812 10.6640625 1.81640625 C11.43492188 1.87699219 12.20578125 1.93757812 13 2 C12.67 2.99 12.34 3.98 12 5 C8.37 5 4.74 5 1 5 C0.67 5.66 0.34 6.32 0 7 C0 4.69 0 2.38 0 0 Z " fill="#ECE5D3" transform="translate(72,608)"/>
<path d="M0 0 C0.66 0.66 1.32 1.32 2 2 C1.625 5.125 1.625 5.125 1 8 C0.01 8 -0.98 8 -2 8 C-2 6.35 -2 4.7 -2 3 C-4.16874252 3.50603992 -5.99967627 3.99983813 -8 5 C-7.625 3.0625 -7.625 3.0625 -7 1 C-4.48718205 -0.25640898 -2.78302919 -0.20872719 0 0 Z " fill="#6A2D2B" transform="translate(600,551)"/>
<path d="M0 0 C0.66 0.66 1.32 1.32 2 2 C1.625 5.125 1.625 5.125 1 8 C0.01 8 -0.98 8 -2 8 C-2 6.35 -2 4.7 -2 3 C-4.16874252 3.50603992 -5.99967627 3.99983813 -8 5 C-7.625 3.0625 -7.625 3.0625 -7 1 C-4.48718205 -0.25640898 -2.78302919 -0.20872719 0 0 Z " fill="#6A2D2B" transform="translate(468,551)"/>
<path d="M0 0 C0.6875 2.3125 0.6875 2.3125 1 5 C-0.3125 6.8125 -0.3125 6.8125 -2 8 C-2.66 8 -3.32 8 -4 8 C-3.34 5.69 -2.68 3.38 -2 1 C-5.11785113 1.64644661 -5.11785113 1.64644661 -6 4 C-6.66 4 -7.32 4 -8 4 C-7.625 2.0625 -7.625 2.0625 -7 0 C-4.3333581 -1.33332095 -2.83319697 -0.67102033 0 0 Z " fill="#6B2F2C" transform="translate(526,552)"/>
<path d="M0 0 C2.3125 -0.25 2.3125 -0.25 5 0 C7.57409193 2.30780656 7.96739779 3.67397791 8.3125 7.125 C8 10 8 10 6 12 C4.08008639 10.08008639 4.15487696 6.73171222 3.6953125 4.12890625 C3.12400642 1.63581873 3.12400642 1.63581873 0 0 Z " fill="#5F1E1C" transform="translate(483,552)"/>
<path d="M0 0 C2.0625 0.4375 2.0625 0.4375 4 1 C3.01 1.33 2.02 1.66 1 2 C1 4.31 1 6.62 1 9 C1.99 9.33 2.98 9.66 4 10 C3.01 10.66 2.02 11.32 1 12 C-1.69461986 7.95807022 -1.23200889 5.7948504 -1 1 C-0.67 0.67 -0.34 0.34 0 0 Z " fill="#E1D5C4" transform="translate(990,645)"/>
<path d="M0 0 C2.0625 0.4375 2.0625 0.4375 4 1 C3.01 1.33 2.02 1.66 1 2 C1 4.31 1 6.62 1 9 C1.99 9.33 2.98 9.66 4 10 C3.01 10.66 2.02 11.32 1 12 C-1.69461986 7.95807022 -1.23200889 5.7948504 -1 1 C-0.67 0.67 -0.34 0.34 0 0 Z " fill="#E1D5C4" transform="translate(990,507)"/>
<path d="M0 0 C0.66 0 1.32 0 2 0 C2.36334661 7.38804781 2.36334661 7.38804781 0.8125 10 C-1.55995679 11.30894168 -3.3335118 11.21620175 -6 11 C-4.7934375 9.948125 -4.7934375 9.948125 -3.5625 8.875 C-0.76566189 5.73708407 -0.28691249 4.11241237 0 0 Z " fill="#581413" transform="translate(581,556)"/>
<path d="M0 0 C2.33944736 0.28730055 4.6739143 0.61936779 7 1 C7 2.98 7 4.96 7 7 C5 6 5 6 4 3 C1.83125748 3.50603992 0.00032373 3.99983813 -2 5 C-1.125 1.125 -1.125 1.125 0 0 Z " fill="#662725" transform="translate(555,551)"/>
<path d="M0 0 C2.1640625 -0.29296875 2.1640625 -0.29296875 4.625 -0.1875 C5.44226563 -0.16042969 6.25953125 -0.13335938 7.1015625 -0.10546875 C8.04128906 -0.05326172 8.04128906 -0.05326172 9 0 C9 0.99 9 1.98 9 3 C5.37 3 1.74 3 -2 3 C-1.34 2.01 -0.68 1.02 0 0 Z " fill="#5A1615" transform="translate(500,564)"/>
<path d="M0 0 C0 1.65 0 3.3 0 5 C-4.75 4.25 -4.75 4.25 -7 2 C-4.35261084 0.5393715 -3.10551666 0 0 0 Z " fill="#92675C" transform="translate(83,390)"/>
<path d="M0 0 C2.31 0.66 4.62 1.32 7 2 C4.64046906 4.35953094 3.22104383 4.49141413 0 5 C0 3.35 0 1.7 0 0 Z " fill="#8E6056" transform="translate(997,685)"/>
<path d="M0 0 C1.65 0 3.3 0 5 0 C5 2.31 5 4.62 5 7 C4.34 7 3.68 7 3 7 C2.87625 6.360625 2.7525 5.72125 2.625 5.0625 C2.315625 4.0415625 2.315625 4.0415625 2 3 C1.34 2.67 0.68 2.34 0 2 C0 1.34 0 0.68 0 0 Z " fill="#D8C9B9" transform="translate(1003,541)"/>
<path d="M0 0 C0.33 0 0.66 0 1 0 C1 1.98 1 3.96 1 6 C0.34 5.67 -0.32 5.34 -1 5 C-3.0374763 4.77141886 -5.08040303 4.58975722 -7.125 4.4375 C-8.76855469 4.31181641 -8.76855469 4.31181641 -10.4453125 4.18359375 C-11.28835938 4.12300781 -12.13140625 4.06242187 -13 4 C-13 3.67 -13 3.34 -13 3 C-12.14535156 2.95101563 -11.29070313 2.90203125 -10.41015625 2.8515625 C-9.30542969 2.77679688 -8.20070313 2.70203125 -7.0625 2.625 C-5.40927734 2.52058594 -5.40927734 2.52058594 -3.72265625 2.4140625 C-2.37494141 2.20910156 -2.37494141 2.20910156 -1 2 C-0.67 1.34 -0.34 0.68 0 0 Z " fill="#F0EAD8" transform="translate(1007,477)"/>
<path d="M0 0 C1.98 0 3.96 0 6 0 C6 1.65 6 3.3 6 5 C3.69 4.01 1.38 3.02 -1 2 C-0.67 1.34 -0.34 0.68 0 0 Z " fill="#E3D8C7" transform="translate(85,396)"/>
</svg>
