<?xml version="1.0" encoding="UTF-8"?>
<svg version="1.1" xmlns="http://www.w3.org/2000/svg" width="1067" height="347">
<path d="M0 0 C352.11 0 704.22 0 1067 0 C1067 114.51 1067 229.02 1067 347 C714.89 347 362.78 347 0 347 C0 232.49 0 117.98 0 0 Z " fill="#0A0337" transform="translate(0,0)"/>
<path d="M0 0 C8.90795224 3.97888534 14.16063288 12.36142398 18 21 C18 21.66 18 22.32 18 23 C18.66 23 19.32 23 20 23 C23.81770633 30.25816895 25.87628342 37.1424241 27.2265625 45.2265625 C27.8237317 48.14002437 28.5276515 50.51862939 29.5546875 53.26953125 C31.36435738 58.53869975 31.53427909 63.5257418 31.5 69.0625 C31.49718018 70.10035645 31.49436035 71.13821289 31.49145508 72.20751953 C31.27514438 82.88474425 29.07137286 92.93345188 26.6328125 103.28857422 C23.05811612 118.60515525 22.62777683 133.29027318 23 149 C27.30458441 144.95798729 30.71915628 140.51736492 34.1875 135.75 C35.23976226 134.30457083 36.29558126 132.86172216 37.35546875 131.421875 C37.81590576 130.78862305 38.27634277 130.15537109 38.75073242 129.50292969 C40 128 40 128 42 127 C42 138.55 42 150.1 42 162 C55.37992055 153.97204767 64.13799999 144.73216831 72.01953125 131.46875 C72.34308594 130.9840625 72.66664062 130.499375 73 130 C73.33 130 73.66 130 74 130 C73.70769506 139.25145126 72.59597241 148.19682336 71 157.3125 C70.82178711 158.33287354 70.64357422 159.35324707 70.45996094 160.40454102 C69.14047664 167.71904672 69.14047664 167.71904672 68 170 C81.57592315 167.09087361 90.05130476 160.55939523 97.65234375 148.94140625 C98.09707031 148.30074219 98.54179687 147.66007813 99 147 C99.33 147 99.66 147 100 147 C100.56254936 163.60562366 98.63958923 174.65550479 86.86328125 187.29296875 C79.92551029 193.93180523 71.66859286 198.35542714 62 199 C62 199.66 62 200.32 62 201 C58.35423608 201.05878077 54.70859648 201.0938558 51.0625 201.125 C50.04091797 201.14175781 49.01933594 201.15851563 47.96679688 201.17578125 C32.05876382 201.27743002 32.05876382 201.27743002 26 196 C24.46932239 195.28836918 22.92666066 194.60213641 21.375 193.9375 C12.06975781 189.29171095 6.13515766 181.89538994 1 173.0625 C0.62609131 172.43110107 0.25218262 171.79970215 -0.13305664 171.14916992 C-5.20088 161.89003721 -5.3662181 151.64632714 -5.3125 141.3125 C-5.30686035 140.17345215 -5.3012207 139.0344043 -5.29541016 137.86083984 C-5.11227824 125.07605619 -3.71791273 114.31669455 2.515625 102.9296875 C5.085912 97.85675263 6.48691756 92.46202407 8 87 C8.27714844 86.09636719 8.55429687 85.19273437 8.83984375 84.26171875 C14.89444537 63.92910138 15.76368106 39.89689435 8 20 C7.48563336 18.62077628 6.97390142 17.24056703 6.46484375 15.859375 C6.21283203 15.18132812 5.96082031 14.50328125 5.70117188 13.8046875 C5.18648028 12.41989067 4.67349454 11.03445876 4.16210938 9.6484375 C2.92936854 6.34000195 1.67596806 3.11136654 0 0 Z " fill="#F9FAFA" transform="translate(47,75)"/>
<path d="M0 0 C0.680625 1.423125 0.680625 1.423125 1.375 2.875 C2.80238254 6.00313679 2.80238254 6.00313679 5 8 C6.76045171 8.33167931 8.53450502 8.59355881 10.3125 8.8125 C15.36148361 9.64518578 17.8261172 10.80228404 21 15 C21.99 16.485 21.99 16.485 23 18 C22.0925 18.556875 21.185 19.11375 20.25 19.6875 C16.99825411 22.00124227 15.13959219 23.65487415 13 27 C12.68701347 29.74509288 12.56970959 32.03296784 12.6875 34.75 C12.69716797 35.43449219 12.70683594 36.11898437 12.71679688 36.82421875 C12.52827603 40.2000264 12.52827603 40.2000264 14 43 C14.07179964 44.51928038 14.08392007 46.04167482 14.0625 47.5625 C14.05347656 48.38878906 14.04445312 49.21507812 14.03515625 50.06640625 C14.02355469 50.70449219 14.01195312 51.34257813 14 52 C13.01 52.495 13.01 52.495 12 53 C11.08719862 55.57437581 11.08719862 55.57437581 10.375 58.5625 C9.98441406 60.08037109 9.98441406 60.08037109 9.5859375 61.62890625 C9.39257812 62.41136719 9.19921875 63.19382813 9 64 C8.34 64 7.68 64 7 64 C6.731875 64.70125 6.46375 65.4025 6.1875 66.125 C4.9318551 69.1649824 3.49764877 72.0727774 2 75 C1.34 75 0.68 75 0 75 C0.04640625 76.02738281 0.0928125 77.05476563 0.140625 78.11328125 C0.37948395 85.69245948 0.17817088 91.65082884 -2.859375 98.69921875 C-4.46832037 103.35524218 -5.18822253 108.08779466 -6 112.9375 C-8.00874937 124.64318981 -11.03349253 134.67957402 -16.6328125 145.2109375 C-18.04141277 148.08448205 -19.05413675 150.94621295 -20 154 C-20.66 154 -21.32 154 -22 154 C-22.4021875 155.11375 -22.4021875 155.11375 -22.8125 156.25 C-24 159 -24 159 -27 163 C-27 153.43 -27 143.86 -27 134 C-30.1246875 138.08375 -30.1246875 138.08375 -33.3125 142.25 C-33.96387939 143.10110352 -34.61525879 143.95220703 -35.28637695 144.82910156 C-35.80675537 145.5094043 -36.32713379 146.18970703 -36.86328125 146.890625 C-37.39219971 147.58188477 -37.92111816 148.27314453 -38.46606445 148.98535156 C-39.53239997 150.38586098 -40.56536331 151.81215516 -41.57104492 153.25683594 C-42.0426001 153.83208008 -42.51415527 154.40732422 -43 155 C-43.66 155 -44.32 155 -45 155 C-49.92893035 137.13823419 -44.46239327 115.36649747 -40 97.94921875 C-38.10501138 90.48770106 -37.69251201 83.35732637 -37.625 75.6875 C-37.61106201 74.67204102 -37.59712402 73.65658203 -37.58276367 72.61035156 C-37.61838678 66.97542339 -38.25237801 62.35548373 -40.24267578 57.08374023 C-41.42210387 53.83860203 -41.98890572 50.58116783 -42.625 47.1875 C-43.44572291 42.49406065 -43.44572291 42.49406065 -44.7265625 37.921875 C-45.15585332 34.90457378 -43.9580886 32.81541454 -42.75 30.0625 C-42.31171875 29.04285156 -41.8734375 28.02320312 -41.421875 26.97265625 C-38.69870549 21.27943647 -36.07125932 17.85415708 -31 14 C-29.9171875 13.1646875 -29.9171875 13.1646875 -28.8125 12.3125 C-25.88599817 10.94679914 -23.62029435 10.61806369 -20.4375 10.1875 C-15.79991571 9.47893157 -15.79991571 9.47893157 -12.5 6.0625 C-12.005 5.051875 -11.51 4.04125 -11 3 C-8.22155828 -1.16766258 -4.60009482 -0.22623417 0 0 Z " fill="#65708B" transform="translate(115,69)"/>
<path d="M0 0 C8.90795224 3.97888534 14.16063288 12.36142398 18 21 C18 21.66 18 22.32 18 23 C18.66 23 19.32 23 20 23 C23.81770633 30.25816895 25.87628342 37.1424241 27.2265625 45.2265625 C27.8237317 48.14002437 28.5276515 50.51862939 29.5546875 53.26953125 C31.36435738 58.53869975 31.53427909 63.5257418 31.5 69.0625 C31.49718018 70.10035645 31.49436035 71.13821289 31.49145508 72.20751953 C31.2752333 82.88035528 29.07186257 92.92080303 26.6328125 103.27099609 C24.17062602 113.88917528 22.74571101 124.21282178 22.6875 135.125 C22.68194092 135.99020264 22.67638184 136.85540527 22.6706543 137.74682617 C22.71710008 141.82968842 23.01698939 145.48313891 24.09765625 149.4296875 C25 153 25 153 23.75 156 C22.88375 156.99 22.88375 156.99 22 158 C21.34 158 20.68 158 20 158 C19.70996094 159.48113281 19.70996094 159.48113281 19.4140625 160.9921875 C19.15367188 162.27351562 18.89328125 163.55484375 18.625 164.875 C18.36976562 166.15117187 18.11453125 167.42734375 17.8515625 168.7421875 C17 172 17 172 15 174 C14.75684344 176.66949409 14.75684344 176.66949409 14.875 179.625 C14.90207031 181.12933594 14.90207031 181.12933594 14.9296875 182.6640625 C14.95289062 183.43492187 14.97609375 184.20578125 15 185 C12.6796875 185.16796875 12.6796875 185.16796875 10 185 C0.34376784 175.97352211 -4.34985652 163.91666532 -5.20068359 150.93896484 C-5.30313969 147.72684129 -5.32920562 144.52618433 -5.3125 141.3125 C-5.30686035 140.17345215 -5.3012207 139.0344043 -5.29541016 137.86083984 C-5.11227824 125.07605619 -3.71791273 114.31669455 2.515625 102.9296875 C5.085912 97.85675263 6.48691756 92.46202407 8 87 C8.27714844 86.09636719 8.55429687 85.19273437 8.83984375 84.26171875 C14.89444537 63.92910138 15.76368106 39.89689435 8 20 C7.48563336 18.62077628 6.97390142 17.24056703 6.46484375 15.859375 C6.21283203 15.18132812 5.96082031 14.50328125 5.70117188 13.8046875 C5.18648028 12.41989067 4.67349454 11.03445876 4.16210938 9.6484375 C2.92936854 6.34000195 1.67596806 3.11136654 0 0 Z " fill="#F8FAFA" transform="translate(47,75)"/>
<path d="M0 0 C8.80529319 15.92551251 2.57345355 43.16228164 -2.00244141 59.68530273 C-4.05889853 66.74052221 -6.47631572 73.35836477 -9.75 79.9375 C-15.10243819 90.86796909 -15.15689473 101.16307021 -15.25 113.125 C-15.2595874 114.22175049 -15.2691748 115.31850098 -15.27905273 116.44848633 C-15.24040754 125.79289366 -14.8493478 134.904089 -9.875 143.0625 C-7 147.85645933 -7 147.85645933 -7 150 C-8.98 149.34 -10.96 148.68 -13 148 C-13 147.34 -13 146.68 -13 146 C-13.70125 146 -14.4025 146 -15.125 146 C-19.64471525 144.42792513 -21.68326985 141.07012165 -24 137 C-24.94418373 134.32888954 -25.4493602 131.79908566 -26 129 C-26.32226562 128.2265625 -26.64453125 127.453125 -26.9765625 126.65625 C-28.12779984 123.66830577 -28.63855064 120.84942085 -29.125 117.6875 C-29.29257812 116.61886719 -29.46015625 115.55023438 -29.6328125 114.44921875 C-29.75398438 113.64097656 -29.87515625 112.83273438 -30 112 C-31.98 111.34 -33.96 110.68 -36 110 C-35.855625 109.175 -35.71125 108.35 -35.5625 107.5 C-35.2671207 105.66208436 -34.98671636 103.81752476 -34.8515625 101.9609375 C-34.41432455 96.40176926 -34.41432455 96.40176926 -31.9375 94 C-29.63377791 92.04161823 -29.63377791 92.04161823 -29.6875 88.5 C-29.79262459 86.03642801 -30.04819141 83.64378105 -30.37890625 81.19921875 C-31.30834254 73.65610951 -30.70030259 67.75610803 -27 61 C-25.67433666 59.65904054 -24.34129332 58.32532554 -23 57 C-21.94150565 55.00768035 -21.94150565 55.00768035 -21.1875 52.875 C-19.25235145 48.22452444 -16.61155163 44.41407149 -13.671875 40.34375 C-10.25231968 35.54998085 -7.71111072 30.73675083 -6.00390625 25.08984375 C-5 23 -5 23 -2.421875 20.30859375 C0.85929136 16.5091285 0.5780547 12.94583912 0.3125 8.125 C0.27866211 6.949375 0.27866211 6.949375 0.24414062 5.75 C0.18568018 3.8324974 0.09601283 1.9159894 0 0 Z " fill="#65708B" transform="translate(58,103)"/>
<path d="M0 0 C5.28 0 10.56 0 16 0 C16.94437591 4.79691215 17.88706753 9.59410229 18.82592773 14.39208984 C19.14402883 16.01531518 19.46300272 17.63836979 19.78295898 19.26123047 C21.53261613 28.13901836 23.21998037 37.02335277 24.73046875 45.9453125 C24.92374504 47.0717366 24.92374504 47.0717366 25.1209259 48.22091675 C25.67365909 51.55071607 26 54.61209271 26 58 C22.7 58 19.4 58 16 58 C15.34 52.72 14.68 47.44 14 42 C10.04 42 6.08 42 2 42 C1.855625 43.52625 1.71125 45.0525 1.5625 46.625 C1.18226383 50.44908948 0.69661832 54.21835771 0 58 C-3.3 58 -6.6 58 -10 58 C-9.39864442 47.73576645 -7.58821253 37.92853624 -5.5625 27.875 C-5.24614298 26.28006717 -4.93038443 24.68501551 -4.61523438 23.08984375 C-3.8790136 19.37067697 -3.13599457 15.65292504 -2.38897705 11.93591309 C-1.84969845 9.25195913 -1.31359436 6.56737284 -0.77734375 3.8828125 C-0.52082031 2.60148437 -0.26429688 1.32015625 0 0 Z " fill="#5F7E92" transform="translate(751,113)"/>
<path d="M0 0 C2.97 0 5.94 0 9 0 C10.32 6.93 11.64 13.86 13 21 C14.86327965 13.95194218 16.39481689 7.26219733 17 0 C20.3 0 23.6 0 27 0 C27.48292321 2.33261023 27.96139859 4.66599588 28.4375 7 C28.57220703 7.64839844 28.70691406 8.29679688 28.84570312 8.96484375 C29.04389648 9.94130859 29.04389648 9.94130859 29.24609375 10.9375 C29.36654053 11.52402344 29.4869873 12.11054688 29.61108398 12.71484375 C30.19151873 16.12530782 30.57090131 19.56721047 31 23 C32.32 15.41 33.64 7.82 35 0 C37.97 0 40.94 0 44 0 C44.23434886 7.24969524 43.347271 13.93624424 42.0625 21.0625 C41.69772094 23.13645586 41.33440871 25.21067033 40.97265625 27.28515625 C40.80266113 28.25855957 40.63266602 29.23196289 40.45751953 30.23486328 C39.86518988 33.81475956 39.41111792 37.39514501 39 41 C34.71 41 30.42 41 26 41 C25.79503906 39.73542969 25.59007812 38.47085938 25.37890625 37.16796875 C25.10689979 35.50779137 24.83475728 33.84763627 24.5625 32.1875 C24.42779297 31.35412109 24.29308594 30.52074219 24.15429688 29.66210938 C23.95610352 28.45844727 23.95610352 28.45844727 23.75390625 27.23046875 C23.63345947 26.49207764 23.5130127 25.75368652 23.38891602 24.99291992 C23.00606924 22.80376404 23.00606924 22.80376404 22 20 C20.68 26.93 19.36 33.86 18 41 C14.04 41 10.08 41 6 41 C4.47325558 37.94651116 4.27853541 34.63844425 3.80859375 31.2890625 C3.69902847 30.52451752 3.5894632 29.75997253 3.47657776 28.97225952 C3.24546534 27.35349245 3.01609608 25.73447569 2.78833008 24.11523438 C2.43978629 21.64122838 2.08457286 19.16824704 1.72851562 16.6953125 C1.50480725 15.12245283 1.28148721 13.54953786 1.05859375 11.9765625 C0.95236191 11.23789948 0.84613007 10.49923645 0.73667908 9.7381897 C0.2762807 6.44013971 0 3.33947598 0 0 Z " fill="#5E7D91" transform="translate(244,130)"/>
<path d="M0 0 C2.97 0 5.94 0 9 0 C9 20.46 9 40.92 9 62 C-8 62 -8 62 -14 58 C-18.63532647 52.9928559 -18.5090203 46.33144826 -18.40234375 39.87084961 C-18.11032371 32.81010364 -17.11429935 28.41634211 -12.375 23 C-9 21 -9 21 0 21 C0 14.07 0 7.14 0 0 Z " fill="#5F7F92" transform="translate(579,109)"/>
<path d="M0 0 C3.85407086 3.33325047 6.7898781 7.32173313 7.78051758 12.3984375 C7.9462804 14.95002795 7.94663475 17.44438189 7.875 20 C7.88595703 20.85078125 7.89691406 21.7015625 7.90820312 22.578125 C7.84032008 28.47942409 6.67086073 33.09123376 3.3125 38 C-0.06639114 41.07171922 -2.11055013 41.90842066 -6.625 42.625 C-10.81431464 42.38423479 -13.26991906 40.71603892 -16.2109375 37.80859375 C-22.01114233 30.70411006 -21.50505116 21.71748369 -20.6875 13 C-19.48722527 7.70387252 -17.88036679 4.13864557 -13.9375 0.375 C-9.0192841 -1.70578365 -5.12878899 -1.9083866 0 0 Z " fill="#5D7C90" transform="translate(1003.6875,130)"/>
<path d="M0 0 C5.22801876 2.25755355 8.1188292 5.84113153 10.25 11.0625 C12.45742889 20.31363379 11.46019846 29.59589614 7 38 C3.69830148 41.30169852 1.34549972 42.89845285 -3.3125 43.25 C-7.38950629 42.97359279 -8.89815596 42.61207919 -12 40 C-16.94424265 34.05915749 -17.73644417 28.9412134 -17.5 21.375 C-17.50386719 20.00214844 -17.50386719 20.00214844 -17.5078125 18.6015625 C-17.40776121 11.67801345 -16.15109049 7.30116657 -11.3125 2.125 C-6.93984312 -0.68010064 -5.11659753 -0.64972667 0 0 Z " fill="#5F7E91" transform="translate(858,129)"/>
<path d="M0 0 C0.97453125 0.01353516 1.9490625 0.02707031 2.953125 0.04101562 C5.34399009 0.07617541 7.73456843 0.12997625 10.125 0.1875 C10.125 3.1575 10.125 6.1275 10.125 9.1875 C8.21074219 9.26097656 8.21074219 9.26097656 6.2578125 9.3359375 C4.58851928 9.41096191 2.91924954 9.48650988 1.25 9.5625 C-0.01263672 9.60890625 -0.01263672 9.60890625 -1.30078125 9.65625 C-2.50927734 9.71425781 -2.50927734 9.71425781 -3.7421875 9.7734375 C-4.48581543 9.8048584 -5.22944336 9.8362793 -5.99560547 9.86865234 C-8.11510974 10.04169551 -8.11510974 10.04169551 -9.875 12.1875 C-10.46525991 17.04265384 -10.46525991 17.04265384 -8.28515625 21.203125 C-4.89326099 23.99580376 -1.08699881 25.62337645 2.90429688 27.3671875 C8.1735011 29.82273899 11.50991502 32.95733004 14.125 38.1875 C14.67540683 44.07261913 14.7501948 49.27594576 11.125 54.1875 C4.96394759 58.79154732 -0.29808146 58.68005106 -7.8125 58.4375 C-8.87791016 58.41945312 -9.94332031 58.40140625 -11.04101562 58.3828125 C-13.65328929 58.33595557 -16.26366226 58.27036926 -18.875 58.1875 C-18.875 55.5475 -18.875 52.9075 -18.875 50.1875 C-18.31514404 50.16244385 -17.75528809 50.1373877 -17.1784668 50.11157227 C-14.63958695 49.99546255 -12.10106447 49.8728042 -9.5625 49.75 C-8.68142578 49.71068359 -7.80035156 49.67136719 -6.89257812 49.63085938 C-6.04501953 49.58896484 -5.19746094 49.54707031 -4.32421875 49.50390625 C-3.15379028 49.44891968 -3.15379028 49.44891968 -1.9597168 49.39282227 C0.31829101 49.24624737 0.31829101 49.24624737 3.125 48.1875 C3.20631463 46.75094146 3.26433559 45.3130517 3.3125 43.875 C3.34730469 43.07449219 3.38210938 42.27398437 3.41796875 41.44921875 C3.29767152 39.1922627 3.29767152 39.1922627 2.07421875 37.6328125 C-1.40109383 35.05592742 -5.36262802 33.28366639 -9.25 31.41210938 C-14.54271084 28.72885258 -18.16037369 25.61675262 -20.875 20.1875 C-21.63440356 13.37776647 -21.10928614 8.64750055 -16.875 3.1875 C-11.44354691 -0.50795068 -6.31094483 -0.16675261 0 0 Z " fill="#5E7E91" transform="translate(488.875,112.8125)"/>
<path d="M0 0 C0.33 0 0.66 0 1 0 C0.67 10.89 0.34 21.78 0 33 C-2.26954631 29.59568053 -2.36549949 27.83475798 -2.625 23.8125 C-2.69976562 22.72582031 -2.77453125 21.63914063 -2.8515625 20.51953125 C-2.90054688 19.68808594 -2.94953125 18.85664063 -3 18 C-3.66 18 -4.32 18 -5 18 C-5.03738281 18.63164062 -5.07476562 19.26328125 -5.11328125 19.9140625 C-5.51381678 25.36448713 -6.28857115 30.49444796 -7.5625 35.8125 C-9.67457208 45.3012179 -11.28702409 57.22154491 -6 66 C-3.69225908 69.33410319 -1.5860642 71.62988683 2.45654297 72.57324219 C5.27685393 72.81294586 8.04475205 72.88267005 10.875 72.875 C11.84953125 72.895625 12.8240625 72.91625 13.828125 72.9375 C16.21960983 72.98439186 18.60815163 73.00446121 21 73 C21 73.33 21 73.66 21 74 C17.35423608 74.05878077 13.70859648 74.0938558 10.0625 74.125 C9.04091797 74.14175781 8.01933594 74.15851563 6.96679688 74.17578125 C-8.93574413 74.27739493 -8.93574413 74.27739493 -15 69 C-16.63237661 68.20106446 -18.27916917 67.4310659 -19.9375 66.6875 C-24.57618098 64.4401036 -27.06767911 62.20299327 -30 58 C-28.515 57.505 -28.515 57.505 -27 57 C-27.02320313 56.30132812 -27.04640625 55.60265625 -27.0703125 54.8828125 C-27.08835938 53.97273438 -27.10640625 53.06265625 -27.125 52.125 C-27.14820313 51.22007812 -27.17140625 50.31515625 -27.1953125 49.3828125 C-27 47 -27 47 -25 45 C-24.41181945 43.01876024 -23.89991921 41.01430778 -23.4375 39 C-22.08520179 33.17040359 -22.08520179 33.17040359 -21 31 C-20.34 31 -19.68 31 -19 31 C-17.18397483 26.46167247 -17.18397483 26.46167247 -18 22 C-17.30390625 21.34515625 -16.6078125 20.6903125 -15.890625 20.015625 C-12.44133693 16.56633693 -9.63017119 12.67493916 -6.75 8.75 C-5.6828844 7.30685319 -4.61520622 5.86412215 -3.546875 4.421875 C-3.08120117 3.78862305 -2.61552734 3.15537109 -2.13574219 2.50292969 C-1 1 -1 1 0 0 Z " fill="#EAE1D7" transform="translate(88,202)"/>
<path d="M0 0 C2.89684158 -0.10829314 5.78961019 -0.18743954 8.6875 -0.25 C9.50412109 -0.28351563 10.32074219 -0.31703125 11.16210938 -0.3515625 C15.30292007 -0.41862016 17.4274885 -0.35846774 21.01953125 1.890625 C24.55605126 5.6573327 24.13129873 8.92860095 24.09765625 13.8515625 C24.0962413 14.62559418 24.09482635 15.39962585 24.09336853 16.19711304 C24.08776403 18.67311442 24.07521083 21.14902588 24.0625 23.625 C24.05748558 25.30208203 24.05292257 26.97916547 24.04882812 28.65625 C24.03779315 32.77086806 24.02052554 36.88541878 24 41 C20.79215279 41.14622024 17.58517039 41.23436651 14.375 41.3125 C13.47136719 41.35439453 12.56773437 41.39628906 11.63671875 41.43945312 C7.18090975 41.52076351 3.99186019 41.519728 0.4140625 38.66796875 C-3.5269947 34.31239906 -3.33724046 30.30050456 -3.28515625 24.66796875 C-2.89749524 21.04094863 -1.74349828 19.36245685 1 17 C4.18433911 15.04410206 6.53889418 14.77733932 10.25 14.875 C11.14203125 14.89304688 12.0340625 14.91109375 12.953125 14.9296875 C13.96632813 14.96449219 13.96632813 14.96449219 15 15 C14.34 12.69 13.68 10.38 13 8 C8.71 7.67 4.42 7.34 0 7 C0 4.69 0 2.38 0 0 Z " fill="#5F7F92" transform="translate(918,130)"/>
<path d="M0 0 C2.89684158 -0.10829314 5.78961019 -0.18743954 8.6875 -0.25 C9.50412109 -0.28351563 10.32074219 -0.31703125 11.16210938 -0.3515625 C15.30292007 -0.41862016 17.4274885 -0.35846774 21.01953125 1.890625 C24.55605126 5.6573327 24.13129873 8.92860095 24.09765625 13.8515625 C24.0962413 14.62559418 24.09482635 15.39962585 24.09336853 16.19711304 C24.08776403 18.67311442 24.07521083 21.14902588 24.0625 23.625 C24.05748558 25.30208203 24.05292257 26.97916547 24.04882812 28.65625 C24.03779315 32.77086806 24.02052554 36.88541878 24 41 C20.79215279 41.14622024 17.58517039 41.23436651 14.375 41.3125 C13.47136719 41.35439453 12.56773437 41.39628906 11.63671875 41.43945312 C7.18090975 41.52076351 3.99186019 41.519728 0.4140625 38.66796875 C-3.5269947 34.31239906 -3.33724046 30.30050456 -3.28515625 24.66796875 C-2.89749524 21.04094863 -1.74349828 19.36245685 1 17 C4.18433911 15.04410206 6.53889418 14.77733932 10.25 14.875 C11.14203125 14.89304688 12.0340625 14.91109375 12.953125 14.9296875 C13.96632813 14.96449219 13.96632813 14.96449219 15 15 C14.34 12.69 13.68 10.38 13 8 C8.71 7.67 4.42 7.34 0 7 C0 4.69 0 2.38 0 0 Z " fill="#5F7F92" transform="translate(295,130)"/>
<path d="M0 0 C2.89684158 -0.10829314 5.78961019 -0.18743954 8.6875 -0.25 C9.50412109 -0.28351563 10.32074219 -0.31703125 11.16210938 -0.3515625 C15.30292007 -0.41862016 17.4274885 -0.35846774 21.01953125 1.890625 C24.55605126 5.6573327 24.13129873 8.92860095 24.09765625 13.8515625 C24.0962413 14.62559418 24.09482635 15.39962585 24.09336853 16.19711304 C24.08776403 18.67311442 24.07521083 21.14902588 24.0625 23.625 C24.05748558 25.30208203 24.05292257 26.97916547 24.04882812 28.65625 C24.03779315 32.77086806 24.02052554 36.88541878 24 41 C20.79215279 41.14622024 17.58517039 41.23436651 14.375 41.3125 C13.47136719 41.35439453 12.56773437 41.39628906 11.63671875 41.43945312 C7.18090975 41.52076351 3.99186019 41.519728 0.4140625 38.66796875 C-3.5269947 34.31239906 -3.33724046 30.30050456 -3.28515625 24.66796875 C-2.89749524 21.04094863 -1.74349828 19.36245685 1 17 C4.18433911 15.04410206 6.53889418 14.77733932 10.25 14.875 C11.14203125 14.89304688 12.0340625 14.91109375 12.953125 14.9296875 C13.96632812 14.96449219 13.96632812 14.96449219 15 15 C14.34 12.69 13.68 10.38 13 8 C8.71 7.67 4.42 7.34 0 7 C0 4.69 0 2.38 0 0 Z " fill="#5F7F92" transform="translate(202,130)"/>
<path d="M0 0 C4.6785971 2.15935251 7.21031008 4.90117112 9.3203125 9.49609375 C10.70621856 14.60164422 10.21853899 19.75506415 10 25 C3.73 25 -2.54 25 -9 25 C-6.81940167 31.84825895 -6.81940167 31.84825895 -3 34 C-0.72087062 34.45394552 -0.72087062 34.45394552 1.6875 34.625 C2.49574219 34.69976562 3.30398438 34.77453125 4.13671875 34.8515625 C4.75160156 34.90054688 5.36648438 34.94953125 6 35 C6 37.31 6 39.62 6 42 C-7.1222183 42.77569763 -7.1222183 42.77569763 -13 38 C-18.90569012 30.19217043 -18.69947543 21.36903006 -18 12 C-16.77822768 7.31537583 -14.80875104 4.73522822 -11.25 1.5 C-7.25485742 -0.34391196 -4.31913622 -0.82927416 0 0 Z " fill="#5E7D91" transform="translate(611,129)"/>
<path d="M0 0 C4.6785971 2.15935251 7.21031008 4.90117112 9.3203125 9.49609375 C10.70621856 14.60164422 10.21853899 19.75506415 10 25 C3.73 25 -2.54 25 -9 25 C-6.81940167 31.84825895 -6.81940167 31.84825895 -3 34 C-0.72087062 34.45394552 -0.72087062 34.45394552 1.6875 34.625 C2.49574219 34.69976562 3.30398438 34.77453125 4.13671875 34.8515625 C4.75160156 34.90054688 5.36648438 34.94953125 6 35 C6 37.31 6 39.62 6 42 C-7.1222183 42.77569763 -7.1222183 42.77569763 -13 38 C-18.90569012 30.19217043 -18.69947543 21.36903006 -18 12 C-16.77822768 7.31537583 -14.80875104 4.73522822 -11.25 1.5 C-7.25485742 -0.34391196 -4.31913622 -0.82927416 0 0 Z " fill="#5E7D91" transform="translate(374,129)"/>
<path d="M0 0 C4.13869913 1.78716553 6.53111378 4.25410366 9 8 C11.40296061 14.12754955 11 17.910364 11 25 C4.4 25 -2.2 25 -9 25 C-6.16666667 32.66666667 -6.16666667 32.66666667 -3 34 C-1.29636178 34.22622081 0.41328701 34.40888473 2.125 34.5625 C3.03507812 34.64628906 3.94515625 34.73007813 4.8828125 34.81640625 C5.58148438 34.87699219 6.28015625 34.93757813 7 35 C7 37.31 7 39.62 7 42 C-6.07420272 42.57120303 -6.07420272 42.57120303 -11 39 C-16.54327413 32.99478635 -17.34256952 28.51524294 -17.3125 20.625 C-17.32861328 19.78710938 -17.34472656 18.94921875 -17.36132812 18.0859375 C-17.36663108 11.34058208 -16.02382249 7.16501941 -11.3125 2.125 C-6.93984312 -0.68010064 -5.11659753 -0.64972667 0 0 Z " fill="#5F7F92" transform="translate(436,129)"/>
<path d="M0 0 C11.55 0 23.1 0 35 0 C35 2.64 35 5.28 35 8 C30.71 8 26.42 8 22 8 C22 24.5 22 41 22 58 C18.7 58 15.4 58 12 58 C12 41.83 12 25.66 12 9 C8.04 9 4.08 9 0 9 C0 6.03 0 3.06 0 0 Z " fill="#5E7D91" transform="translate(161,113)"/>
<path d="M0 0 C20 0 20 0 25 3 C27.69304002 6.51723365 27.2558266 10.58930421 27.1953125 14.828125 C27.1924826 15.57713074 27.18965271 16.32613647 27.18673706 17.09783936 C27.1755726 19.48205776 27.15047531 21.86589579 27.125 24.25 C27.11496535 25.86978623 27.10584035 27.48957836 27.09765625 29.109375 C27.07564555 33.07306246 27.04114175 37.03646681 27 41 C24.03 41 21.06 41 18 41 C17.97494385 40.03586182 17.9498877 39.07172363 17.92407227 38.07836914 C17.83014694 34.51312158 17.72989061 30.94807567 17.62768555 27.38305664 C17.58428015 25.83785711 17.54260929 24.29260786 17.50268555 22.74731445 C17.44511801 20.53060904 17.38138576 18.3141552 17.31640625 16.09765625 C17.29969376 15.4028566 17.28298126 14.70805695 17.26576233 13.99220276 C17.43497144 10.71237971 17.43497144 10.71237971 16 8 C13.69 7.67 11.38 7.34 9 7 C9 18.22 9 29.44 9 41 C6.03 41 3.06 41 0 41 C0 27.47 0 13.94 0 0 Z " fill="#5E7E91" transform="translate(1016,130)"/>
<path d="M0 0 C2.97 0 5.94 0 9 0 C9.33 10.56 9.66 21.12 10 32 C12.64 32.66 15.28 33.32 18 34 C18 22.78 18 11.56 18 0 C20.97 0 23.94 0 27 0 C27 13.53 27 27.06 27 41 C7 41 7 41 1 36 C-0.18975795 32.43072615 -0.12478155 29.20053028 -0.09765625 25.48828125 C-0.0962413 24.76005661 -0.09482635 24.03183197 -0.09336853 23.28153992 C-0.08777659 20.95848461 -0.07522562 18.63552612 -0.0625 16.3125 C-0.05748396 14.73632952 -0.05292123 13.16015752 -0.04882812 11.58398438 C-0.0378098 7.72261902 -0.02055074 3.86132592 0 0 Z " fill="#5F7E91" transform="translate(529,130)"/>
<path d="M0 0 C20 0 20 0 26 5 C27.53297297 8.06594594 27.12131455 11.27111853 27.09765625 14.6328125 C27.0962413 15.38464813 27.09482635 16.13648376 27.09336853 16.91110229 C27.08776465 19.3157751 27.07521157 21.72035527 27.0625 24.125 C27.0574855 25.75390491 27.0529225 27.38281127 27.04882812 29.01171875 C27.03779397 33.00784827 27.02052679 37.00390842 27 41 C24.03 41 21.06 41 18 41 C17.67 30.11 17.34 19.22 17 8 C14.03 7.67 11.06 7.34 8 7 C8 18.22 8 29.44 8 41 C5.36 41 2.72 41 0 41 C0 27.47 0 13.94 0 0 Z " fill="#608093" transform="translate(626,130)"/>
<path d="M0 0 C20 0 20 0 25 4 C26.55977064 7.11954128 26.12104126 10.42959384 26.09765625 13.8515625 C26.0962413 14.62559418 26.09482635 15.39962585 26.09336853 16.19711304 C26.08776403 18.67311442 26.07521083 21.14902588 26.0625 23.625 C26.05748558 25.30208203 26.05292257 26.97916547 26.04882812 28.65625 C26.03779315 32.77086806 26.02052554 36.88541878 26 41 C23.36 41 20.72 41 18 41 C17.98018066 40.0713916 17.96036133 39.1427832 17.93994141 38.18603516 C17.86191387 34.7454948 17.77522538 31.30540109 17.68261719 27.86523438 C17.64430002 26.37541111 17.60945192 24.88549446 17.578125 23.39550781 C17.53253271 21.25551952 17.47453126 19.11617564 17.4140625 16.9765625 C17.36693115 15.04417725 17.36693115 15.04417725 17.31884766 13.07275391 C17.31541732 9.89518495 17.31541732 9.89518495 15 8 C12.69 7.67 10.38 7.34 8 7 C8 18.22 8 29.44 8 41 C5.36 41 2.72 41 0 41 C0 27.47 0 13.94 0 0 Z " fill="#618294" transform="translate(325,130)"/>
<path d="M0 0 C2.97 0 5.94 0 9 0 C9 4.29 9 8.58 9 13 C11.31 13 13.62 13 16 13 C16 15.31 16 17.62 16 20 C13.69 20 11.38 20 9 20 C9.33 28.25 9.66 36.5 10 45 C11.98 45.33 13.96 45.66 16 46 C16 48.64 16 51.28 16 54 C11.23238247 54.47676175 7.36767485 54.83824 3.5 51.6875 C-0.10459413 47.81256131 -0.12254385 45.12148832 -0.09765625 40.01953125 C-0.09443359 38.85615234 -0.09121094 37.69277344 -0.08789062 36.49414062 C-0.07951172 35.27919922 -0.07113281 34.06425781 -0.0625 32.8125 C-0.05798828 31.58595703 -0.05347656 30.35941406 -0.04882812 29.09570312 C-0.03703065 26.06375332 -0.02056921 23.03190094 0 20 C-1.65 20 -3.3 20 -5 20 C-5 17.69 -5 15.38 -5 13 C-3.35 13 -1.7 13 0 13 C0 8.71 0 4.42 0 0 Z " fill="#5D7C90" transform="translate(510,117)"/>
<path d="M0 0 C0.80179688 0.00451172 1.60359375 0.00902344 2.4296875 0.01367188 C4.41149006 0.02546832 6.39325433 0.04340395 8.375 0.0625 C8.375 2.3725 8.375 4.6825 8.375 7.0625 C1.94 7.5575 1.94 7.5575 -4.625 8.0625 C-4.625 10.0425 -4.625 12.0225 -4.625 14.0625 C-4.04492188 14.30484375 -3.46484375 14.5471875 -2.8671875 14.796875 C8.59332293 19.71392568 8.59332293 19.71392568 11.75 23.875 C13.11037221 28.63630273 12.94378187 31.98587717 10.625 36.375 C8.35780816 39.0830347 7.60969427 39.93350768 4.375 41.0625 C1.45324527 41.29828158 -1.44628583 41.25063977 -4.375 41.1875 C-5.16777344 41.17847656 -5.96054687 41.16945312 -6.77734375 41.16015625 C-8.72669281 41.13667012 -10.67588575 41.10080137 -12.625 41.0625 C-12.625 38.7525 -12.625 36.4425 -12.625 34.0625 C-11.62597656 34.00191406 -10.62695312 33.94132812 -9.59765625 33.87890625 C-8.30730469 33.79511719 -7.01695312 33.71132812 -5.6875 33.625 C-4.39972656 33.54378906 -3.11195313 33.46257812 -1.78515625 33.37890625 C1.23523957 33.41330812 1.23523957 33.41330812 2.375 32.0625 C2.41563832 30.39632885 2.417721 28.72861905 2.375 27.0625 C1.79492188 26.82015625 1.21484375 26.5778125 0.6171875 26.328125 C-11.36048078 21.18919141 -11.36048078 21.18919141 -14 16.75 C-15.18439733 11.65709148 -15.3309317 8.33317707 -12.75 3.6875 C-9.06972128 -0.85872666 -5.47060869 -0.05772558 0 0 Z " fill="#5F7F92" transform="translate(794.625,129.9375)"/>
<path d="M0 0 C0.80179688 0.00451172 1.60359375 0.00902344 2.4296875 0.01367188 C4.41149006 0.02546832 6.39325433 0.04340395 8.375 0.0625 C8.375 2.3725 8.375 4.6825 8.375 7.0625 C1.94 7.5575 1.94 7.5575 -4.625 8.0625 C-4.625 10.0425 -4.625 12.0225 -4.625 14.0625 C-4.04492188 14.30484375 -3.46484375 14.5471875 -2.8671875 14.796875 C8.59332293 19.71392568 8.59332293 19.71392568 11.75 23.875 C13.11037221 28.63630273 12.94378187 31.98587717 10.625 36.375 C8.35780816 39.0830347 7.60969427 39.93350768 4.375 41.0625 C1.45324527 41.29828158 -1.44628583 41.25063977 -4.375 41.1875 C-5.16777344 41.17847656 -5.96054687 41.16945312 -6.77734375 41.16015625 C-8.72669281 41.13667012 -10.67588575 41.10080137 -12.625 41.0625 C-12.625 38.7525 -12.625 36.4425 -12.625 34.0625 C-11.62597656 34.00191406 -10.62695312 33.94132812 -9.59765625 33.87890625 C-8.30730469 33.79511719 -7.01695312 33.71132812 -5.6875 33.625 C-4.39972656 33.54378906 -3.11195313 33.46257812 -1.78515625 33.37890625 C1.23523957 33.41330812 1.23523957 33.41330812 2.375 32.0625 C2.41563832 30.39632885 2.417721 28.72861905 2.375 27.0625 C1.79492188 26.82015625 1.21484375 26.5778125 0.6171875 26.328125 C-11.36048078 21.18919141 -11.36048078 21.18919141 -14 16.75 C-15.18439733 11.65709148 -15.3309317 8.33317707 -12.75 3.6875 C-9.06972128 -0.85872666 -5.47060869 -0.05772558 0 0 Z " fill="#5F7F92" transform="translate(693.625,129.9375)"/>
<path d="M0 0 C0.80179687 0.00451172 1.60359375 0.00902344 2.4296875 0.01367188 C4.41149006 0.02546832 6.39325433 0.04340395 8.375 0.0625 C8.375 2.3725 8.375 4.6825 8.375 7.0625 C1.94 7.5575 1.94 7.5575 -4.625 8.0625 C-4.625 10.0425 -4.625 12.0225 -4.625 14.0625 C-4.04492188 14.30484375 -3.46484375 14.5471875 -2.8671875 14.796875 C8.59332293 19.71392568 8.59332293 19.71392568 11.75 23.875 C13.11037221 28.63630273 12.94378187 31.98587717 10.625 36.375 C8.35780816 39.0830347 7.60969427 39.93350768 4.375 41.0625 C1.45324527 41.29828158 -1.44628583 41.25063977 -4.375 41.1875 C-5.16777344 41.17847656 -5.96054687 41.16945312 -6.77734375 41.16015625 C-8.72669281 41.13667012 -10.67588575 41.10080137 -12.625 41.0625 C-12.625 38.7525 -12.625 36.4425 -12.625 34.0625 C-11.62597656 34.00191406 -10.62695312 33.94132812 -9.59765625 33.87890625 C-8.30730469 33.79511719 -7.01695312 33.71132812 -5.6875 33.625 C-4.39972656 33.54378906 -3.11195313 33.46257812 -1.78515625 33.37890625 C1.23523957 33.41330812 1.23523957 33.41330812 2.375 32.0625 C2.41563832 30.39632885 2.417721 28.72861905 2.375 27.0625 C1.79492188 26.82015625 1.21484375 26.5778125 0.6171875 26.328125 C-11.36048078 21.18919141 -11.36048078 21.18919141 -14 16.75 C-15.18439733 11.65709148 -15.3309317 8.33317707 -12.75 3.6875 C-9.06972128 -0.85872666 -5.47060869 -0.05772558 0 0 Z " fill="#5F7F92" transform="translate(402.625,129.9375)"/>
<path d="M0 0 C0.75732422 0.00966797 1.51464844 0.01933594 2.29492188 0.02929688 C3.08060547 0.05443359 3.86628906 0.07957031 4.67578125 0.10546875 C5.87170898 0.12577148 5.87170898 0.12577148 7.09179688 0.14648438 C9.05758092 0.18179786 11.02301707 0.23560428 12.98828125 0.29296875 C12.98828125 2.60296875 12.98828125 4.91296875 12.98828125 7.29296875 C11.70630859 7.38384766 11.70630859 7.38384766 10.3984375 7.4765625 C9.29371094 7.56035156 8.18898438 7.64414063 7.05078125 7.73046875 C5.94863281 7.81167969 4.84648438 7.89289063 3.7109375 7.9765625 C1.07718222 7.99714959 1.07718222 7.99714959 -0.01171875 9.29296875 C-0.05235707 10.9591399 -0.05443975 12.6268497 -0.01171875 14.29296875 C0.57996094 14.54691406 1.17164063 14.80085937 1.78125 15.0625 C14.6024907 20.64695557 14.6024907 20.64695557 16.98828125 25.29296875 C17.39679445 29.58235732 17.46853799 32.15551858 15.80078125 36.10546875 C13.31931878 39.10033725 10.972799 41.05571843 6.98901367 41.53198242 C4.71073623 41.58766077 2.4534466 41.55492721 0.17578125 41.48046875 C-0.61248047 41.46693359 -1.40074219 41.45339844 -2.21289062 41.43945312 C-4.14613044 41.40430331 -6.07901557 41.35050236 -8.01171875 41.29296875 C-8.01171875 38.98296875 -8.01171875 36.67296875 -8.01171875 34.29296875 C-7.01269531 34.23238281 -6.01367188 34.17179687 -4.984375 34.109375 C-3.69402344 34.02558594 -2.40367187 33.94179687 -1.07421875 33.85546875 C0.21355469 33.77425781 1.50132812 33.69304687 2.828125 33.609375 C5.84852082 33.64377687 5.84852082 33.64377687 6.98828125 32.29296875 C7.02908908 30.29338511 7.03082481 28.29251621 6.98828125 26.29296875 C6.25222656 26.06222656 5.51617188 25.83148438 4.7578125 25.59375 C-5.83891422 22.05217555 -5.83891422 22.05217555 -9.01171875 17.29296875 C-10.25743358 12.96450391 -10.573886 9.58595342 -8.76171875 5.41796875 C-4.22144519 -0.09522057 -4.22144519 -0.09522057 0 0 Z " fill="#5F7F92" transform="translate(820.01171875,129.70703125)"/>
<path d="M0 0 C2.97 0 5.94 0 9 0 C9 4.29 9 8.58 9 13 C11.31 13 13.62 13 16 13 C16 15.31 16 17.62 16 20 C13.69 20 11.38 20 9 20 C9.33 28.25 9.66 36.5 10 45 C11.98 45.66 13.96 46.32 16 47 C16 49.31 16 51.62 16 54 C8.0470297 54.62376238 8.0470297 54.62376238 4.0625 52.25 C0.37221726 48.22423701 -0.2486498 45.36227933 -0.1953125 39.921875 C-0.18886719 38.76171875 -0.18242188 37.6015625 -0.17578125 36.40625 C-0.15902344 35.1996875 -0.14226563 33.993125 -0.125 32.75 C-0.11597656 31.52796875 -0.10695313 30.3059375 -0.09765625 29.046875 C-0.07409513 26.03105218 -0.04119706 23.01562508 0 20 C-1.32 20 -2.64 20 -4 20 C-4 17.36 -4 14.72 -4 12 C-2.68 12 -1.36 12 0 12 C0 8.04 0 4.08 0 0 Z " fill="#5E7E91" transform="translate(950,117)"/>
<path d="M0 0 C2.64 0 5.28 0 8 0 C8 4.29 8 8.58 8 13 C10.31 13 12.62 13 15 13 C15 15.31 15 17.62 15 20 C12.69 20 10.38 20 8 20 C8.10950024 23.9589232 8.24021668 27.91686326 8.375 31.875 C8.4059375 33.00292969 8.436875 34.13085938 8.46875 35.29296875 C8.50742187 36.36933594 8.54609375 37.44570312 8.5859375 38.5546875 C8.6173584 39.54968262 8.6487793 40.54467773 8.68115234 41.56982422 C8.77247083 44.17854517 8.77247083 44.17854517 11 46 C13.06874034 46.6425235 13.06874034 46.6425235 15 47 C15 49.31 15 51.62 15 54 C9.77825222 54.31330487 6.42308959 53.88015136 2 51 C-0.27211898 47.62685843 -0.2330246 44.70060723 -0.1953125 40.703125 C-0.18564453 38.89521484 -0.18564453 38.89521484 -0.17578125 37.05078125 C-0.15902344 35.79652344 -0.14226563 34.54226562 -0.125 33.25 C-0.11597656 31.98027344 -0.10695313 30.71054688 -0.09765625 29.40234375 C-0.07409005 26.26803907 -0.04118832 23.13411459 0 20 C-1.65 20 -3.3 20 -5 20 C-5 17.69 -5 15.38 -5 13 C-3.35 13 -1.7 13 0 13 C0 8.71 0 4.42 0 0 Z " fill="#618194" transform="translate(661,117)"/>
<path d="M0 0 C3.15954305 2.54137159 4.71540886 4.14622659 6 8 C6.1484944 10.61864161 6.2310027 13.1932477 6.25 15.8125 C6.270625 16.51181641 6.29125 17.21113281 6.3125 17.93164062 C6.34841321 22.73054328 5.51085525 25.92290737 3 30 C0.63031893 32.36968107 -0.12013801 32.37023806 -3.375 32.5 C-5.8046875 32.45703125 -5.8046875 32.45703125 -8 32 C-13.30616266 26.03056701 -13.33259211 20.19429659 -13.29296875 12.5390625 C-12.89436333 7.72390904 -11.66361901 4.99542852 -9 1 C-5.86128812 -0.56935594 -3.46144178 -0.35201103 0 0 Z " fill="#A5B8C1" transform="translate(828,204)"/>
<path d="M0 0 C3.15954305 2.54137159 4.71540886 4.14622659 6 8 C6.1484944 10.61864161 6.2310027 13.1932477 6.25 15.8125 C6.270625 16.51181641 6.29125 17.21113281 6.3125 17.93164062 C6.34841321 22.73054328 5.51085525 25.92290737 3 30 C0.63031893 32.36968107 -0.12013801 32.37023806 -3.375 32.5 C-5.8046875 32.45703125 -5.8046875 32.45703125 -8 32 C-13.30616266 26.03056701 -13.33259211 20.19429659 -13.29296875 12.5390625 C-12.89436333 7.72390904 -11.66361901 4.99542852 -9 1 C-5.86128812 -0.56935594 -3.46144178 -0.35201103 0 0 Z " fill="#A5B8C1" transform="translate(731,204)"/>
<path d="M0 0 C1.28132812 0.00902344 2.56265625 0.01804688 3.8828125 0.02734375 C4.87023437 0.03894531 5.85765625 0.05054688 6.875 0.0625 C6.875 2.3725 6.875 4.6825 6.875 7.0625 C6.18792969 7.09988281 5.50085938 7.13726562 4.79296875 7.17578125 C3.44138672 7.27439453 3.44138672 7.27439453 2.0625 7.375 C1.16917969 7.43300781 0.27585937 7.49101562 -0.64453125 7.55078125 C-3.46895234 8.1334571 -4.37238613 8.82335609 -6.125 11.0625 C-7.58730215 13.98710429 -7.33408727 16.61902824 -7.375 19.875 C-7.40078125 21.09832031 -7.4265625 22.32164062 -7.453125 23.58203125 C-7.10373546 27.28805603 -6.36069119 29.12679871 -4.125 32.0625 C-1.82870006 33.21064997 -0.04801914 33.37019809 2.5 33.625 C3.31726563 33.70878906 4.13453125 33.79257813 4.9765625 33.87890625 C5.91628906 33.96978516 5.91628906 33.96978516 6.875 34.0625 C6.875 36.3725 6.875 38.6825 6.875 41.0625 C4.81316367 41.14400744 2.75038651 41.2019194 0.6875 41.25 C-1.03533203 41.30220703 -1.03533203 41.30220703 -2.79296875 41.35546875 C-7.60711696 40.93218491 -10.08880729 39.18750922 -13.3125 35.6875 C-18.01504543 28.87691696 -17.70699387 22.10129029 -17.125 14.0625 C-16.01254929 8.46548235 -13.4866974 4.75316703 -9.125 1.0625 C-6.12186252 -0.43906874 -3.33432478 -0.03031204 0 0 Z " fill="#5F7F92" transform="translate(890.125,129.9375)"/>
<path d="M0 0 C1.98 0 3.96 0 6 0 C6 4.62 6 9.24 6 14 C8.64 14 11.28 14 14 14 C14 9.38 14 4.76 14 0 C15.98 0 17.96 0 20 0 C20 10.56 20 21.12 20 32 C18.02 32 16.04 32 14 32 C14 27.71 14 23.42 14 19 C11.36 19 8.72 19 6 19 C6 23.29 6 27.58 6 32 C4.02 32 2.04 32 0 32 C0 21.44 0 10.88 0 0 Z " fill="#9FB1BB" transform="translate(887,204)"/>
<path d="M0 0 C0.33 0 0.66 0 1 0 C0.5762699 10.30102482 -0.73181789 19.94296611 -3 30 C-3.33 30 -3.66 30 -4 30 C-4 26.7 -4 23.4 -4 20 C-7.11686325 21.55843162 -7.80567564 24.70029749 -9.1875 27.75 C-11.92512743 33.55779564 -14.37132998 36.84794479 -20 40 C-20.33 40.66 -20.66 41.32 -21 42 C-22.65 42 -24.3 42 -26 42 C-26.33 41.34 -26.66 40.68 -27 40 C-27.66 39.835 -28.32 39.67 -29 39.5 C-29.66 39.335 -30.32 39.17 -31 39 C-32.4783226 36.04335481 -32.06032783 33.25770263 -32 30 C-31.67 30.66 -31.34 31.32 -31 32 C-17.64838535 25.01170808 -8.57318724 14.24614034 -0.98046875 1.46875 C-0.65691406 0.9840625 -0.33335938 0.499375 0 0 Z " fill="#ECDFCD" transform="translate(120,205)"/>
<path d="M0 0 C2.64 0 5.28 0 8 0 C8 6.6 8 13.2 8 20 C8.66 20 9.32 20 10 20 C10 21.65 10 23.3 10 25 C9.34 25 8.68 25 8 25 C8 27.31 8 29.62 8 32 C6.02 32 4.04 32 2 32 C2 29.69 2 27.38 2 25 C-1.96 25 -5.92 25 -10 25 C-10 18.25 -10 18.25 -7.8125 14.2578125 C-7.36132812 13.41992188 -6.91015625 12.58203125 -6.4453125 11.71875 C-5.96835937 10.8628125 -5.49140625 10.006875 -5 9.125 C-4.52304687 8.24585938 -4.04609375 7.36671875 -3.5546875 6.4609375 C-2.38078576 4.3009583 -1.19576677 2.14792786 0 0 Z " fill="#A1B4BD" transform="translate(769,204)"/>
<path d="M0 0 C1.98 0 3.96 0 6 0 C6 4.62 6 9.24 6 14 C7.32 14 8.64 14 10 14 C10.20496094 13.15695313 10.40992188 12.31390625 10.62109375 11.4453125 C10.89050781 10.34960938 11.15992188 9.25390625 11.4375 8.125 C11.70433594 7.03445312 11.97117187 5.94390625 12.24609375 4.8203125 C13 2 13 2 14 0 C15.98 0 17.96 0 20 0 C19.79503906 0.6290625 19.59007812 1.258125 19.37890625 1.90625 C16.24052646 11.8769877 15.3914162 17.55667389 19.08984375 27.4609375 C20 30 20 30 20 32 C18.02 32 16.04 32 14 32 C13.75765625 31.14535156 13.5153125 30.29070312 13.265625 29.41015625 C12.93046875 28.30542969 12.5953125 27.20070312 12.25 26.0625 C11.76273438 24.40927734 11.76273438 24.40927734 11.265625 22.72265625 C10.84796875 21.82417969 10.4303125 20.92570312 10 20 C8.68 19.67 7.36 19.34 6 19 C6 23.29 6 27.58 6 32 C4.02 32 2.04 32 0 32 C0 21.44 0 10.88 0 0 Z " fill="#A2B5BE" transform="translate(909,204)"/>
<path d="M0 0 C1.98 0 3.96 0 6 0 C6.33 8.58 6.66 17.16 7 26 C9.31 26.33 11.62 26.66 14 27 C14 18.09 14 9.18 14 0 C15.65 0 17.3 0 19 0 C19 10.56 19 21.12 19 32 C5 32 5 32 1.64453125 30.36328125 C-1.06653315 24.81880038 -0.51662247 19.25778809 -0.3125 13.1875 C-0.28994141 11.92228516 -0.26738281 10.65707031 -0.24414062 9.35351562 C-0.18529078 6.23447381 -0.1031137 3.11784098 0 0 Z " fill="#A6B9C1" transform="translate(931,204)"/>
<path d="M0 0 C2.97 0 5.94 0 9 0 C9 13.53 9 27.06 9 41 C6.03 41 3.06 41 0 41 C0 27.47 0 13.94 0 0 Z " fill="#5C7B8F" transform="translate(901,130)"/>
<path d="M0 0 C1.65 0 3.3 0 5 0 C5.02505615 0.74685059 5.0501123 1.49370117 5.07592773 2.26318359 C5.19168213 5.63397267 5.31450128 9.00446783 5.4375 12.375 C5.47681641 13.550625 5.51613281 14.72625 5.55664062 15.9375 C5.59853516 17.05898437 5.64042969 18.18046875 5.68359375 19.3359375 C5.72025146 20.37282715 5.75690918 21.4097168 5.79467773 22.47802734 C5.84164223 24.99425166 5.84164223 24.99425166 7 27 C9.31 27.33 11.62 27.66 14 28 C14 18.76 14 9.52 14 0 C15.65 0 17.3 0 19 0 C19 10.56 19 21.12 19 32 C14.05 32 9.1 32 4 32 C-0.5 26.375 -0.5 26.375 -0.390625 20.60546875 C-0.37773438 19.40341797 -0.36484375 18.20136719 -0.3515625 16.96289062 C-0.31804687 15.71701172 -0.28453125 14.47113281 -0.25 13.1875 C-0.23195313 11.92228516 -0.21390625 10.65707031 -0.1953125 9.35351562 C-0.14823916 6.23490665 -0.08249094 3.11784027 0 0 Z " fill="#AEC3C9" transform="translate(1025,204)"/>
<path d="M0 0 C5.94 0 11.88 0 18 0 C18 1.65 18 3.3 18 5 C14.04 5 10.08 5 6 5 C6 6.98 6 8.96 6 11 C6.60328125 11.00257813 7.2065625 11.00515625 7.828125 11.0078125 C14.33897622 11.32285369 14.33897622 11.32285369 17.5625 14.625 C19.22433261 18.52669396 19.59977337 20.80158642 19 25 C15.94736842 30.68421053 15.94736842 30.68421053 12 32 C9.93854893 32.068991 7.87498599 32.08467727 5.8125 32.0625 C4.18248047 32.04896484 4.18248047 32.04896484 2.51953125 32.03515625 C1.68808594 32.02355469 0.85664062 32.01195312 0 32 C0 30.35 0 28.7 0 27 C0.78246094 26.93941406 1.56492187 26.87882812 2.37109375 26.81640625 C3.38300781 26.73261719 4.39492188 26.64882812 5.4375 26.5625 C6.44683594 26.48128906 7.45617187 26.40007812 8.49609375 26.31640625 C10.93640779 26.26788532 10.93640779 26.26788532 12 25 C12.16666667 21.5 12.16666667 21.5 12 18 C10.26043342 16.26043342 7.8063378 16.62809614 5.4375 16.4375 C3.643125 16.293125 1.84875 16.14875 0 16 C0 10.72 0 5.44 0 0 Z " fill="#A1B3BD" transform="translate(856,204)"/>
<path d="M0 0 C2.64 0 5.28 0 8 0 C8 13.53 8 27.06 8 41 C5.36 41 2.72 41 0 41 C0 27.47 0 13.94 0 0 Z " fill="#628395" transform="translate(970,130)"/>
<path d="M0 0 C2.64 0 5.28 0 8 0 C8 13.53 8 27.06 8 41 C5.36 41 2.72 41 0 41 C0 27.47 0 13.94 0 0 Z " fill="#628395" transform="translate(232,130)"/>
<path d="M0 0 C3.5 0.6875 3.5 0.6875 5.6953125 2.8203125 C7.86037784 6.26004835 7.97774487 8.21959896 7.875 12.25 C7.86210938 13.36503906 7.84921875 14.48007813 7.8359375 15.62890625 C7.51629485 18.53914105 7.10541703 20.26798852 5.5 22.6875 C2.45016004 24.21241998 -0.1423369 23.92312548 -3.5 23.6875 C-6.11593153 21.85634793 -6.46989455 20.77781634 -7.5 17.6875 C-7.97643726 12.71224536 -8.45105531 7.49002615 -5.9375 3 C-3.5 0.6875 -3.5 0.6875 0 0 Z " fill="#A5B8C1" transform="translate(660.5,212.3125)"/>
<path d="M0 0 C1.07765625 0.03609375 2.1553125 0.0721875 3.265625 0.109375 C4.49539063 0.17898437 4.49539063 0.17898437 5.75 0.25 C5.75 1.9 5.75 3.55 5.75 5.25 C2.45 5.58 -0.85 5.91 -4.25 6.25 C-4.25 7.9 -4.25 9.55 -4.25 11.25 C-2.13326554 13.09655792 -2.13326554 13.09655792 0.625 14.4375 C5.65092879 17.15092879 5.65092879 17.15092879 7.75 19.25 C8.0859375 21.2734375 8.0859375 21.2734375 8.125 23.625 C8.15335938 24.39585937 8.18171875 25.16671875 8.2109375 25.9609375 C7.55274569 29.22958498 6.45764834 30.32591549 3.75 32.25 C0.296875 32.640625 0.296875 32.640625 -3.5 32.5 C-4.76328125 32.46390625 -6.0265625 32.4278125 -7.328125 32.390625 C-8.29234375 32.34421875 -9.2565625 32.2978125 -10.25 32.25 C-10.25 30.6 -10.25 28.95 -10.25 27.25 C-6.29 26.92 -2.33 26.59 1.75 26.25 C1.75 24.6 1.75 22.95 1.75 21.25 C0.82767578 20.76080078 0.82767578 20.76080078 -0.11328125 20.26171875 C-1.32564453 19.60623047 -1.32564453 19.60623047 -2.5625 18.9375 C-3.36300781 18.50824219 -4.16351562 18.07898438 -4.98828125 17.63671875 C-7.15632032 16.30743746 -8.70484935 15.26456351 -10.25 13.25 C-10.68359375 11.12890625 -10.68359375 11.12890625 -10.6875 8.8125 C-10.70683594 8.05066406 -10.72617187 7.28882813 -10.74609375 6.50390625 C-9.43997387 0.56980252 -5.46794111 -0.23773657 0 0 Z " fill="#A5B8C0" transform="translate(1014.25,203.75)"/>
<path d="M0 0 C0 1.65 0 3.3 0 5 C-3.3 5.33 -6.6 5.66 -10 6 C-10.33 7.65 -10.66 9.3 -11 11 C-10.31292969 11.39832031 -9.62585938 11.79664063 -8.91796875 12.20703125 C-8.01691406 12.73683594 -7.11585938 13.26664063 -6.1875 13.8125 C-4.84751953 14.59560547 -4.84751953 14.59560547 -3.48046875 15.39453125 C-1.29618482 16.80829612 0.38287432 17.97466784 2 20 C2.61493392 24.15080398 2.41144077 26.28378829 0.3125 29.9375 C-4.85163771 33.1529065 -10.07248658 32.39053895 -16 32 C-16 30.35 -16 28.7 -16 27 C-12.37 26.67 -8.74 26.34 -5 26 C-3.91915479 22.36380344 -3.91915479 22.36380344 -4 20 C-4.86625 19.7525 -5.7325 19.505 -6.625 19.25 C-10.67969543 17.74826095 -14.9892331 16.0215338 -17 12 C-17.68016194 4.97165992 -17.68016194 4.97165992 -15.25 1.5 C-10.27152376 -0.79775826 -5.39530594 -0.30977833 0 0 Z " fill="#A6B9C1" transform="translate(970,204)"/>
<path d="M0 0 C1.07765625 0.03609375 2.1553125 0.0721875 3.265625 0.109375 C4.49539063 0.17898437 4.49539063 0.17898437 5.75 0.25 C5.75 1.9 5.75 3.55 5.75 5.25 C2.45 5.58 -0.85 5.91 -4.25 6.25 C-4.25 7.9 -4.25 9.55 -4.25 11.25 C-2.13326554 13.09655792 -2.13326554 13.09655792 0.625 14.4375 C5.65092879 17.15092879 5.65092879 17.15092879 7.75 19.25 C8.0859375 21.2734375 8.0859375 21.2734375 8.125 23.625 C8.15335938 24.39585937 8.18171875 25.16671875 8.2109375 25.9609375 C7.55274569 29.22958498 6.45764834 30.32591549 3.75 32.25 C0.296875 32.640625 0.296875 32.640625 -3.5 32.5 C-4.76328125 32.46390625 -6.0265625 32.4278125 -7.328125 32.390625 C-8.29234375 32.34421875 -9.2565625 32.2978125 -10.25 32.25 C-10.25 30.6 -10.25 28.95 -10.25 27.25 C-6.29 26.92 -2.33 26.59 1.75 26.25 C1.75 24.6 1.75 22.95 1.75 21.25 C0.82767578 20.76080078 0.82767578 20.76080078 -0.11328125 20.26171875 C-1.32564453 19.60623047 -1.32564453 19.60623047 -2.5625 18.9375 C-3.36300781 18.50824219 -4.16351562 18.07898438 -4.98828125 17.63671875 C-7.15632032 16.30743746 -8.70484935 15.26456351 -10.25 13.25 C-10.68359375 11.12890625 -10.68359375 11.12890625 -10.6875 8.8125 C-10.70683594 8.05066406 -10.72617187 7.28882813 -10.74609375 6.50390625 C-9.43997387 0.56980252 -5.46794111 -0.23773657 0 0 Z " fill="#A5B8C0" transform="translate(584.25,203.75)"/>
<path d="M0 0 C9.7003861 -0.61158301 9.7003861 -0.61158301 14.1875 1.5 C16.2660051 4.36690359 16.71862786 6.49830606 16.48828125 10.0390625 C15.40181489 14.40231141 11.84136823 16.43256561 8.3125 18.8125 C6 20 6 20 4 20 C4.33 21.98 4.66 23.96 5 26 C8.3 26.33 11.6 26.66 15 27 C15 28.65 15 30.3 15 32 C12.91846065 32.13536022 10.83438794 32.23215465 8.75 32.3125 C7.58984375 32.37050781 6.4296875 32.42851562 5.234375 32.48828125 C2 32 2 32 -0.38671875 29.6640625 C-2.39200759 26.35266543 -2.69977465 24.80988418 -2 21 C1.28514232 16.02251164 4.73030384 13.68651177 10 11 C9.67 9.35 9.34 7.7 9 6 C6.03 5.67 3.06 5.34 0 5 C0 3.35 0 1.7 0 0 Z " fill="#A5B8C0" transform="translate(797,204)"/>
<path d="M0 0 C9.7003861 -0.61158301 9.7003861 -0.61158301 14.1875 1.5 C16.2660051 4.36690359 16.71862786 6.49830606 16.48828125 10.0390625 C15.40181489 14.40231141 11.84136823 16.43256561 8.3125 18.8125 C6 20 6 20 4 20 C4.33 21.98 4.66 23.96 5 26 C8.3 26.33 11.6 26.66 15 27 C15 28.65 15 30.3 15 32 C12.91846065 32.13536022 10.83438794 32.23215465 8.75 32.3125 C7.58984375 32.37050781 6.4296875 32.42851562 5.234375 32.48828125 C2 32 2 32 -0.38671875 29.6640625 C-2.39200759 26.35266543 -2.69977465 24.80988418 -2 21 C1.28514232 16.02251164 4.73030384 13.68651177 10 11 C9.67 9.35 9.34 7.7 9 6 C6.03 5.67 3.06 5.34 0 5 C0 3.35 0 1.7 0 0 Z " fill="#A5B8C0" transform="translate(741,204)"/>
<path d="M0 0 C9.7003861 -0.61158301 9.7003861 -0.61158301 14.1875 1.5 C16.2660051 4.36690359 16.71862786 6.49830606 16.48828125 10.0390625 C15.40181489 14.40231141 11.84136823 16.43256561 8.3125 18.8125 C6 20 6 20 4 20 C4.33 21.98 4.66 23.96 5 26 C8.3 26.33 11.6 26.66 15 27 C15 28.65 15 30.3 15 32 C12.91846065 32.13536022 10.83438794 32.23215465 8.75 32.3125 C7.58984375 32.37050781 6.4296875 32.42851562 5.234375 32.48828125 C2 32 2 32 -0.38671875 29.6640625 C-2.39200759 26.35266543 -2.69977465 24.80988418 -2 21 C1.28514232 16.02251164 4.73030384 13.68651177 10 11 C9.67 9.35 9.34 7.7 9 6 C6.03 5.67 3.06 5.34 0 5 C0 3.35 0 1.7 0 0 Z " fill="#A5B8C0" transform="translate(700,204)"/>
<path d="M0 0 C9.7003861 -0.61158301 9.7003861 -0.61158301 14.1875 1.5 C16.27741461 4.38264084 16.66445749 6.49131344 16.4140625 10.04296875 C15.58929859 13.94114534 13.43659072 16.06175552 10.17578125 18.19140625 C8.4793937 19.17895844 6.74206913 20.0954641 5 21 C5 22.65 5 24.3 5 26 C8.63 26.33 12.26 26.66 16 27 C16 28.65 16 30.3 16 32 C13.91731407 32.08126087 11.83371342 32.13930839 9.75 32.1875 C8.00976562 32.23970703 8.00976562 32.23970703 6.234375 32.29296875 C2.71739462 31.97440169 1.34790162 31.61509623 -1 29 C-1.82090495 25.60881333 -1.64764541 22.41844141 -1 19 C1.125 16.625 1.125 16.625 4 15 C5.10901766 14.25719192 6.21325711 13.50719819 7.3125 12.75 C8.199375 12.1725 9.08625 11.595 10 11 C9.67 9.35 9.34 7.7 9 6 C6.03 5.67 3.06 5.34 0 5 C0 3.35 0 1.7 0 0 Z " fill="#A4B7C0" transform="translate(838,204)"/>
<path d="M0 0 C3.03116459 1.28594862 3.64924914 2.9297377 5.0625 5.875 C5.93165679 13.56107282 6.0355866 21.08764373 2.0625 27.875 C-0.3125 28 -0.3125 28 -2.9375 27.875 C-6.89031405 23.92218595 -6.12049805 18.67830121 -6.125 13.375 C-6.13724609 12.61574219 -6.14949219 11.85648438 -6.16210938 11.07421875 C-6.18079686 3.96051708 -6.18079686 3.96051708 -3.9375 0.875 C-1.9375 -0.125 -1.9375 -0.125 0 0 Z " fill="#0D073A" transform="translate(854.9375,136.125)"/>
<path d="M0 0 C3.63326668 0.60554445 4.74144325 1.6558915 7 4.5 C8.60725635 7.71451269 8.05748185 10.93612536 8 14.5 C4.7 14.5 1.4 14.5 -2 14.5 C-1.34 15.82 -0.68 17.14 0 18.5 C3.05908413 19.31584568 3.05908413 19.31584568 6 19.5 C6 20.82 6 22.14 6 23.5 C-1.36196319 23.99079755 -1.36196319 23.99079755 -4.4375 21.625 C-7.10449248 17.99789022 -7.21660671 15.61684378 -7.3125 11.125 C-7.34988281 9.98289063 -7.38726563 8.84078125 -7.42578125 7.6640625 C-7 4.5 -7 4.5 -5.16796875 2.1171875 C-3 0.5 -3 0.5 0 0 Z " fill="#A7BAC2" transform="translate(602,212.5)"/>
<path d="M0 0 C2.4375 0.25 2.4375 0.25 5 1 C7.09918329 4.14877493 7.25543871 4.929765 7.265625 8.52734375 C7.26820313 9.40197266 7.27078125 10.27660156 7.2734375 11.17773438 C7.26570312 12.08845703 7.25796875 12.99917969 7.25 13.9375 C7.25773438 14.84435547 7.26546875 15.75121094 7.2734375 16.68554688 C7.27085937 17.56146484 7.26828125 18.43738281 7.265625 19.33984375 C7.26336914 20.13769287 7.26111328 20.93554199 7.25878906 21.75756836 C6.9743487 24.22227096 6.23000569 25.86275824 5 28 C2.6875 28.25 2.6875 28.25 0 28 C-2.01877029 26.21563669 -2.89637389 24.74501817 -3.26928711 22.06396484 C-3.36857304 19.72288 -3.35954078 17.40513082 -3.3125 15.0625 C-3.31572266 14.26392578 -3.31894531 13.46535156 -3.32226562 12.64257812 C-3.23654369 3.23654369 -3.23654369 3.23654369 0 0 Z " fill="#0B0538" transform="translate(995,136)"/>
<path d="M0 0 C11 0 11 0 13.671875 1.390625 C15.73696862 5.44792658 15.42194463 9.27282635 15.25 13.75 C15.23195313 14.63816406 15.21390625 15.52632812 15.1953125 16.44140625 C15.14827374 18.62870848 15.08257009 20.81379816 15 23 C13.35 23 11.7 23 10 23 C10 17.06 10 11.12 10 5 C8.35 5 6.7 5 5 5 C5 10.94 5 16.88 5 23 C3.35 23 1.7 23 0 23 C0 15.41 0 7.82 0 0 Z " fill="#A5B8C0" transform="translate(671,213)"/>
<path d="M0 0 C6.27 0 12.54 0 19 0 C19 1.65 19 3.3 19 5 C16.69 5 14.38 5 12 5 C12 13.91 12 22.82 12 32 C10.35 32 8.7 32 7 32 C7 23.09 7 14.18 7 5 C4.69 5 2.38 5 0 5 C0 3.35 0 1.7 0 0 Z " fill="#A9BDC4" transform="translate(973,204)"/>
<path d="M0 0 C1.65 0 3.3 0 5 0 C5 8.58 5 17.16 5 26 C-1 26 -1 26 -2.8125 24.25 C-5.63804776 18.89633056 -5.65060118 12.92389492 -5 7 C-3.80431102 4.19556585 -2.16525241 2.16525241 0 0 Z " fill="#0C0639" transform="translate(574,137)"/>
<path d="M0 0 C3.3 0 6.6 0 10 0 C10.13492038 3.41798296 10.23407458 6.83065162 10.3125 10.25 C10.3753418 11.70212891 10.3753418 11.70212891 10.43945312 13.18359375 C10.5630676 20.35323316 10.5630676 20.35323316 7.6875 23.65625 C4.55833583 25.22083209 2.45495846 25.32139149 -1 25 C-1 22.69 -1 20.38 -1 18 C0.32 18 1.64 18 3 18 C3 15.69 3 13.38 3 11 C2.01 11 1.02 11 0 11 C0 7.37 0 3.74 0 0 Z " fill="#5D7C90" transform="translate(710,113)"/>
<path d="M0 0 C0.4125 0.37511719 0.825 0.75023437 1.25 1.13671875 C6.89372632 6.13796729 12.80225048 10.5257736 20 13 C19.01 13.33 18.02 13.66 17 14 C17.12375 15.299375 17.12375 15.299375 17.25 16.625 C16.93155851 20.92396017 15.92747518 22.84733442 13 26 C9.3125 26.4375 9.3125 26.4375 6 26 C3.69208781 23.69208781 4.54006023 18.1275504 4.37890625 15.00390625 C4.29782447 11.88912046 4.29782447 11.88912046 2 10 C1.3671875 7.6171875 1.3671875 7.6171875 0.875 4.875 C0.70742188 3.96492188 0.53984375 3.05484375 0.3671875 2.1171875 C0.24601562 1.41851562 0.12484375 0.71984375 0 0 Z " fill="#606C8A" transform="translate(55,258)"/>
<path d="M0 0 C0 1.65 0 3.3 0 5 C-2.64 5 -5.28 5 -8 5 C-6.88949074 8.22047686 -6.07599671 8.95883511 -3 10.625 C-2.01 11.07875 -1.02 11.5325 0 12 C0.66 12.66 1.32 13.32 2 14 C1.8125 17.5 1.8125 17.5 1 21 C-2.31371 23.20914 -3.3446021 23.22481553 -7.1875 23.125 C-8.08855469 23.10695312 -8.98960937 23.08890625 -9.91796875 23.0703125 C-10.60503906 23.04710937 -11.29210937 23.02390625 -12 23 C-12 21.68 -12 20.36 -12 19 C-8.04 18.505 -8.04 18.505 -4 18 C-4 17.01 -4 16.02 -4 15 C-4.56589844 14.79246094 -5.13179687 14.58492187 -5.71484375 14.37109375 C-8.00704787 13.40828745 -9.97924917 12.45307659 -12 11 C-13.25 7.5 -13.25 7.5 -13 4 C-10.0454462 -1.2376181 -5.33475708 -0.41036593 0 0 Z " fill="#A2B4BD" transform="translate(625,213)"/>
<path d="M0 0 C1.21236328 0.04060547 1.21236328 0.04060547 2.44921875 0.08203125 C3.06410156 0.11683594 3.67898438 0.15164062 4.3125 0.1875 C4.3125 1.5075 4.3125 2.8275 4.3125 4.1875 C2.0025 4.5175 -0.3075 4.8475 -2.6875 5.1875 C-2.73039755 7.11859581 -2.73039755 7.11859581 -1.6875 9.1875 C1.767317 10.91818271 1.767317 10.91818271 5.3125 12.1875 C6.3125 13.1875 6.3125 13.1875 6.5625 16.5625 C6.3125 20.1875 6.3125 20.1875 5.12109375 21.90234375 C2.68443991 23.63378892 1.08227715 23.49021859 -1.875 23.375 C-3.22658203 23.33439453 -3.22658203 23.33439453 -4.60546875 23.29296875 C-5.29253906 23.25816406 -5.97960937 23.22335938 -6.6875 23.1875 C-6.6875 21.8675 -6.6875 20.5475 -6.6875 19.1875 C-4.0475 19.1875 -1.4075 19.1875 1.3125 19.1875 C0.67328035 16.71122901 0.67328035 16.71122901 -0.6875 14.1875 C-3.14454762 12.95459799 -3.14454762 12.95459799 -5.6875 12.1875 C-7.6875 10.1875 -7.6875 10.1875 -8 6.75 C-7.6875 3.1875 -7.6875 3.1875 -6.4609375 1.4765625 C-4.16445154 -0.19268941 -2.80776158 -0.12207659 0 0 Z " fill="#A8BCC3" transform="translate(636.6875,212.8125)"/>
<path d="M0 0 C1.875 0.1875 1.875 0.1875 4 1 C5.90962111 4.71908726 6.27115715 7.85319836 6.25 12 C6.25515625 13.010625 6.2603125 14.02125 6.265625 15.0625 C5.99040082 18.10615561 5.39315539 20.28675681 4 23 C1.875 23.8125 1.875 23.8125 0 24 C-2.0331579 20.95026315 -2.2548508 20.31043132 -2.265625 16.875 C-2.26820313 16.08609375 -2.27078125 15.2971875 -2.2734375 14.484375 C-2.26570312 13.66453125 -2.25796875 12.8446875 -2.25 12 C-2.25773438 11.18015625 -2.26546875 10.3603125 -2.2734375 9.515625 C-2.27085937 8.72671875 -2.26828125 7.9378125 -2.265625 7.125 C-2.26336914 6.40570313 -2.26111328 5.68640625 -2.25878906 4.9453125 C-2 3 -2 3 0 0 Z " fill="#120D3E" transform="translate(823,208)"/>
<path d="M0 0 C1.875 0.1875 1.875 0.1875 4 1 C5.90962111 4.71908726 6.27115715 7.85319836 6.25 12 C6.25515625 13.010625 6.2603125 14.02125 6.265625 15.0625 C5.99040082 18.10615561 5.39315539 20.28675681 4 23 C1.875 23.8125 1.875 23.8125 0 24 C-2.0331579 20.95026315 -2.2548508 20.31043132 -2.265625 16.875 C-2.26820313 16.08609375 -2.27078125 15.2971875 -2.2734375 14.484375 C-2.26570312 13.66453125 -2.25796875 12.8446875 -2.25 12 C-2.25773438 11.18015625 -2.26546875 10.3603125 -2.2734375 9.515625 C-2.27085937 8.72671875 -2.26828125 7.9378125 -2.265625 7.125 C-2.26336914 6.40570313 -2.26111328 5.68640625 -2.25878906 4.9453125 C-2 3 -2 3 0 0 Z " fill="#120D3E" transform="translate(726,208)"/>
<path d="M0 0 C0.33 0 0.66 0 1 0 C0.5762699 10.30102482 -0.73181789 19.94296611 -3 30 C-3.33 30 -3.66 30 -4 30 C-4 26.7 -4 23.4 -4 20 C-4.99 20.33 -5.98 20.66 -7 21 C-7.33 20.01 -7.66 19.02 -8 18 C-8.66 17.67 -9.32 17.34 -10 17 C-10 17.99 -10 18.98 -10 20 C-13 22.1875 -13 22.1875 -16 24 C-16.66 23.67 -17.32 23.34 -18 23 C-17.56429687 22.5875 -17.12859375 22.175 -16.6796875 21.75 C-10.3731382 15.63455825 -5.46144782 9.00955621 -0.98046875 1.46875 C-0.65691406 0.9840625 -0.33335938 0.499375 0 0 Z " fill="#E9DFD0" transform="translate(120,205)"/>
<path d="M0 0 C0.4125 0.37511719 0.825 0.75023437 1.25 1.13671875 C6.89372632 6.13796729 12.80225048 10.5257736 20 13 C19.01 13.33 18.02 13.66 17 14 C17 15.98 17 17.96 17 20 C16.67 20 16.34 20 16 20 C16 18.35 16 16.7 16 15 C12.7 14.34 9.4 13.68 6 13 C6 16.96 6 20.92 6 25 C5.67 25 5.34 25 5 25 C4.95101562 24.08476562 4.90203125 23.16953125 4.8515625 22.2265625 C4.77679688 21.03804688 4.70203125 19.84953125 4.625 18.625 C4.55539063 17.44164062 4.48578125 16.25828125 4.4140625 15.0390625 C4.29782654 11.89437681 4.29782654 11.89437681 2 10 C1.3671875 7.6171875 1.3671875 7.6171875 0.875 4.875 C0.70742188 3.96492188 0.53984375 3.05484375 0.3671875 2.1171875 C0.24601562 1.41851562 0.12484375 0.71984375 0 0 Z " fill="#5C6785" transform="translate(55,258)"/>
<path d="M0 0 C2.01822917 0.06510417 4.03645833 0.13020833 6.0546875 0.1953125 C6.0546875 3.4953125 6.0546875 6.7953125 6.0546875 10.1953125 C0 10.390625 0 10.390625 -1.9453125 10.1953125 C-3.9453125 8.1953125 -3.9453125 8.1953125 -4.1953125 5.1953125 C-3.91874762 1.87653392 -3.53131274 0.35454947 0 0 Z " fill="#0C0639" transform="translate(926.9453125,152.8046875)"/>
<path d="M0 0 C2.01822917 0.06510417 4.03645833 0.13020833 6.0546875 0.1953125 C6.0546875 3.4953125 6.0546875 6.7953125 6.0546875 10.1953125 C0 10.390625 0 10.390625 -1.9453125 10.1953125 C-3.9453125 8.1953125 -3.9453125 8.1953125 -4.1953125 5.1953125 C-3.91874762 1.87653392 -3.53131274 0.35454947 0 0 Z " fill="#0C0639" transform="translate(303.9453125,152.8046875)"/>
<path d="M0 0 C2.01822917 0.06510417 4.03645833 0.13020833 6.0546875 0.1953125 C6.0546875 3.4953125 6.0546875 6.7953125 6.0546875 10.1953125 C0 10.390625 0 10.390625 -1.9453125 10.1953125 C-3.9453125 8.1953125 -3.9453125 8.1953125 -4.1953125 5.1953125 C-3.91874762 1.87653392 -3.53131274 0.35454947 0 0 Z " fill="#0C0639" transform="translate(210.9453125,152.8046875)"/>
<path d="M0 0 C2.5 0.5625 2.5 0.5625 4.3125 2.75 C5.5 5.5625 5.5 5.5625 5.5 10.5625 C1.87 10.5625 -1.76 10.5625 -5.5 10.5625 C-5.72179212 7.30954886 -5.78601103 5.13452207 -4.3125 2.1875 C-2.5 0.5625 -2.5 0.5625 0 0 Z " fill="#131141" transform="translate(432.5,136.4375)"/>
<path d="M0 0 C0.66 0 1.32 0 2 0 C2.50333542 2.60356241 3.00279378 5.20776651 3.5 7.8125 C3.64308594 8.55048828 3.78617188 9.28847656 3.93359375 10.04882812 C4.50926281 13.07794391 5 15.909196 5 19 C2.36 19 -0.28 19 -3 19 C-2.68926976 16.77058595 -2.37634375 14.54147788 -2.0625 12.3125 C-1.88847656 11.07113281 -1.71445312 9.82976562 -1.53515625 8.55078125 C-1.10177103 5.67525452 -0.60350718 2.84355187 0 0 Z " fill="#120F40" transform="translate(758,128)"/>
<path d="M0 0 C1.32 0 2.64 0 4 0 C4 7.26 4 14.52 4 22 C2.68 22 1.36 22 0 22 C0 14.74 0 7.48 0 0 Z " fill="#B1C6CB" transform="translate(646,214)"/>
<path d="M0 0 C3 0.25 3 0.25 5 2.25 C5.25 5.25 5.25 5.25 5 8.25 C3 10.25 3 10.25 0 10.5 C-3 10.25 -3 10.25 -5 8.25 C-5.25 5.25 -5.25 5.25 -5 2.25 C-3 0.25 -3 0.25 0 0 Z " fill="#5F7E92" transform="translate(974,108.75)"/>
<path d="M0 0 C1.875 1.1875 1.875 1.1875 3 3 C2.75546876 6.34192692 2.39456443 7.60543557 0 10 C-3.625 9.625 -3.625 9.625 -7 9 C-8.33157895 3.55263158 -8.33157895 3.55263158 -6.875 1.125 C-4.36737712 -0.37957373 -2.87879197 -0.4318188 0 0 Z " fill="#5E7D91" transform="translate(908,109)"/>
<path d="M0 0 C3 0.25 3 0.25 5 2.25 C5.25 5.25 5.25 5.25 5 8.25 C3 10.25 3 10.25 0 10.5 C-3 10.25 -3 10.25 -5 8.25 C-5.25 5.25 -5.25 5.25 -5 2.25 C-3 0.25 -3 0.25 0 0 Z " fill="#5F7E92" transform="translate(236,108.75)"/>
<path d="M0 0 C2.4375 0.875 2.4375 0.875 4.4375 3.875 C4.4375 5.525 4.4375 7.175 4.4375 8.875 C1.1375 8.875 -2.1625 8.875 -5.5625 8.875 C-5.92325949 3.46360759 -5.92325949 3.46360759 -4.375 0.9375 C-2.5625 -0.125 -2.5625 -0.125 0 0 Z " fill="#0B0539" transform="translate(607.5625,137.125)"/>
<path d="M0 0 C2.4375 0.875 2.4375 0.875 4.4375 3.875 C4.4375 5.525 4.4375 7.175 4.4375 8.875 C1.1375 8.875 -2.1625 8.875 -5.5625 8.875 C-5.92325949 3.46360759 -5.92325949 3.46360759 -4.375 0.9375 C-2.5625 -0.125 -2.5625 -0.125 0 0 Z " fill="#0B0539" transform="translate(370.5625,137.125)"/>
<path d="M0 0 C1.98 0.495 1.98 0.495 4 1 C4 5.29 4 9.58 4 14 C2.68 14.33 1.36 14.66 0 15 C-1 14 -1 14 -1.1328125 11.09375 C-1.13023437 9.9078125 -1.12765625 8.721875 -1.125 7.5 C-1.12757813 6.3140625 -1.13015625 5.128125 -1.1328125 3.90625 C-1 1 -1 1 0 0 Z " fill="#0E083A" transform="translate(659,217)"/>
<path d="M0 0 C0.33 0 0.66 0 1 0 C0.67 10.89 0.34 21.78 0 33 C-0.33 33 -0.66 33 -1 33 C-1.02187378 31.97060303 -1.02187378 31.97060303 -1.04418945 30.92041016 C-1.11850151 27.82136099 -1.21521582 24.72340945 -1.3125 21.625 C-1.33505859 20.54476562 -1.35761719 19.46453125 -1.38085938 18.3515625 C-1.41630859 17.3203125 -1.45175781 16.2890625 -1.48828125 15.2265625 C-1.51446533 14.27346191 -1.54064941 13.32036133 -1.56762695 12.33837891 C-1.71031006 11.56671387 -1.85299316 10.79504883 -2 10 C-2.99 9.34 -3.98 8.68 -5 8 C-2.25 2.25 -2.25 2.25 0 0 Z " fill="#C6CDD3" transform="translate(88,202)"/>
<path d="M0 0 C0.33 0 0.66 0 1 0 C1 4.62 1 9.24 1 14 C-1.31 14 -3.62 14 -6 14 C-4.50829734 9.0276578 -2.39542583 4.58154261 0 0 Z " fill="#120C3E" transform="translate(770,210)"/>
<path d="M0 0 C3.96 0 7.92 0 12 0 C12 1.32 12 2.64 12 4 C8.04 4 4.08 4 0 4 C0 2.68 0 1.36 0 0 Z " fill="#A1B4BD" transform="translate(781,220)"/>
<path d="M0 0 C1.13199353 0.9080162 2.25532363 1.82683826 3.375 2.75 C4.00148438 3.26046875 4.62796875 3.7709375 5.2734375 4.296875 C7.08312318 6.08199481 8.00117455 7.67949644 9 10 C7.68 10 6.36 10 5 10 C4.67 10.66 4.34 11.32 4 12 C1.57869669 9.57869669 1.47159496 8.19888623 0.875 4.875 C0.70742188 3.96492188 0.53984375 3.05484375 0.3671875 2.1171875 C0.24601562 1.41851562 0.12484375 0.71984375 0 0 Z " fill="#494D70" transform="translate(55,258)"/>
<path d="M0 0 C3.21524305 1.40844718 5.32183868 3.10344786 7.75 5.625 C8.67039062 6.57246094 8.67039062 6.57246094 9.609375 7.5390625 C10.29773438 8.26222656 10.29773438 8.26222656 11 9 C10.01 9.66 9.02 10.32 8 11 C7.01 12.485 7.01 12.485 6 14 C5.73445313 13.32453125 5.46890625 12.6490625 5.1953125 11.953125 C4.84210937 11.06109375 4.48890625 10.1690625 4.125 9.25 C3.77695312 8.36828125 3.42890625 7.4865625 3.0703125 6.578125 C2.1353291 4.3259752 1.12219206 2.16350541 0 0 Z " fill="#D4DEE6" transform="translate(47,75)"/>
<path d="M0 0 C0.33 0 0.66 0 1 0 C1.125 6.625 1.125 6.625 0 10 C-1.84765625 10.94921875 -1.84765625 10.94921875 -4.0625 11.6875 C-5.16271484 12.06455078 -5.16271484 12.06455078 -6.28515625 12.44921875 C-6.85105469 12.63097656 -7.41695313 12.81273437 -8 13 C-6.46798474 9.55296566 -4.34730584 6.93413229 -2 4 C-1.29114106 2.68861096 -0.60543548 1.36222983 0 0 Z " fill="#C7C4BC" transform="translate(120,205)"/>
<path d="M0 0 C0.33 1.32 0.66 2.64 1 4 C-1.97 6.475 -1.97 6.475 -5 9 C-5.66 8.34 -6.32 7.68 -7 7 C-7.66 7 -8.32 7 -9 7 C-8.67 5.68 -8.34 4.36 -8 3 C-8 3.66 -8 4.32 -8 5 C-4.04 2.525 -4.04 2.525 0 0 Z " fill="#BBB6B6" transform="translate(97,232)"/>
<path d="M0 0 C0.33 0 0.66 0 1 0 C1 7.26 1 14.52 1 22 C0.67 22 0.34 22 0 22 C-0.33 18.04 -0.66 14.08 -1 10 C-1.33 10 -1.66 10 -2 10 C-1.125 2.25 -1.125 2.25 0 0 Z " fill="#EAEDEE" transform="translate(86,210)"/>
<path d="M0 0 C1.32 0.66 2.64 1.32 4 2 C4 3.32 4 4.64 4 6 C2.02 6 0.04 6 -2 6 C-1.125 1.125 -1.125 1.125 0 0 Z " fill="#2A2953" transform="translate(601,217)"/>
<path d="M0 0 C0 0.99 0 1.98 0 3 C-0.33 2.67 -0.66 2.34 -1 2 C-3.82876903 1.33112827 -3.82876903 1.33112827 -7 2 C-9.0421791 4.11624778 -10.53482724 6.45863841 -12 9 C-12.66 8.67 -13.32 8.34 -14 8 C-9.88704167 0.75335914 -8.29584283 -0.40799227 0 0 Z " fill="#464E72" transform="translate(115,69)"/>
<path d="M0 0 C3.55780196 0.60990891 6.6828589 1.5783681 10 3 C9.01 3.33 8.02 3.66 7 4 C7 5.98 7 7.96 7 10 C6.67 10 6.34 10 6 10 C6 8.35 6 6.7 6 5 C5.38125 4.731875 4.7625 4.46375 4.125 4.1875 C2 3 2 3 0 0 Z " fill="#3F3F64" transform="translate(65,268)"/>
<path d="M0 0 C0.33 0 0.66 0 1 0 C0.88556397 2.0839403 0.75804453 4.16716493 0.625 6.25 C0.55539063 7.41015625 0.48578125 8.5703125 0.4140625 9.765625 C0.03751692 12.70694334 -0.4774123 14.49949011 -2 17 C-1.98839844 16.30132812 -1.97679688 15.60265625 -1.96484375 14.8828125 C-1.95582031 13.97273437 -1.94679688 13.06265625 -1.9375 12.125 C-1.92589844 11.22007812 -1.91429688 10.31515625 -1.90234375 9.3828125 C-1.83750743 6.9831415 -1.83750743 6.9831415 -3 5 C-1.625 2.375 -1.625 2.375 0 0 Z " fill="#DDDFE1" transform="translate(118,218)"/>
<path d="M0 0 C1.67542976 0.28604898 3.34385343 0.61781233 5 1 C4.67 2.32 4.34 3.64 4 5 C2.68 5 1.36 5 0 5 C-0.5625 3.0625 -0.5625 3.0625 -1 1 C-0.67 0.67 -0.34 0.34 0 0 Z " fill="#A2B4BD" transform="translate(646,202)"/>
<path d="M0 0 C1.125 3.75 1.125 3.75 0 6 C2.64 5.67 5.28 5.34 8 5 C7.67 5.66 7.34 6.32 7 7 C4.71484375 7.4140625 4.71484375 7.4140625 1.9375 7.625 C1.01839844 7.69976562 0.09929687 7.77453125 -0.84765625 7.8515625 C-1.91306641 7.92503906 -1.91306641 7.92503906 -3 8 C-1.125 2.25 -1.125 2.25 0 0 Z " fill="#82809B" transform="translate(115,239)"/>
<path d="M0 0 C1 2 1 2 0.4375 4.375 C-1.41741462 7.76223539 -3.71164126 9.06987639 -7 11 C-7.66 10.67 -8.32 10.34 -9 10 C-8.27683594 9.29423828 -8.27683594 9.29423828 -7.5390625 8.57421875 C-6.90742187 7.95160156 -6.27578125 7.32898438 -5.625 6.6875 C-4.68527344 5.76517578 -4.68527344 5.76517578 -3.7265625 4.82421875 C-1.81913393 2.91187472 -1.81913393 2.91187472 0 0 Z " fill="#C4C0BB" transform="translate(111,218)"/>
<path d="M0 0 C0.33 0.99 0.66 1.98 1 3 C1.66 3 2.32 3 3 3 C3.125 8.75 3.125 8.75 2 11 C1.01 10.67 0.02 10.34 -1 10 C-0.835 9.0925 -0.67 8.185 -0.5 7.25 C0.10137146 3.88912497 0.10137146 3.88912497 0 0 Z " fill="#474D75" transform="translate(23,203)"/>
<path d="M0 0 C0.66 0.33 1.32 0.66 2 1 C0.87895467 2.31587941 -0.24696965 3.62760353 -1.375 4.9375 C-2.00148437 5.66839844 -2.62796875 6.39929688 -3.2734375 7.15234375 C-5 9 -5 9 -7 10 C-5.6062718 5.56541027 -3.39417765 3.12621626 0 0 Z " fill="#1A1848" transform="translate(134,88)"/>
<path d="M0 0 C0.66 0.33 1.32 0.66 2 1 C0.125 5.75 0.125 5.75 -1 8 C-1.66 8 -2.32 8 -3 8 C-3.66 9.32 -4.32 10.64 -5 12 C-4.42365861 7.24518354 -2.44931479 4.02951788 0 0 Z " fill="#F4F1E9" transform="translate(70,225)"/>
<path d="M0 0 C0 1.98 0 3.96 0 6 C-0.99 6 -1.98 6 -3 6 C-3.99 6.66 -4.98 7.32 -6 8 C-3.73913043 0 -3.73913043 0 0 0 Z " fill="#F8F5EF" transform="translate(117,224)"/>
<path d="M0 0 C0.66 0.33 1.32 0.66 2 1 C2.625 4.0625 2.625 4.0625 3 7 C2.01 6.67 1.02 6.34 0 6 C0 5.34 0 4.68 0 4 C-1.32 3.67 -2.64 3.34 -4 3 C-2.68 3 -1.36 3 0 3 C0 2.01 0 1.02 0 0 Z " fill="#4D5375" transform="translate(45,245)"/>
<path d="M0 0 C0.66 0 1.32 0 2 0 C0.55746343 3.36591866 -1.33264727 5.51047079 -4 8 C-3.40312566 4.65750371 -2.26396123 2.53563658 0 0 Z " fill="#797E89" transform="translate(83,205)"/>
<path d="M0 0 C2 2 2 2 2 5 C0.35 5.33 -1.3 5.66 -3 6 C-2 4 -1 2 0 0 Z " fill="#D9DAD6" transform="translate(79,213)"/>
</svg>
