<?xml version="1.0" encoding="UTF-8"?>
<svg version="1.1" xmlns="http://www.w3.org/2000/svg" width="50" height="50">
<path d="M0 0 C5.56340585 3.36669624 9.53349183 8.25193794 11.5 14.4375 C12.30594257 22.2813829 12.59671889 30.02934467 7.5 36.4375 C3.04867668 41.14197914 -1.19064516 44.09747071 -7.76953125 44.7734375 C-16.04371997 44.8646634 -22.08428015 44.61560264 -28.2421875 38.7890625 C-34.17397269 32.28964236 -34.96296445 26.57688134 -34.80859375 17.88671875 C-34.22339005 11.3457711 -31.85547257 7.43687235 -27.0625 3.0625 C-19.84507341 -2.93248543 -8.52200107 -3.84066973 0 0 Z M-15.5 10.4375 C-15.90047444 12.76025177 -16.2397104 15.09489357 -16.5 17.4375 C-17.49 17.4375 -18.48 17.4375 -19.5 17.4375 C-19.5 19.0875 -19.5 20.7375 -19.5 22.4375 C-18.51 22.4375 -17.52 22.4375 -16.5 22.4375 C-16.5 26.7275 -16.5 31.0175 -16.5 35.4375 C-14.52 35.4375 -12.54 35.4375 -10.5 35.4375 C-10.5 31.1475 -10.5 26.8575 -10.5 22.4375 C-8.85 22.4375 -7.2 22.4375 -5.5 22.4375 C-5.5 20.7875 -5.5 19.1375 -5.5 17.4375 C-7.15 17.4375 -8.8 17.4375 -10.5 17.4375 C-10.5 15.7875 -10.5 14.1375 -10.5 12.4375 C-8.52 12.4375 -6.54 12.4375 -4.5 12.4375 C-4.5 11.1175 -4.5 9.7975 -4.5 8.4375 C-5.95792884 8.38350264 -7.41642712 8.34470823 -8.875 8.3125 C-10.09316406 8.27769531 -10.09316406 8.27769531 -11.3359375 8.2421875 C-13.71342243 8.22379949 -13.71342243 8.22379949 -15.5 10.4375 Z " fill="#000000" transform="translate(36.5,3.5625)"/>
</svg>
